STIXTwoMath.ufo
<glyph name="parenleft" format="2">
  <advance width="357"/>
  <unicode hex="0028"/>
  <outline>
    <contour>
      <point x="45" y="270" type="curve" smooth="yes"/>
      <point x="45" y="47"/>
      <point x="150" y="-112"/>
      <point x="311" y="-196" type="curve"/>
      <point x="327" y="-170" type="line"/>
      <point x="181" y="-71"/>
      <point x="127" y="66"/>
      <point x="127" y="270" type="curve" smooth="yes"/>
      <point x="127" y="474"/>
      <point x="181" y="611"/>
      <point x="327" y="710" type="curve"/>
      <point x="311" y="736" type="line"/>
      <point x="150" y="652"/>
      <point x="45" y="493"/>
    </contour>
  </outline>
  <guideline angle="0" x="0" y="732"/>
  <guideline angle="0" x="0" y="-192"/>
</glyph>
<glyph name="plus" format="2">
  <advance width="720"/>
  <unicode hex="002B"/>
  <outline>
    <contour>
      <point x="658" y="225" type="line"/>
      <point x="658" y="293" type="line"/>
      <point x="396" y="293" type="line"/>
      <point x="396" y="558" type="line"/>
      <point x="324" y="558" type="line"/>
      <point x="324" y="293" type="line"/>
      <point x="62" y="293" type="line"/>
      <point x="62" y="225" type="line"/>
      <point x="324" y="225" type="line"/>
      <point x="324" y="-40" type="line"/>
      <point x="396" y="-40" type="line"/>
      <point x="396" y="225" type="line"/>
    </contour>
  </outline>
</glyph>
<glyph name="four" format="2">
  <advance width="495"/>
  <unicode hex="0034"/>
  <outline>
    <contour>
      <point x="481" y="158" type="line"/>
      <point x="481" y="227" type="line"/>
      <point x="379" y="227" type="line"/>
      <point x="379" y="645" type="line"/>
      <point x="318" y="645" type="line"/>
      <point x="13" y="221" type="line"/>
      <point x="13" y="158" type="line"/>
      <point x="290" y="158" type="line"/>
      <point x="290" y="0" type="line"/>
      <point x="379" y="0" type="line"/>
      <point x="379" y="158" type="line"/>
    </contour>
    <contour>
      <point x="290" y="227" type="line"/>
      <point x="68" y="227" type="line"/>
      <point x="68" y="231" type="line"/>
      <point x="286" y="536" type="line"/>
      <point x="290" y="536" type="line"/>
    </contour>
  </outline>
</glyph>
<glyph name="seven" format="2">
  <advance width="495"/>
  <unicode hex="0037"/>
  <outline>
    <contour>
      <point x="464" y="599" type="line"/>
      <point x="464" y="630" type="line"/>
      <point x="82" y="630" type="line"/>
      <point x="42" y="477" type="line"/>
      <point x="73" y="474" type="line"/>
      <point x="100" y="539"/>
      <point x="108" y="549"/>
      <point x="164" y="549" type="curve" smooth="yes"/>
      <point x="387" y="549" type="line"/>
      <point x="151" y="-8" type="line"/>
      <point x="230" y="-8" type="line"/>
    </contour>
  </outline>
</glyph>
<glyph name="A" format="2">
  <advance width="718"/>
  <unicode hex="0041"/>
  <outline>
    <contour>
      <point x="714" y="0" type="line"/>
      <point x="714" y="30" type="line"/>
      <point x="660" y="30"/>
      <point x="640" y="53"/>
      <point x="611" y="119" type="curve" smooth="yes"/>
      <point x="374" y="662" type="line"/>
      <point x="333" y="662" type="line"/>
      <point x="121" y="160" type="line" smooth="yes"/>
      <point x="73" y="46"/>
      <point x="59" y="30"/>
      <point x="3" y="30" type="curve"/>
      <point x="3" y="0" type="line"/>
      <point x="213" y="0" type="line"/>
      <point x="213" y="30" type="line"/>
      <point x="166" y="30"/>
      <point x="146" y="36"/>
      <point x="146" y="64" type="curve" smooth="yes"/>
      <point x="146" y="82"/>
      <point x="151" y="97"/>
      <point x="157" y="113" type="curve"/>
      <point x="202" y="219" type="line"/>
      <point x="458" y="219" type="line"/>
      <point x="497" y="129" type="line" smooth="yes"/>
      <point x="510" y="99"/>
      <point x="514" y="81"/>
      <point x="514" y="67" type="curve" smooth="yes"/>
      <point x="514" y="32"/>
      <point x="475" y="30"/>
      <point x="445" y="30" type="curve"/>
      <point x="445" y="0" type="line"/>
    </contour>
    <contour>
      <point x="443" y="259" type="line"/>
      <point x="217" y="259" type="line"/>
      <point x="330" y="539" type="line"/>
      <point x="333" y="539" type="line"/>
    </contour>
  </outline>
</glyph>
<glyph name="B" format="2">
  <advance width="618"/>
  <unicode hex="0042"/>
  <outline>
    <contour>
      <point x="409" y="350" type="line"/>
      <point x="492" y="372"/>
      <point x="551" y="412"/>
      <point x="551" y="501" type="curve" smooth="yes"/>
      <point x="551" y="600"/>
      <point x="484" y="657"/>
      <point x="306" y="657" type="curve" smooth="yes"/>
      <point x="36" y="657" type="line"/>
      <point x="36" y="627" type="line"/>
      <point x="117" y="627"/>
      <point x="133" y="616"/>
      <point x="133" y="536" type="curve" smooth="yes"/>
      <point x="133" y="127" type="line" smooth="yes"/>
      <point x="133" y="44"/>
      <point x="117" y="30"/>
      <point x="36" y="30" type="curve"/>
      <point x="36" y="0" type="line"/>
      <point x="344" y="0" type="line" smooth="yes"/>
      <point x="493" y="0"/>
      <point x="583" y="63"/>
      <point x="583" y="177" type="curve" smooth="yes"/>
      <point x="583" y="286"/>
      <point x="494" y="332"/>
      <point x="409" y="346" type="curve"/>
    </contour>
    <contour>
      <point x="225" y="362" type="line"/>
      <point x="225" y="615" type="line"/>
      <point x="245" y="617"/>
      <point x="266" y="618"/>
      <point x="285" y="618" type="curve" smooth="yes"/>
      <point x="407" y="618"/>
      <point x="452" y="571"/>
      <point x="452" y="493" type="curve" smooth="yes"/>
      <point x="452" y="402"/>
      <point x="414" y="362"/>
      <point x="293" y="362" type="curve" smooth="yes"/>
    </contour>
    <contour>
      <point x="225" y="320" type="line"/>
      <point x="295" y="320" type="line" smooth="yes"/>
      <point x="388" y="320"/>
      <point x="478" y="289"/>
      <point x="478" y="175" type="curve" smooth="yes"/>
      <point x="478" y="48"/>
      <point x="383" y="37"/>
      <point x="297" y="37" type="curve" smooth="yes"/>
      <point x="273" y="37"/>
      <point x="249" y="38"/>
      <point x="225" y="40" type="curve"/>
    </contour>
  </outline>
</glyph>
<glyph name="H" format="2">
  <advance width="777"/>
  <unicode hex="0048"/>
  <outline>
    <contour>
      <point x="239" y="525" type="line" smooth="yes"/>
      <point x="239" y="603"/>
      <point x="242" y="627"/>
      <point x="337" y="627" type="curve"/>
      <point x="337" y="657" type="line"/>
      <point x="50" y="657" type="line"/>
      <point x="50" y="627" type="line"/>
      <point x="142" y="627"/>
      <point x="147" y="603"/>
      <point x="147" y="525" type="curve" smooth="yes"/>
      <point x="147" y="131" type="line" smooth="yes"/>
      <point x="147" y="42"/>
      <point x="140" y="30"/>
      <point x="50" y="30" type="curve"/>
      <point x="50" y="0" type="line"/>
      <point x="337" y="0" type="line"/>
      <point x="337" y="30" type="line"/>
      <point x="247" y="30"/>
      <point x="239" y="43"/>
      <point x="239" y="131" type="curve" smooth="yes"/>
      <point x="239" y="318" type="line"/>
      <point x="567" y="318" type="line"/>
      <point x="567" y="131" type="line" smooth="yes"/>
      <point x="567" y="44"/>
      <point x="559" y="30"/>
      <point x="470" y="30" type="curve"/>
      <point x="470" y="0" type="line"/>
      <point x="756" y="0" type="line"/>
      <point x="756" y="30" type="line"/>
      <point x="665" y="30"/>
      <point x="658" y="44"/>
      <point x="658" y="131" type="curve" smooth="yes"/>
      <point x="658" y="525" type="line" smooth="yes"/>
      <point x="658" y="604"/>
      <point x="661" y="627"/>
      <point x="756" y="627" type="curve"/>
      <point x="756" y="657" type="line"/>
      <point x="470" y="657" type="line"/>
      <point x="470" y="627" type="line"/>
      <point x="562" y="627"/>
      <point x="567" y="603"/>
      <point x="567" y="525" type="curve" smooth="yes"/>
      <point x="567" y="357" type="line"/>
      <point x="239" y="357" type="line"/>
    </contour>
  </outline>
</glyph>
<glyph name="I" format="2">
  <advance width="357"/>
  <unicode hex="0049"/>
  <outline>
    <contour>
      <point x="133" y="131" type="line" smooth="yes"/>
      <point x="133" y="45"/>
      <point x="124" y="30"/>
      <point x="34" y="30" type="curve"/>
      <point x="34" y="0" type="line"/>
      <point x="322" y="0" type="line"/>
      <point x="322" y="30" type="line"/>
      <point x="233" y="30"/>
      <point x="224" y="45"/>
      <point x="224" y="131" type="curve" smooth="yes"/>
      <point x="224" y="525" type="line" smooth="yes"/>
      <point x="224" y="603"/>
      <point x="227" y="627"/>
      <point x="322" y="627" type="curve"/>
      <point x="322" y="657" type="line"/>
      <point x="34" y="657" type="line"/>
      <point x="34" y="627" type="line"/>
      <point x="129" y="627"/>
      <point x="133" y="603"/>
      <point x="133" y="525" type="curve" smooth="yes"/>
    </contour>
  </outline>
</glyph>
<glyph name="Q" format="2">
  <advance width="737"/>
  <unicode hex="0051"/>
  <outline>
    <contour>
      <point x="687" y="339" type="curve" smooth="yes"/>
      <point x="687" y="535"/>
      <point x="568" y="669"/>
      <point x="369" y="669" type="curve" smooth="yes"/>
      <point x="171" y="669"/>
      <point x="50" y="532"/>
      <point x="50" y="329" type="curve" smooth="yes"/>
      <point x="50" y="125"/>
      <point x="162" y="1"/>
      <point x="344" y="-11" type="curve"/>
      <point x="368" y="-52" type="line" smooth="yes"/>
      <point x="421" y="-143"/>
      <point x="498" y="-173"/>
      <point x="664" y="-173" type="curve" smooth="yes"/>
      <point x="714" y="-173" type="line"/>
      <point x="714" y="-140" type="line"/>
      <point x="594" y="-140"/>
      <point x="530" y="-100"/>
      <point x="459" y="0" type="curve"/>
      <point x="459" y="2" type="line"/>
      <point x="600" y="36"/>
      <point x="687" y="165"/>
    </contour>
    <contour>
      <point x="582" y="335" type="curve" smooth="yes"/>
      <point x="582" y="134"/>
      <point x="512" y="30"/>
      <point x="370" y="30" type="curve" smooth="yes"/>
      <point x="226" y="30"/>
      <point x="155" y="147"/>
      <point x="155" y="335" type="curve" smooth="yes"/>
      <point x="155" y="518"/>
      <point x="237" y="627"/>
      <point x="366" y="627" type="curve" smooth="yes"/>
      <point x="495" y="627"/>
      <point x="582" y="515"/>
    </contour>
  </outline>
</glyph>
<glyph name="bracketleft" format="2">
  <advance width="349"/>
  <unicode hex="005B"/>
  <outline>
    <contour>
      <point x="299" y="-196" type="line"/>
      <point x="299" y="-164" type="line"/>
      <point x="169" y="-164" type="line"/>
      <point x="169" y="704" type="line"/>
      <point x="299" y="704" type="line"/>
      <point x="299" y="736" type="line"/>
      <point x="90" y="736" type="line"/>
      <point x="90" y="-196" type="line"/>
    </contour>
  </outline>
</glyph>
<glyph name="e" format="2">
  <advance width="464"/>
  <unicode hex="0065"/>
  <outline>
    <contour>
      <point x="415" y="143" type="line"/>
      <point x="383" y="101"/>
      <point x="352" y="65"/>
      <point x="271" y="65" type="curve" smooth="yes"/>
      <point x="191" y="65"/>
      <point x="115" y="128"/>
      <point x="115" y="266" type="curve"/>
      <point x="431" y="266" type="line"/>
      <point x="426" y="406"/>
      <point x="354" y="485"/>
      <point x="245" y="485" type="curve" smooth="yes"/>
      <point x="128" y="485"/>
      <point x="34" y="405"/>
      <point x="34" y="238" type="curve" smooth="yes"/>
      <point x="34" y="77"/>
      <point x="127" y="-10"/>
      <point x="247" y="-10" type="curve" smooth="yes"/>
      <point x="350" y="-10"/>
      <point x="398" y="53"/>
      <point x="434" y="129" type="curve"/>
    </contour>
    <contour>
      <point x="114" y="303" type="line"/>
      <point x="122" y="396"/>
      <point x="162" y="445"/>
      <point x="230" y="445" type="curve" smooth="yes"/>
      <point x="301" y="445"/>
      <point x="334" y="377"/>
      <point x="337" y="303" type="curve"/>
    </contour>
  </outline>
</glyph>
<glyph name="f" format="2">
  <advance width="307"/>
  <unicode hex="0066"/>
  <outline>
    <contour>
      <point x="26" y="468" type="line"/>
      <point x="26" y="426" type="line"/>
      <point x="102" y="426" type="line"/>
      <point x="102" y="119" type="line" smooth="yes"/>
      <point x="102" y="41"/>
      <point x="91" y="29"/>
      <point x="18" y="29" type="curve"/>
      <point x="18" y="0" type="line"/>
      <point x="287" y="0" type="line"/>
      <point x="287" y="29" type="line"/>
      <point x="204" y="29"/>
      <point x="185" y="41"/>
      <point x="185" y="119" type="curve" smooth="yes"/>
      <point x="185" y="426" type="line"/>
      <point x="307" y="426" type="line"/>
      <point x="307" y="468" type="line"/>
      <point x="185" y="468" type="line"/>
      <point x="185" y="562" type="line" smooth="yes"/>
      <point x="185" y="646"/>
      <point x="196" y="676"/>
      <point x="233" y="676" type="curve" smooth="yes"/>
      <point x="283" y="676"/>
      <point x="288" y="600"/>
      <point x="338" y="600" type="curve" smooth="yes"/>
      <point x="361" y="600"/>
      <point x="379" y="614"/>
      <point x="379" y="643" type="curve" smooth="yes"/>
      <point x="379" y="688"/>
      <point x="332" y="713"/>
      <point x="267" y="713" type="curve" smooth="yes"/>
      <point x="197" y="713"/>
      <point x="161" y="686"/>
      <point x="134" y="640" type="curve" smooth="yes"/>
      <point x="108" y="594"/>
      <point x="102" y="549"/>
      <point x="102" y="468" type="curve"/>
    </contour>
  </outline>
</glyph>
<glyph name="braceleft" format="2">
  <advance width="327"/>
  <unicode hex="007B"/>
  <outline>
    <contour>
      <point x="25" y="245" type="line"/>
      <point x="72" y="240"/>
      <point x="115" y="233"/>
      <point x="115" y="173" type="curve" smooth="yes"/>
      <point x="115" y="126"/>
      <point x="96" y="8"/>
      <point x="96" y="-52" type="curve" smooth="yes"/>
      <point x="96" y="-167"/>
      <point x="184" y="-197"/>
      <point x="282" y="-197" type="curve"/>
      <point x="282" y="-165" type="line"/>
      <point x="225" y="-165"/>
      <point x="170" y="-150"/>
      <point x="170" y="-64" type="curve" smooth="yes"/>
      <point x="170" y="-13"/>
      <point x="185" y="68"/>
      <point x="185" y="129" type="curve" smooth="yes"/>
      <point x="185" y="212"/>
      <point x="144" y="247"/>
      <point x="93" y="267" type="curve"/>
      <point x="93" y="273" type="line"/>
      <point x="144" y="293"/>
      <point x="185" y="328"/>
      <point x="185" y="411" type="curve" smooth="yes"/>
      <point x="185" y="472"/>
      <point x="170" y="552"/>
      <point x="170" y="603" type="curve" smooth="yes"/>
      <point x="170" y="689"/>
      <point x="225" y="704"/>
      <point x="282" y="704" type="curve"/>
      <point x="282" y="736" type="line"/>
      <point x="184" y="736"/>
      <point x="96" y="706"/>
      <point x="96" y="591" type="curve" smooth="yes"/>
      <point x="96" y="531"/>
      <point x="115" y="414"/>
      <point x="115" y="367" type="curve" smooth="yes"/>
      <point x="115" y="307"/>
      <point x="72" y="300"/>
      <point x="25" y="295" type="curve"/>
    </contour>
  </outline>
  <guideline angle="0" x="0" y="270"/>
  <guideline angle="90" x="132" y="0"/>
</glyph>
<glyph name="braceright" format="2">
  <advance width="327"/>
  <unicode hex="007D"/>
  <outline>
    <contour>
      <point x="302" y="295" type="line"/>
      <point x="255" y="300"/>
      <point x="212" y="307"/>
      <point x="212" y="367" type="curve" smooth="yes"/>
      <point x="212" y="414"/>
      <point x="231" y="531"/>
      <point x="231" y="591" type="curve" smooth="yes"/>
      <point x="231" y="706"/>
      <point x="143" y="736"/>
      <point x="45" y="736" type="curve"/>
      <point x="45" y="704" type="line"/>
      <point x="102" y="704"/>
      <point x="157" y="689"/>
      <point x="157" y="603" type="curve" smooth="yes"/>
      <point x="157" y="552"/>
      <point x="142" y="472"/>
      <point x="142" y="411" type="curve" smooth="yes"/>
      <point x="142" y="328"/>
      <point x="183" y="293"/>
      <point x="234" y="273" type="curve"/>
      <point x="234" y="267" type="line"/>
      <point x="183" y="247"/>
      <point x="142" y="212"/>
      <point x="142" y="129" type="curve" smooth="yes"/>
      <point x="142" y="68"/>
      <point x="157" y="-13"/>
      <point x="157" y="-64" type="curve" smooth="yes"/>
      <point x="157" y="-150"/>
      <point x="102" y="-165"/>
      <point x="45" y="-165" type="curve"/>
      <point x="45" y="-197" type="line"/>
      <point x="143" y="-197"/>
      <point x="231" y="-167"/>
      <point x="231" y="-52" type="curve" smooth="yes"/>
      <point x="231" y="8"/>
      <point x="212" y="126"/>
      <point x="212" y="173" type="curve" smooth="yes"/>
      <point x="212" y="233"/>
      <point x="255" y="240"/>
      <point x="302" y="245" type="curve"/>
    </contour>
  </outline>
  <guideline angle="0" x="0" y="270"/>
  <guideline angle="90" x="184" y="0"/>
</glyph>
<glyph name="asciitilde" format="2">
  <advance width="557"/>
  <unicode hex="007E"/>
  <outline>
    <contour>
      <point x="384" y="198" type="curve" smooth="yes"/>
      <point x="460" y="198"/>
      <point x="492" y="241"/>
      <point x="527" y="310" type="curve"/>
      <point x="478" y="336" type="line"/>
      <point x="453" y="293"/>
      <point x="431" y="263"/>
      <point x="384" y="263" type="curve" smooth="yes"/>
      <point x="314" y="263"/>
      <point x="248" y="319"/>
      <point x="173" y="319" type="curve" smooth="yes"/>
      <point x="97" y="319"/>
      <point x="65" y="276"/>
      <point x="30" y="207" type="curve"/>
      <point x="79" y="181" type="line"/>
      <point x="104" y="224"/>
      <point x="126" y="254"/>
      <point x="173" y="254" type="curve" smooth="yes"/>
      <point x="244" y="254"/>
      <point x="309" y="198"/>
    </contour>
  </outline>
</glyph>
<glyph name="cent" format="2">
  <advance width="495"/>
  <unicode hex="00A2"/>
  <outline>
    <contour>
      <point x="225" y="-25" type="line"/>
      <point x="268" y="-25" type="line"/>
      <point x="271" y="72" type="line"/>
      <point x="366" y="79"/>
      <point x="412" y="137"/>
      <point x="448" y="214" type="curve"/>
      <point x="429" y="228" type="line"/>
      <point x="384" y="170"/>
      <point x="354" y="143"/>
      <point x="289" y="143" type="curve" smooth="yes"/>
      <point x="274" y="143" type="line"/>
      <point x="288" y="525" type="line"/>
      <point x="343" y="504"/>
      <point x="324" y="414"/>
      <point x="390" y="414" type="curve" smooth="yes"/>
      <point x="418" y="414"/>
      <point x="432" y="430"/>
      <point x="432" y="459" type="curve" smooth="yes"/>
      <point x="432" y="516"/>
      <point x="380" y="561"/>
      <point x="289" y="563" type="curve"/>
      <point x="293" y="657" type="line"/>
      <point x="250" y="657" type="line"/>
      <point x="246" y="560" type="line"/>
      <point x="124" y="544"/>
      <point x="46" y="449"/>
      <point x="46" y="306" type="curve" smooth="yes"/>
      <point x="46" y="176"/>
      <point x="118" y="85"/>
      <point x="228" y="73" type="curve"/>
    </contour>
    <contour>
      <point x="125" y="353" type="curve" smooth="yes"/>
      <point x="125" y="459"/>
      <point x="174" y="520"/>
      <point x="245" y="528" type="curve"/>
      <point x="231" y="153" type="line"/>
      <point x="164" y="180"/>
      <point x="125" y="256"/>
    </contour>
  </outline>
</glyph>
<glyph name="paragraph" format="2">
  <advance width="605"/>
  <unicode hex="00B6"/>
  <outline>
    <contour>
      <point x="545" y="-148" type="line"/>
      <point x="545" y="-119" type="line"/>
      <point x="467" y="-113"/>
      <point x="454" y="-99"/>
      <point x="454" y="-26" type="curve" smooth="yes"/>
      <point x="454" y="528" type="line" smooth="yes"/>
      <point x="454" y="604"/>
      <point x="466" y="624"/>
      <point x="545" y="631" type="curve"/>
      <point x="545" y="657" type="line"/>
      <point x="275" y="657" type="line" smooth="yes"/>
      <point x="125" y="657"/>
      <point x="55" y="594"/>
      <point x="55" y="461" type="curve" smooth="yes"/>
      <point x="55" y="318"/>
      <point x="131" y="269"/>
      <point x="260" y="258" type="curve"/>
      <point x="260" y="-14" type="line" smooth="yes"/>
      <point x="260" y="-100"/>
      <point x="249" y="-114"/>
      <point x="169" y="-119" type="curve"/>
      <point x="169" y="-148" type="line"/>
      <point x="327" y="-148" type="line"/>
      <point x="327" y="621" type="line"/>
      <point x="387" y="621" type="line"/>
      <point x="387" y="-148" type="line"/>
    </contour>
    <contour>
      <point x="260" y="287" type="line"/>
      <point x="172" y="296"/>
      <point x="139" y="345"/>
      <point x="139" y="463" type="curve" smooth="yes"/>
      <point x="139" y="578"/>
      <point x="163" y="613"/>
      <point x="260" y="622" type="curve"/>
    </contour>
  </outline>
</glyph>
<glyph name="onequarter" format="2">
  <advance width="861"/>
  <unicode hex="00BC"/>
  <outline>
    <component base="fraction" xOffset="324"/>
    <contour>
      <point x="281" y="252" type="line"/>
      <point x="281" y="279" type="line"/>
      <point x="213" y="279"/>
      <point x="201" y="291"/>
      <point x="201" y="328" type="curve" smooth="yes"/>
      <point x="201" y="663" type="line"/>
      <point x="168" y="663" type="line"/>
      <point x="43" y="627" type="line"/>
      <point x="43" y="597" type="line"/>
      <point x="61" y="601"/>
      <point x="84" y="607"/>
      <point x="100" y="607" type="curve" smooth="yes"/>
      <point x="121" y="607"/>
      <point x="128" y="595"/>
      <point x="128" y="569" type="curve" smooth="yes"/>
      <point x="128" y="328" type="line" smooth="yes"/>
      <point x="128" y="291"/>
      <point x="119" y="279"/>
      <point x="49" y="279" type="curve"/>
      <point x="49" y="252" type="line"/>
    </contour>
    <contour>
      <point x="834" y="98" type="line"/>
      <point x="834" y="156" type="line"/>
      <point x="764" y="156" type="line"/>
      <point x="764" y="413" type="line"/>
      <point x="713" y="413" type="line"/>
      <point x="495" y="143" type="line"/>
      <point x="495" y="98" type="line"/>
      <point x="694" y="98" type="line"/>
      <point x="694" y="0" type="line"/>
      <point x="764" y="0" type="line"/>
      <point x="764" y="98" type="line"/>
    </contour>
    <contour>
      <point x="694" y="156" type="line"/>
      <point x="557" y="156" type="line"/>
      <point x="557" y="159" type="line"/>
      <point x="689" y="325" type="line"/>
      <point x="694" y="325" type="line"/>
    </contour>
  </outline>
</glyph>
<glyph name="threequarters" format="2">
  <advance width="861"/>
  <unicode hex="00BE"/>
  <outline>
    <component base="fraction" xOffset="324"/>
    <contour>
      <point x="55" y="558" type="line"/>
      <point x="79" y="597"/>
      <point x="113" y="615"/>
      <point x="158" y="615" type="curve" smooth="yes"/>
      <point x="201" y="615"/>
      <point x="236" y="596"/>
      <point x="236" y="557" type="curve" smooth="yes"/>
      <point x="236" y="508"/>
      <point x="178" y="477"/>
      <point x="124" y="477" type="curve" smooth="yes"/>
      <point x="110" y="477" type="line"/>
      <point x="110" y="442" type="line"/>
      <point x="124" y="442" type="line" smooth="yes"/>
      <point x="206" y="442"/>
      <point x="256" y="417"/>
      <point x="256" y="355" type="curve" smooth="yes"/>
      <point x="256" y="293"/>
      <point x="215" y="282"/>
      <point x="173" y="282" type="curve" smooth="yes"/>
      <point x="131" y="282"/>
      <point x="93" y="324"/>
      <point x="64" y="324" type="curve" smooth="yes"/>
      <point x="42" y="324"/>
      <point x="33" y="308"/>
      <point x="33" y="288" type="curve" smooth="yes"/>
      <point x="33" y="268"/>
      <point x="49" y="244"/>
      <point x="120" y="244" type="curve" smooth="yes"/>
      <point x="232" y="244"/>
      <point x="329" y="277"/>
      <point x="329" y="369" type="curve" smooth="yes"/>
      <point x="329" y="428"/>
      <point x="282" y="463"/>
      <point x="221" y="476" type="curve"/>
      <point x="221" y="481" type="line"/>
      <point x="272" y="502"/>
      <point x="307" y="531"/>
      <point x="307" y="579" type="curve" smooth="yes"/>
      <point x="307" y="630"/>
      <point x="260" y="668"/>
      <point x="180" y="668" type="curve" smooth="yes"/>
      <point x="117" y="668"/>
      <point x="63" y="634"/>
      <point x="33" y="568" type="curve"/>
    </contour>
    <contour>
      <point x="834" y="98" type="line"/>
      <point x="834" y="156" type="line"/>
      <point x="764" y="156" type="line"/>
      <point x="764" y="413" type="line"/>
      <point x="713" y="413" type="line"/>
      <point x="495" y="143" type="line"/>
      <point x="495" y="98" type="line"/>
      <point x="694" y="98" type="line"/>
      <point x="694" y="0" type="line"/>
      <point x="764" y="0" type="line"/>
      <point x="764" y="98" type="line"/>
    </contour>
    <contour>
      <point x="694" y="156" type="line"/>
      <point x="557" y="156" type="line"/>
      <point x="557" y="159" type="line"/>
      <point x="689" y="325" type="line"/>
      <point x="694" y="325" type="line"/>
    </contour>
  </outline>
</glyph>
<glyph name="ae" format="2">
  <advance width="709"/>
  <unicode hex="00E6"/>
  <outline>
    <contour>
      <point x="659" y="143" type="line"/>
      <point x="627" y="101"/>
      <point x="597" y="65"/>
      <point x="516" y="65" type="curve" smooth="yes"/>
      <point x="425" y="65"/>
      <point x="374" y="124"/>
      <point x="374" y="266" type="curve"/>
      <point x="675" y="266" type="line"/>
      <point x="670" y="406"/>
      <point x="598" y="485"/>
      <point x="494" y="485" type="curve" smooth="yes"/>
      <point x="431" y="485"/>
      <point x="388" y="464"/>
      <point x="354" y="423" type="curve"/>
      <point x="349" y="423" type="line"/>
      <point x="327" y="464"/>
      <point x="284" y="485"/>
      <point x="226" y="485" type="curve" smooth="yes"/>
      <point x="120" y="485"/>
      <point x="54" y="431"/>
      <point x="54" y="375" type="curve" smooth="yes"/>
      <point x="54" y="342"/>
      <point x="76" y="327"/>
      <point x="96" y="327" type="curve" smooth="yes"/>
      <point x="125" y="327"/>
      <point x="140" y="342"/>
      <point x="140" y="373" type="curve" smooth="yes"/>
      <point x="140" y="433"/>
      <point x="150" y="454"/>
      <point x="207" y="454" type="curve" smooth="yes"/>
      <point x="265" y="454"/>
      <point x="291" y="421"/>
      <point x="291" y="334" type="curve" smooth="yes"/>
      <point x="291" y="289" type="line"/>
      <point x="204" y="262"/>
      <point x="38" y="233"/>
      <point x="38" y="103" type="curve" smooth="yes"/>
      <point x="38" y="37"/>
      <point x="85" y="-7"/>
      <point x="150" y="-7" type="curve" smooth="yes"/>
      <point x="234" y="-7"/>
      <point x="286" y="41"/>
      <point x="317" y="78" type="curve"/>
      <point x="321" y="78" type="line"/>
      <point x="352" y="30"/>
      <point x="403" y="-10"/>
      <point x="492" y="-10" type="curve" smooth="yes"/>
      <point x="595" y="-10"/>
      <point x="643" y="53"/>
      <point x="679" y="129" type="curve"/>
    </contour>
    <contour>
      <point x="291" y="256" type="curve"/>
      <point x="291" y="201"/>
      <point x="294" y="154"/>
      <point x="304" y="108" type="curve"/>
      <point x="269" y="70"/>
      <point x="232" y="48"/>
      <point x="195" y="48" type="curve" smooth="yes"/>
      <point x="154" y="48"/>
      <point x="125" y="79"/>
      <point x="125" y="129" type="curve" smooth="yes"/>
      <point x="125" y="207"/>
      <point x="203" y="232"/>
    </contour>
    <contour>
      <point x="374" y="303" type="line"/>
      <point x="377" y="395"/>
      <point x="410" y="445"/>
      <point x="475" y="445" type="curve" smooth="yes"/>
      <point x="546" y="445"/>
      <point x="578" y="377"/>
      <point x="581" y="303" type="curve"/>
    </contour>
  </outline>
  <guideline angle="0" x="0" y="557"/>
</glyph>
<glyph name="eth" format="2">
  <advance width="532"/>
  <unicode hex="00F0"/>
  <outline>
    <contour>
      <point x="253" y="464" type="curve" smooth="yes"/>
      <point x="120" y="464"/>
      <point x="34" y="369"/>
      <point x="34" y="230" type="curve" smooth="yes"/>
      <point x="34" y="74"/>
      <point x="115" y="-10"/>
      <point x="253" y="-10" type="curve" smooth="yes"/>
      <point x="389" y="-10"/>
      <point x="483" y="85"/>
      <point x="483" y="299" type="curve" smooth="yes"/>
      <point x="483" y="413"/>
      <point x="457" y="523"/>
      <point x="391" y="614" type="curve"/>
      <point x="481" y="658" type="line"/>
      <point x="466" y="690" type="line"/>
      <point x="370" y="644" type="line"/>
      <point x="330" y="683"/>
      <point x="284" y="713"/>
      <point x="204" y="713" type="curve" smooth="yes"/>
      <point x="163" y="713"/>
      <point x="125" y="703"/>
      <point x="88" y="681" type="curve"/>
      <point x="99" y="653" type="line"/>
      <point x="115" y="660"/>
      <point x="139" y="668"/>
      <point x="174" y="668" type="curve" smooth="yes"/>
      <point x="228" y="668"/>
      <point x="274" y="645"/>
      <point x="302" y="613" type="curve"/>
      <point x="187" y="556" type="line"/>
      <point x="201" y="526" type="line"/>
      <point x="322" y="583" type="line"/>
      <point x="351" y="547"/>
      <point x="377" y="492"/>
      <point x="384" y="422" type="curve"/>
      <point x="378" y="419" type="line"/>
      <point x="345" y="447"/>
      <point x="306" y="464"/>
    </contour>
    <contour>
      <point x="251" y="427" type="curve" smooth="yes"/>
      <point x="342" y="427"/>
      <point x="387" y="368"/>
      <point x="387" y="265" type="curve" smooth="yes"/>
      <point x="387" y="91"/>
      <point x="339" y="30"/>
      <point x="260" y="29" type="curve"/>
      <point x="171" y="29"/>
      <point x="127" y="98"/>
      <point x="127" y="243" type="curve" smooth="yes"/>
      <point x="127" y="369"/>
      <point x="176" y="427"/>
    </contour>
  </outline>
  <guideline angle="0" x="0" y="989"/>
</glyph>
<glyph name="Eogonek" format="2">
  <advance width="625"/>
  <unicode hex="0118"/>
  <outline>
    <contour>
      <point x="581" y="-134" type="line"/>
      <point x="552" y="-156"/>
      <point x="534" y="-165"/>
      <point x="497" y="-165" type="curve" smooth="yes"/>
      <point x="465" y="-165"/>
      <point x="446" y="-147"/>
      <point x="446" y="-110" type="curve" smooth="yes"/>
      <point x="446" y="-59"/>
      <point x="487" y="-27"/>
      <point x="522" y="0" type="curve"/>
      <point x="569" y="0" type="line"/>
      <point x="597" y="186" type="line"/>
      <point x="566" y="186" type="line"/>
      <point x="527" y="67"/>
      <point x="509" y="43"/>
      <point x="353" y="44" type="curve"/>
      <point x="224" y="44" type="line"/>
      <point x="224" y="319" type="line"/>
      <point x="341" y="319" type="line" smooth="yes"/>
      <point x="433" y="319"/>
      <point x="453" y="308"/>
      <point x="453" y="226" type="curve"/>
      <point x="485" y="226" type="line"/>
      <point x="485" y="458" type="line"/>
      <point x="453" y="458" type="line"/>
      <point x="453" y="377"/>
      <point x="433" y="358"/>
      <point x="341" y="358" type="curve" smooth="yes"/>
      <point x="224" y="358" type="line"/>
      <point x="224" y="612" type="line"/>
      <point x="372" y="612" type="line" smooth="yes"/>
      <point x="494" y="612"/>
      <point x="519" y="593"/>
      <point x="534" y="493" type="curve"/>
      <point x="566" y="493" type="line"/>
      <point x="561" y="657" type="line"/>
      <point x="36" y="657" type="line"/>
      <point x="36" y="627" type="line"/>
      <point x="116" y="627"/>
      <point x="133" y="611"/>
      <point x="133" y="535" type="curve" smooth="yes"/>
      <point x="133" y="118" type="line" smooth="yes"/>
      <point x="133" y="40"/>
      <point x="117" y="30"/>
      <point x="36" y="30" type="curve"/>
      <point x="36" y="0" type="line"/>
      <point x="476" y="0" type="line"/>
      <point x="476" y="-2" type="line"/>
      <point x="438" y="-31"/>
      <point x="378" y="-78"/>
      <point x="378" y="-134" type="curve" smooth="yes"/>
      <point x="378" y="-184"/>
      <point x="415" y="-216"/>
      <point x="468" y="-216" type="curve" smooth="yes"/>
      <point x="528" y="-216"/>
      <point x="557" y="-190"/>
      <point x="596" y="-151" type="curve"/>
    </contour>
  </outline>
</glyph>
<glyph name="eogonek" format="2">
  <advance width="464"/>
  <unicode hex="0119"/>
  <outline>
    <contour>
      <point x="375" y="-134" type="line"/>
      <point x="346" y="-156"/>
      <point x="328" y="-165"/>
      <point x="291" y="-165" type="curve" smooth="yes"/>
      <point x="260" y="-165"/>
      <point x="240" y="-147"/>
      <point x="240" y="-110" type="curve" smooth="yes"/>
      <point x="240" y="-56"/>
      <point x="285" y="-18"/>
      <point x="321" y="3" type="curve"/>
      <point x="376" y="28"/>
      <point x="408" y="73"/>
      <point x="434" y="129" type="curve"/>
      <point x="415" y="143" type="line"/>
      <point x="383" y="101"/>
      <point x="352" y="65"/>
      <point x="271" y="65" type="curve" smooth="yes"/>
      <point x="191" y="65"/>
      <point x="115" y="128"/>
      <point x="115" y="266" type="curve"/>
      <point x="431" y="266" type="line"/>
      <point x="426" y="406"/>
      <point x="354" y="485"/>
      <point x="245" y="485" type="curve" smooth="yes"/>
      <point x="128" y="485"/>
      <point x="34" y="405"/>
      <point x="34" y="238" type="curve" smooth="yes"/>
      <point x="34" y="77"/>
      <point x="127" y="-10"/>
      <point x="246" y="-10" type="curve" smooth="yes"/>
      <point x="251" y="-10"/>
      <point x="256" y="-9"/>
      <point x="258" y="-9" type="curve"/>
      <point x="258" y="-13" type="line"/>
      <point x="222" y="-42"/>
      <point x="173" y="-83"/>
      <point x="173" y="-134" type="curve" smooth="yes"/>
      <point x="173" y="-184"/>
      <point x="209" y="-216"/>
      <point x="263" y="-216" type="curve" smooth="yes"/>
      <point x="321" y="-216"/>
      <point x="351" y="-190"/>
      <point x="389" y="-151" type="curve"/>
    </contour>
    <contour>
      <point x="114" y="303" type="line"/>
      <point x="122" y="396"/>
      <point x="162" y="445"/>
      <point x="230" y="445" type="curve" smooth="yes"/>
      <point x="301" y="445"/>
      <point x="334" y="377"/>
      <point x="337" y="303" type="curve"/>
    </contour>
  </outline>
</glyph>
<glyph name="hbar" format="2">
  <advance width="579"/>
  <unicode hex="0127"/>
  <outline>
    <contour>
      <point x="185" y="351" type="line"/>
      <point x="234" y="396"/>
      <point x="270" y="412"/>
      <point x="309" y="412" type="curve" smooth="yes"/>
      <point x="390" y="412"/>
      <point x="401" y="344"/>
      <point x="401" y="261" type="curve" smooth="yes"/>
      <point x="401" y="97" type="line" smooth="yes"/>
      <point x="401" y="49"/>
      <point x="397" y="29"/>
      <point x="328" y="29" type="curve"/>
      <point x="328" y="0" type="line"/>
      <point x="558" y="0" type="line"/>
      <point x="558" y="29" type="line"/>
      <point x="495" y="29"/>
      <point x="484" y="48"/>
      <point x="484" y="101" type="curve" smooth="yes"/>
      <point x="484" y="272" type="line" smooth="yes"/>
      <point x="484" y="355"/>
      <point x="479" y="477"/>
      <point x="350" y="477" type="curve" smooth="yes"/>
      <point x="291" y="477"/>
      <point x="240" y="444"/>
      <point x="188" y="395" type="curve"/>
      <point x="185" y="395" type="line"/>
      <point x="185" y="533" type="line"/>
      <point x="347" y="533" type="line"/>
      <point x="347" y="574" type="line"/>
      <point x="185" y="574" type="line"/>
      <point x="185" y="706" type="line"/>
      <point x="158" y="706" type="line"/>
      <point x="24" y="672" type="line"/>
      <point x="24" y="644" type="line"/>
      <point x="24" y="644"/>
      <point x="37" y="646"/>
      <point x="53" y="646" type="curve" smooth="yes"/>
      <point x="80" y="646"/>
      <point x="102" y="641"/>
      <point x="102" y="606" type="curve" smooth="yes"/>
      <point x="102" y="574" type="line"/>
      <point x="24" y="574" type="line"/>
      <point x="24" y="533" type="line"/>
      <point x="102" y="533" type="line"/>
      <point x="102" y="93" type="line" smooth="yes"/>
      <point x="102" y="37"/>
      <point x="84" y="29"/>
      <point x="32" y="29" type="curve"/>
      <point x="32" y="0" type="line"/>
      <point x="259" y="0" type="line"/>
      <point x="259" y="29" type="line"/>
      <point x="197" y="29"/>
      <point x="185" y="41"/>
      <point x="185" y="92" type="curve" smooth="yes"/>
    </contour>
  </outline>
</glyph>
<glyph name="lslash" format="2">
  <advance width="290"/>
  <unicode hex="0142"/>
  <outline>
    <contour>
      <point x="30" y="267" type="line"/>
      <point x="105" y="320" type="line"/>
      <point x="105" y="101" type="line" smooth="yes"/>
      <point x="105" y="45"/>
      <point x="101" y="29"/>
      <point x="35" y="29" type="curve"/>
      <point x="35" y="0" type="line"/>
      <point x="265" y="0" type="line"/>
      <point x="265" y="29" type="line"/>
      <point x="193" y="29"/>
      <point x="188" y="43"/>
      <point x="188" y="101" type="curve" smooth="yes"/>
      <point x="188" y="381" type="line"/>
      <point x="281" y="448" type="line"/>
      <point x="258" y="479" type="line"/>
      <point x="188" y="430" type="line"/>
      <point x="188" y="706" type="line"/>
      <point x="163" y="706" type="line"/>
      <point x="31" y="671" type="line"/>
      <point x="31" y="644" type="line"/>
      <point x="31" y="644"/>
      <point x="46" y="646"/>
      <point x="63" y="646" type="curve" smooth="yes"/>
      <point x="88" y="646"/>
      <point x="105" y="644"/>
      <point x="105" y="603" type="curve" smooth="yes"/>
      <point x="105" y="369" type="line"/>
      <point x="8" y="299" type="line"/>
    </contour>
  </outline>
</glyph>
<glyph name="Eng" format="2">
  <advance width="742"/>
  <unicode hex="014A"/>
  <outline>
    <contour>
      <point x="715" y="657" type="line"/>
      <point x="479" y="657" type="line"/>
      <point x="479" y="627" type="line"/>
      <point x="549" y="627"/>
      <point x="574" y="616"/>
      <point x="574" y="498" type="curve" smooth="yes"/>
      <point x="574" y="165" type="line"/>
      <point x="546" y="195" type="line"/>
      <point x="199" y="657" type="line"/>
      <point x="29" y="657" type="line"/>
      <point x="29" y="627" type="line"/>
      <point x="74" y="627"/>
      <point x="91" y="617"/>
      <point x="123" y="576" type="curve"/>
      <point x="123" y="149" type="line" smooth="yes"/>
      <point x="123" y="48"/>
      <point x="108" y="30"/>
      <point x="29" y="30" type="curve"/>
      <point x="29" y="0" type="line"/>
      <point x="263" y="0" type="line"/>
      <point x="263" y="30" type="line"/>
      <point x="188" y="30"/>
      <point x="172" y="49"/>
      <point x="172" y="149" type="curve" smooth="yes"/>
      <point x="172" y="527" type="line"/>
      <point x="201" y="496" type="line"/>
      <point x="574" y="0" type="line"/>
      <point x="574" y="-37" type="line" smooth="yes"/>
      <point x="574" y="-148"/>
      <point x="535" y="-187"/>
      <point x="487" y="-187" type="curve" smooth="yes"/>
      <point x="442" y="-187"/>
      <point x="443" y="-117"/>
      <point x="388" y="-117" type="curve" smooth="yes"/>
      <point x="360" y="-117"/>
      <point x="340" y="-136"/>
      <point x="340" y="-163" type="curve" smooth="yes"/>
      <point x="340" y="-211"/>
      <point x="386" y="-235"/>
      <point x="451" y="-235" type="curve" smooth="yes"/>
      <point x="570" y="-235"/>
      <point x="624" y="-179"/>
      <point x="624" y="-15" type="curve" smooth="yes"/>
      <point x="624" y="493" type="line" smooth="yes"/>
      <point x="624" y="622"/>
      <point x="658" y="627"/>
      <point x="715" y="627" type="curve"/>
    </contour>
  </outline>
</glyph>
<glyph name="fhook" format="2">
  <advance width="301"/>
  <unicode hex="0192"/>
  <outline>
    <contour>
      <point x="23" y="468" type="line"/>
      <point x="23" y="426" type="line"/>
      <point x="99" y="426" type="line"/>
      <point x="99" y="-84" type="line" smooth="yes"/>
      <point x="99" y="-166"/>
      <point x="93" y="-197"/>
      <point x="48" y="-197" type="curve" smooth="yes"/>
      <point x="-5" y="-197"/>
      <point x="-3" y="-122"/>
      <point x="-51" y="-122" type="curve" smooth="yes"/>
      <point x="-73" y="-122"/>
      <point x="-90" y="-135"/>
      <point x="-90" y="-165" type="curve" smooth="yes"/>
      <point x="-90" y="-209"/>
      <point x="-42" y="-235"/>
      <point x="26" y="-235" type="curve" smooth="yes"/>
      <point x="159" y="-235"/>
      <point x="182" y="-132"/>
      <point x="182" y="-13" type="curve" smooth="yes"/>
      <point x="182" y="426" type="line"/>
      <point x="304" y="426" type="line"/>
      <point x="304" y="468" type="line"/>
      <point x="182" y="468" type="line"/>
      <point x="182" y="562" type="line" smooth="yes"/>
      <point x="182" y="646"/>
      <point x="193" y="676"/>
      <point x="230" y="676" type="curve" smooth="yes"/>
      <point x="280" y="676"/>
      <point x="285" y="600"/>
      <point x="335" y="600" type="curve" smooth="yes"/>
      <point x="358" y="600"/>
      <point x="376" y="614"/>
      <point x="376" y="643" type="curve" smooth="yes"/>
      <point x="376" y="688"/>
      <point x="329" y="713"/>
      <point x="264" y="713" type="curve" smooth="yes"/>
      <point x="194" y="713"/>
      <point x="158" y="686"/>
      <point x="131" y="640" type="curve" smooth="yes"/>
      <point x="105" y="594"/>
      <point x="99" y="549"/>
      <point x="99" y="468" type="curve"/>
    </contour>
  </outline>
</glyph>
<glyph name="lambdabar" format="2">
  <advance width="495"/>
  <unicode hex="019B"/>
  <outline>
    <contour>
      <point x="111" y="485" type="line"/>
      <point x="220" y="542" type="line"/>
      <point x="236" y="506"/>
      <point x="248" y="470"/>
      <point x="251" y="461" type="curve"/>
      <point x="52" y="65" type="line" smooth="yes"/>
      <point x="41" y="42"/>
      <point x="26" y="29"/>
      <point x="-10" y="29" type="curve"/>
      <point x="-10" y="0" type="line"/>
      <point x="204" y="0" type="line"/>
      <point x="204" y="30" type="line"/>
      <point x="160" y="30"/>
      <point x="149" y="39"/>
      <point x="149" y="56" type="curve" smooth="yes"/>
      <point x="149" y="68"/>
      <point x="158" y="86"/>
      <point x="164" y="100" type="curve"/>
      <point x="270" y="320" type="line"/>
      <point x="286" y="372" type="line"/>
      <point x="293" y="372" type="line"/>
      <point x="387" y="82" type="line"/>
      <point x="389" y="74"/>
      <point x="391" y="63"/>
      <point x="391" y="55" type="curve" smooth="yes"/>
      <point x="391" y="34"/>
      <point x="367" y="29"/>
      <point x="333" y="29" type="curve"/>
      <point x="333" y="0" type="line"/>
      <point x="503" y="0" type="line"/>
      <point x="503" y="29" type="line"/>
      <point x="463" y="29"/>
      <point x="451" y="46"/>
      <point x="437" y="85" type="curve" smooth="yes"/>
      <point x="287" y="495" type="line" smooth="yes"/>
      <point x="278" y="520"/>
      <point x="269" y="543"/>
      <point x="260" y="563" type="curve"/>
      <point x="371" y="621" type="line"/>
      <point x="355" y="655" type="line"/>
      <point x="244" y="597" type="line"/>
      <point x="207" y="667"/>
      <point x="166" y="694"/>
      <point x="108" y="694" type="curve" smooth="yes"/>
      <point x="62" y="694"/>
      <point x="32" y="679"/>
      <point x="32" y="640" type="curve" smooth="yes"/>
      <point x="32" y="611"/>
      <point x="52" y="599"/>
      <point x="78" y="599" type="curve" smooth="yes"/>
      <point x="113" y="599"/>
      <point x="139" y="621"/>
      <point x="164" y="621" type="curve" smooth="yes"/>
      <point x="176" y="621"/>
      <point x="190" y="601"/>
      <point x="203" y="576" type="curve"/>
      <point x="93" y="519" type="line"/>
    </contour>
  </outline>
</glyph>
<glyph name="eshreversedloop" format="2">
  <advance width="298"/>
  <unicode hex="01AA"/>
  <outline>
    <contour>
      <point x="213" y="450" type="line" smooth="yes"/>
      <point x="213" y="528"/>
      <point x="209" y="712"/>
      <point x="65" y="712" type="curve" smooth="yes"/>
      <point x="-11" y="712"/>
      <point x="-64" y="660"/>
      <point x="-64" y="587" type="curve" smooth="yes"/>
      <point x="-64" y="514"/>
      <point x="-20" y="468"/>
      <point x="62" y="468" type="curve" smooth="yes"/>
      <point x="88" y="468"/>
      <point x="111" y="475"/>
      <point x="130" y="486" type="curve"/>
      <point x="130" y="-13" type="line" smooth="yes"/>
      <point x="130" y="-132"/>
      <point x="153" y="-235"/>
      <point x="286" y="-235" type="curve" smooth="yes"/>
      <point x="354" y="-235"/>
      <point x="402" y="-209"/>
      <point x="402" y="-165" type="curve" smooth="yes"/>
      <point x="402" y="-135"/>
      <point x="385" y="-122"/>
      <point x="363" y="-122" type="curve" smooth="yes"/>
      <point x="315" y="-122"/>
      <point x="317" y="-197"/>
      <point x="264" y="-197" type="curve" smooth="yes"/>
      <point x="219" y="-197"/>
      <point x="213" y="-166"/>
      <point x="213" y="-84" type="curve" smooth="yes"/>
    </contour>
    <contour>
      <point x="130" y="522" type="line"/>
      <point x="114" y="513"/>
      <point x="95" y="506"/>
      <point x="64" y="506" type="curve" smooth="yes"/>
      <point x="7" y="506"/>
      <point x="-29" y="530"/>
      <point x="-29" y="587" type="curve" smooth="yes"/>
      <point x="-29" y="644"/>
      <point x="7" y="674"/>
      <point x="54" y="674" type="curve" smooth="yes"/>
      <point x="119" y="674"/>
      <point x="130" y="614"/>
      <point x="130" y="562" type="curve" smooth="yes"/>
    </contour>
  </outline>
</glyph>
<glyph name="twobar" format="2">
  <advance width="508"/>
  <unicode hex="01BB"/>
  <outline>
    <contour>
      <point x="53" y="309" type="line"/>
      <point x="275" y="309" type="line"/>
      <point x="251" y="277"/>
      <point x="221" y="240"/>
      <point x="185" y="202" type="curve" smooth="yes"/>
      <point x="33" y="37" type="line"/>
      <point x="33" y="0" type="line"/>
      <point x="437" y="0" type="line"/>
      <point x="471" y="169" type="line"/>
      <point x="441" y="169" type="line"/>
      <point x="416" y="104"/>
      <point x="403" y="82"/>
      <point x="347" y="82" type="curve" smooth="yes"/>
      <point x="210" y="82" type="line"/>
      <point x="137" y="79" type="line"/>
      <point x="137" y="84" type="line"/>
      <point x="268" y="224" type="line" smooth="yes"/>
      <point x="296" y="253"/>
      <point x="321" y="284"/>
      <point x="343" y="309" type="curve"/>
      <point x="473" y="309" type="line"/>
      <point x="472" y="353" type="line"/>
      <point x="380" y="353" type="line"/>
      <point x="419" y="407"/>
      <point x="438" y="455"/>
      <point x="438" y="512" type="curve" smooth="yes"/>
      <point x="438" y="626"/>
      <point x="358" y="700"/>
      <point x="243" y="700" type="curve" smooth="yes"/>
      <point x="141" y="700"/>
      <point x="72" y="639"/>
      <point x="39" y="534" type="curve"/>
      <point x="64" y="523" type="line"/>
      <point x="103" y="604"/>
      <point x="150" y="635"/>
      <point x="218" y="635" type="curve" smooth="yes"/>
      <point x="294" y="635"/>
      <point x="344" y="583"/>
      <point x="344" y="502" type="curve" smooth="yes"/>
      <point x="344" y="446"/>
      <point x="330" y="397"/>
      <point x="305" y="353" type="curve"/>
      <point x="52" y="353" type="line"/>
    </contour>
  </outline>
</glyph>
<glyph name="glottalinvertedbar" format="2">
  <advance width="406"/>
  <unicode hex="01BE"/>
  <outline>
    <contour>
      <point x="185" y="431" type="line"/>
      <point x="306" y="431" type="line"/>
      <point x="306" y="473" type="line"/>
      <point x="185" y="473" type="line"/>
      <point x="186" y="610" type="line"/>
      <point x="160" y="610" type="line"/>
      <point x="124" y="525"/>
      <point x="82" y="483"/>
      <point x="35" y="454" type="curve"/>
      <point x="35" y="431" type="line"/>
      <point x="102" y="431" type="line"/>
      <point x="102" y="355" type="line"/>
      <point x="110" y="347" type="line"/>
      <point x="186" y="337"/>
      <point x="289" y="309"/>
      <point x="289" y="166" type="curve" smooth="yes"/>
      <point x="289" y="66"/>
      <point x="270" y="24"/>
      <point x="196" y="24" type="curve" smooth="yes"/>
      <point x="122" y="24"/>
      <point x="85" y="61"/>
      <point x="64" y="164" type="curve"/>
      <point x="38" y="164" type="line"/>
      <point x="41" y="-8" type="line"/>
      <point x="62" y="-8" type="line"/>
      <point x="83" y="15" type="line"/>
      <point x="85" y="15" type="line"/>
      <point x="111" y="4"/>
      <point x="141" y="-11"/>
      <point x="199" y="-11" type="curve" smooth="yes"/>
      <point x="325" y="-11"/>
      <point x="377" y="68"/>
      <point x="377" y="170" type="curve" smooth="yes"/>
      <point x="377" y="331"/>
      <point x="258" y="353"/>
      <point x="185" y="363" type="curve"/>
    </contour>
  </outline>
</glyph>
<glyph name="clickretroflex" format="2">
  <advance width="245"/>
  <unicode hex="01C3"/>
  <outline>
    <contour>
      <point x="105" y="170" type="line"/>
      <point x="140" y="170" type="line"/>
      <point x="169" y="579" type="line" smooth="yes"/>
      <point x="171" y="602"/>
      <point x="172" y="625"/>
      <point x="172" y="642" type="curve" smooth="yes"/>
      <point x="172" y="682"/>
      <point x="163" y="704"/>
      <point x="124" y="704" type="curve" smooth="yes"/>
      <point x="82" y="704"/>
      <point x="74" y="681"/>
      <point x="74" y="644" type="curve" smooth="yes"/>
      <point x="74" y="628"/>
      <point x="76" y="607"/>
      <point x="78" y="579" type="curve" smooth="yes"/>
    </contour>
    <contour>
      <point x="180" y="47" type="curve" smooth="yes"/>
      <point x="180" y="78"/>
      <point x="159" y="106"/>
      <point x="123" y="106" type="curve" smooth="yes"/>
      <point x="87" y="106"/>
      <point x="66" y="79"/>
      <point x="66" y="48" type="curve" smooth="yes"/>
      <point x="66" y="15"/>
      <point x="85" y="-8"/>
      <point x="123" y="-8" type="curve" smooth="yes"/>
      <point x="159" y="-8"/>
      <point x="180" y="17"/>
    </contour>
  </outline>
</glyph>
<glyph name="lcurl" format="2">
  <advance width="399"/>
  <unicode hex="0234"/>
  <outline>
    <contour>
      <point x="163" y="706" type="line"/>
      <point x="138" y="706" type="line"/>
      <point x="6" y="671" type="line"/>
      <point x="6" y="644" type="line"/>
      <point x="6" y="644"/>
      <point x="21" y="646"/>
      <point x="38" y="646" type="curve" smooth="yes"/>
      <point x="63" y="646"/>
      <point x="80" y="644"/>
      <point x="80" y="603" type="curve" smooth="yes"/>
      <point x="80" y="103" type="line" smooth="yes"/>
      <point x="80" y="18"/>
      <point x="125" y="2"/>
      <point x="155" y="-4" type="curve"/>
      <point x="155" y="-6" type="line"/>
      <point x="127" y="-55"/>
      <point x="105" y="-89"/>
      <point x="80" y="-139" type="curve"/>
      <point x="113" y="-154" type="line"/>
      <point x="139" y="-101"/>
      <point x="164" y="-57"/>
      <point x="193" y="-9" type="curve"/>
      <point x="203" y="-10"/>
      <point x="217" y="-11"/>
      <point x="223" y="-11" type="curve" smooth="yes"/>
      <point x="317" y="-11"/>
      <point x="404" y="21"/>
      <point x="404" y="93" type="curve" smooth="yes"/>
      <point x="404" y="143"/>
      <point x="372" y="168"/>
      <point x="328" y="168" type="curve" smooth="yes"/>
      <point x="267" y="168"/>
      <point x="225" y="107"/>
      <point x="181" y="35" type="curve"/>
      <point x="178" y="35" type="line"/>
      <point x="164" y="50"/>
      <point x="163" y="67"/>
      <point x="163" y="125" type="curve" smooth="yes"/>
    </contour>
    <contour>
      <point x="210" y="22" type="curve"/>
      <point x="232" y="62"/>
      <point x="272" y="131"/>
      <point x="324" y="131" type="curve" smooth="yes"/>
      <point x="345" y="131"/>
      <point x="363" y="119"/>
      <point x="363" y="91" type="curve" smooth="yes"/>
      <point x="363" y="41"/>
      <point x="290" y="20"/>
      <point x="233" y="20" type="curve" smooth="yes"/>
      <point x="225" y="20"/>
      <point x="217" y="21"/>
    </contour>
  </outline>
</glyph>
<glyph name="tcurl" format="2">
  <advance width="406"/>
  <unicode hex="0236"/>
  <outline>
    <contour>
      <point x="92" y="101" type="line" smooth="yes"/>
      <point x="92" y="16"/>
      <point x="137" y="0"/>
      <point x="167" y="-6" type="curve"/>
      <point x="167" y="-8" type="line"/>
      <point x="139" y="-57"/>
      <point x="117" y="-91"/>
      <point x="92" y="-141" type="curve"/>
      <point x="125" y="-156" type="line"/>
      <point x="151" y="-103"/>
      <point x="176" y="-59"/>
      <point x="205" y="-11" type="curve"/>
      <point x="215" y="-12"/>
      <point x="229" y="-13"/>
      <point x="235" y="-13" type="curve" smooth="yes"/>
      <point x="329" y="-13"/>
      <point x="411" y="19"/>
      <point x="411" y="91" type="curve" smooth="yes"/>
      <point x="411" y="133"/>
      <point x="384" y="161"/>
      <point x="340" y="161" type="curve" smooth="yes"/>
      <point x="279" y="161"/>
      <point x="237" y="105"/>
      <point x="193" y="33" type="curve"/>
      <point x="190" y="33" type="line"/>
      <point x="177" y="47"/>
      <point x="175" y="64"/>
      <point x="175" y="114" type="curve" smooth="yes"/>
      <point x="175" y="426" type="line"/>
      <point x="298" y="426" type="line"/>
      <point x="298" y="468" type="line"/>
      <point x="175" y="468" type="line"/>
      <point x="176" y="610" type="line"/>
      <point x="150" y="610" type="line"/>
      <point x="114" y="525"/>
      <point x="84" y="478"/>
      <point x="37" y="449" type="curve"/>
      <point x="37" y="426" type="line"/>
      <point x="92" y="426" type="line"/>
    </contour>
    <contour>
      <point x="225" y="20" type="curve"/>
      <point x="247" y="60"/>
      <point x="287" y="129"/>
      <point x="339" y="129" type="curve" smooth="yes"/>
      <point x="360" y="129"/>
      <point x="378" y="117"/>
      <point x="378" y="89" type="curve" smooth="yes"/>
      <point x="378" y="39"/>
      <point x="305" y="18"/>
      <point x="248" y="18" type="curve" smooth="yes"/>
      <point x="240" y="18"/>
      <point x="232" y="19"/>
    </contour>
  </outline>
</glyph>
<glyph name="bhook" format="2">
  <advance width="518"/>
  <unicode hex="0253"/>
  <outline>
    <contour>
      <point x="159" y="400" type="line"/>
      <point x="159" y="580" type="line" smooth="yes"/>
      <point x="159" y="650"/>
      <point x="181" y="676"/>
      <point x="222" y="676" type="curve" smooth="yes"/>
      <point x="285" y="676"/>
      <point x="293" y="600"/>
      <point x="345" y="600" type="curve" smooth="yes"/>
      <point x="369" y="600"/>
      <point x="388" y="614"/>
      <point x="388" y="643" type="curve" smooth="yes"/>
      <point x="388" y="688"/>
      <point x="336" y="713"/>
      <point x="263" y="713" type="curve" smooth="yes"/>
      <point x="186" y="713"/>
      <point x="142" y="685"/>
      <point x="112" y="639" type="curve" smooth="yes"/>
      <point x="84" y="594"/>
      <point x="76" y="553"/>
      <point x="76" y="483" type="curve" smooth="yes"/>
      <point x="76" y="30" type="line"/>
      <point x="100" y="17"/>
      <point x="158" y="-10"/>
      <point x="243" y="-10" type="curve" smooth="yes"/>
      <point x="382" y="-10"/>
      <point x="483" y="84"/>
      <point x="483" y="263" type="curve" smooth="yes"/>
      <point x="483" y="393"/>
      <point x="415" y="485"/>
      <point x="316" y="485" type="curve" smooth="yes"/>
      <point x="249" y="485"/>
      <point x="197" y="442"/>
      <point x="162" y="400" type="curve"/>
    </contour>
    <contour>
      <point x="159" y="356" type="line"/>
      <point x="177" y="380"/>
      <point x="221" y="417"/>
      <point x="272" y="417" type="curve" smooth="yes"/>
      <point x="367" y="417"/>
      <point x="392" y="327"/>
      <point x="392" y="231" type="curve" smooth="yes"/>
      <point x="392" y="120"/>
      <point x="356" y="31"/>
      <point x="261" y="31" type="curve" smooth="yes"/>
      <point x="208" y="31"/>
      <point x="178" y="55"/>
      <point x="159" y="78" type="curve"/>
    </contour>
  </outline>
</glyph>
<glyph name="dtail" format="2">
  <advance width="528"/>
  <unicode hex="0256"/>
  <outline>
    <contour>
      <point x="443" y="706" type="line"/>
      <point x="416" y="706" type="line"/>
      <point x="289" y="671" type="line"/>
      <point x="289" y="643" type="line"/>
      <point x="289" y="643"/>
      <point x="306" y="645"/>
      <point x="315" y="645" type="curve" smooth="yes"/>
      <point x="354" y="645"/>
      <point x="359" y="636"/>
      <point x="359" y="592" type="curve" smooth="yes"/>
      <point x="359" y="461" type="line"/>
      <point x="328" y="478"/>
      <point x="295" y="485"/>
      <point x="262" y="485" type="curve" smooth="yes"/>
      <point x="136" y="485"/>
      <point x="33" y="384"/>
      <point x="33" y="219" type="curve" smooth="yes"/>
      <point x="33" y="91"/>
      <point x="91" y="-8"/>
      <point x="204" y="-8" type="curve" smooth="yes"/>
      <point x="270" y="-8"/>
      <point x="320" y="30"/>
      <point x="358" y="64" type="curve"/>
      <point x="362" y="64" type="line"/>
      <point x="362" y="-13" type="line" smooth="yes"/>
      <point x="362" y="-132"/>
      <point x="385" y="-235"/>
      <point x="518" y="-235" type="curve" smooth="yes"/>
      <point x="586" y="-235"/>
      <point x="634" y="-209"/>
      <point x="634" y="-165" type="curve" smooth="yes"/>
      <point x="634" y="-135"/>
      <point x="617" y="-122"/>
      <point x="595" y="-122" type="curve" smooth="yes"/>
      <point x="547" y="-122"/>
      <point x="549" y="-197"/>
      <point x="496" y="-197" type="curve" smooth="yes"/>
      <point x="451" y="-197"/>
      <point x="443" y="-166"/>
      <point x="443" y="-84" type="curve" smooth="yes"/>
    </contour>
    <contour>
      <point x="359" y="101" type="line"/>
      <point x="324" y="77"/>
      <point x="298" y="64"/>
      <point x="251" y="64" type="curve" smooth="yes"/>
      <point x="166" y="64"/>
      <point x="120" y="120"/>
      <point x="120" y="258" type="curve" smooth="yes"/>
      <point x="120" y="384"/>
      <point x="176" y="445"/>
      <point x="260" y="445" type="curve" smooth="yes"/>
      <point x="322" y="445"/>
      <point x="351" y="406"/>
      <point x="359" y="365" type="curve"/>
    </contour>
  </outline>
</glyph>
<glyph name="ereversed" format="2">
  <advance width="466"/>
  <unicode hex="0258"/>
  <outline>
    <contour>
      <point x="30" y="130" type="line"/>
      <point x="66" y="54"/>
      <point x="116" y="-10"/>
      <point x="219" y="-10" type="curve" smooth="yes"/>
      <point x="339" y="-10"/>
      <point x="432" y="77"/>
      <point x="432" y="238" type="curve" smooth="yes"/>
      <point x="432" y="405"/>
      <point x="348" y="485"/>
      <point x="236" y="485" type="curve" smooth="yes"/>
      <point x="127" y="485"/>
      <point x="40" y="406"/>
      <point x="35" y="266" type="curve"/>
      <point x="351" y="266" type="line"/>
      <point x="351" y="128"/>
      <point x="278" y="65"/>
      <point x="198" y="65" type="curve" smooth="yes"/>
      <point x="117" y="65"/>
      <point x="83" y="101"/>
      <point x="51" y="143" type="curve"/>
    </contour>
    <contour>
      <point x="129" y="303" type="line"/>
      <point x="132" y="377"/>
      <point x="165" y="445"/>
      <point x="236" y="445" type="curve" smooth="yes"/>
      <point x="308" y="445"/>
      <point x="344" y="396"/>
      <point x="352" y="303" type="curve"/>
    </contour>
  </outline>
</glyph>
<glyph name="jdotlessbar" format="2">
  <advance width="272"/>
  <unicode hex="025F"/>
  <outline>
    <contour>
      <point x="187" y="482" type="line"/>
      <point x="160" y="482" type="line"/>
      <point x="30" y="454" type="line"/>
      <point x="30" y="424" type="line"/>
      <point x="30" y="424"/>
      <point x="44" y="427"/>
      <point x="60" y="427" type="curve" smooth="yes"/>
      <point x="96" y="427"/>
      <point x="104" y="417"/>
      <point x="104" y="373" type="curve" smooth="yes"/>
      <point x="104" y="273" type="line"/>
      <point x="24" y="273" type="line"/>
      <point x="24" y="231" type="line"/>
      <point x="104" y="231" type="line"/>
      <point x="104" y="-32" type="line" smooth="yes"/>
      <point x="104" y="-139"/>
      <point x="100" y="-191"/>
      <point x="51" y="-191" type="curve" smooth="yes"/>
      <point x="5" y="-191"/>
      <point x="1" y="-121"/>
      <point x="-47" y="-121" type="curve" smooth="yes"/>
      <point x="-74" y="-121"/>
      <point x="-91" y="-138"/>
      <point x="-91" y="-163" type="curve" smooth="yes"/>
      <point x="-91" y="-207"/>
      <point x="-51" y="-235"/>
      <point x="15" y="-235" type="curve" smooth="yes"/>
      <point x="133" y="-235"/>
      <point x="187" y="-160"/>
      <point x="187" y="-2" type="curve" smooth="yes"/>
      <point x="187" y="231" type="line"/>
      <point x="261" y="231" type="line"/>
      <point x="261" y="273" type="line"/>
      <point x="187" y="273" type="line"/>
    </contour>
  </outline>
</glyph>
<glyph name="iotaLatin" format="2">
  <advance width="286"/>
  <unicode hex="0269"/>
  <outline>
    <contour>
      <point x="174" y="140" type="curve"/>
      <point x="174" y="482" type="line"/>
      <point x="148" y="482" type="line"/>
      <point x="22" y="454" type="line"/>
      <point x="22" y="425" type="line"/>
      <point x="22" y="425"/>
      <point x="33" y="427"/>
      <point x="47" y="427" type="curve" smooth="yes"/>
      <point x="76" y="427"/>
      <point x="91" y="423"/>
      <point x="91" y="380" type="curve" smooth="yes"/>
      <point x="91" y="110" type="line"/>
      <point x="92" y="24"/>
      <point x="121" y="-10"/>
      <point x="187" y="-10" type="curve" smooth="yes"/>
      <point x="251" y="-10"/>
      <point x="272" y="20"/>
      <point x="311" y="74" type="curve"/>
      <point x="292" y="90" type="line"/>
      <point x="267" y="62"/>
      <point x="254" y="49"/>
      <point x="222" y="49" type="curve" smooth="yes"/>
      <point x="184" y="49"/>
      <point x="174" y="72"/>
    </contour>
  </outline>
</glyph>
<glyph name="lwavybar" format="2">
  <advance width="290"/>
  <unicode hex="026B"/>
  <outline>
    <contour>
      <point x="272" y="432" type="line"/>
      <point x="259" y="391"/>
      <point x="237" y="381"/>
      <point x="216" y="381" type="curve" smooth="yes"/>
      <point x="201" y="381"/>
      <point x="191" y="385"/>
      <point x="185" y="388" type="curve"/>
      <point x="185" y="706" type="line"/>
      <point x="160" y="706" type="line"/>
      <point x="28" y="671" type="line"/>
      <point x="28" y="644" type="line"/>
      <point x="28" y="644"/>
      <point x="43" y="646"/>
      <point x="60" y="646" type="curve" smooth="yes"/>
      <point x="85" y="646"/>
      <point x="102" y="644"/>
      <point x="102" y="603" type="curve" smooth="yes"/>
      <point x="102" y="415" type="line"/>
      <point x="97" y="416"/>
      <point x="93" y="417"/>
      <point x="86" y="417" type="curve" smooth="yes"/>
      <point x="44" y="417"/>
      <point x="4" y="383"/>
      <point x="-7" y="316" type="curve"/>
      <point x="15" y="312" type="line"/>
      <point x="24" y="348"/>
      <point x="51" y="362"/>
      <point x="75" y="362" type="curve" smooth="yes"/>
      <point x="88" y="362"/>
      <point x="95" y="359"/>
      <point x="102" y="355" type="curve"/>
      <point x="102" y="101" type="line" smooth="yes"/>
      <point x="102" y="45"/>
      <point x="98" y="29"/>
      <point x="32" y="29" type="curve"/>
      <point x="32" y="0" type="line"/>
      <point x="262" y="0" type="line"/>
      <point x="262" y="29" type="line"/>
      <point x="190" y="29"/>
      <point x="185" y="43"/>
      <point x="185" y="101" type="curve" smooth="yes"/>
      <point x="185" y="327" type="line"/>
      <point x="191" y="326"/>
      <point x="195" y="326"/>
      <point x="198" y="326" type="curve" smooth="yes"/>
      <point x="254" y="326"/>
      <point x="279" y="351"/>
      <point x="294" y="428" type="curve"/>
    </contour>
  </outline>
</glyph>
<glyph name="nsmallcap" format="2">
  <advance width="568"/>
  <unicode hex="0274"/>
  <outline>
    <contour>
      <point x="553" y="473" type="line"/>
      <point x="364" y="473" type="line"/>
      <point x="364" y="445" type="line"/>
      <point x="431" y="442"/>
      <point x="440" y="412"/>
      <point x="440" y="355" type="curve" smooth="yes"/>
      <point x="440" y="136" type="line"/>
      <point x="436" y="136" type="line"/>
      <point x="162" y="473" type="line"/>
      <point x="19" y="473" type="line"/>
      <point x="19" y="445" type="line"/>
      <point x="54" y="445"/>
      <point x="69" y="438"/>
      <point x="92" y="407" type="curve"/>
      <point x="92" y="113" type="line" smooth="yes"/>
      <point x="92" y="42"/>
      <point x="81" y="28"/>
      <point x="19" y="28" type="curve"/>
      <point x="19" y="0" type="line"/>
      <point x="205" y="0" type="line"/>
      <point x="205" y="28" type="line"/>
      <point x="146" y="28"/>
      <point x="134" y="42"/>
      <point x="134" y="113" type="curve" smooth="yes"/>
      <point x="134" y="369" type="line"/>
      <point x="137" y="369" type="line"/>
      <point x="446" y="-7" type="line"/>
      <point x="481" y="-7" type="line"/>
      <point x="481" y="351" type="line" smooth="yes"/>
      <point x="481" y="409"/>
      <point x="493" y="445"/>
      <point x="553" y="445" type="curve"/>
    </contour>
  </outline>
</glyph>
<glyph name="obar" format="2">
  <advance width="514"/>
  <unicode hex="0275"/>
  <outline>
    <contour>
      <point x="258" y="485" type="curve" smooth="yes"/>
      <point x="123" y="485"/>
      <point x="34" y="387"/>
      <point x="34" y="242" type="curve" smooth="yes"/>
      <point x="34" y="80"/>
      <point x="118" y="-10"/>
      <point x="258" y="-10" type="curve" smooth="yes"/>
      <point x="388" y="-10"/>
      <point x="480" y="78"/>
      <point x="480" y="246" type="curve" smooth="yes"/>
      <point x="480" y="394"/>
      <point x="395" y="485"/>
    </contour>
    <contour>
      <point x="127" y="227" type="curve"/>
      <point x="387" y="227" type="line"/>
      <point x="385" y="75"/>
      <point x="341" y="30"/>
      <point x="262" y="30" type="curve" smooth="yes"/>
      <point x="181" y="29"/>
      <point x="133" y="88"/>
    </contour>
    <contour>
      <point x="254" y="447" type="curve" smooth="yes"/>
      <point x="337" y="447"/>
      <point x="381" y="375"/>
      <point x="387" y="266" type="curve"/>
      <point x="127" y="266" type="line"/>
      <point x="130" y="387"/>
      <point x="181" y="447"/>
    </contour>
  </outline>
</glyph>
<glyph name="rfishhookreversed" format="2">
  <advance width="371"/>
  <unicode hex="027F"/>
  <outline>
    <contour>
      <point x="276" y="258" type="line" smooth="yes"/>
      <point x="276" y="378"/>
      <point x="234" y="481"/>
      <point x="102" y="481" type="curve" smooth="yes"/>
      <point x="54" y="481"/>
      <point x="7" y="462"/>
      <point x="7" y="424" type="curve" smooth="yes"/>
      <point x="7" y="396"/>
      <point x="28" y="383"/>
      <point x="47" y="383" type="curve" smooth="yes"/>
      <point x="91" y="383"/>
      <point x="102" y="446"/>
      <point x="139" y="446" type="curve" smooth="yes"/>
      <point x="190" y="446"/>
      <point x="193" y="388"/>
      <point x="193" y="278" type="curve" smooth="yes"/>
      <point x="193" y="102" type="line" smooth="yes"/>
      <point x="193" y="39"/>
      <point x="174" y="29"/>
      <point x="99" y="29" type="curve"/>
      <point x="99" y="0" type="line"/>
      <point x="349" y="0" type="line"/>
      <point x="349" y="29" type="line"/>
      <point x="283" y="29"/>
      <point x="276" y="41"/>
      <point x="276" y="97" type="curve" smooth="yes"/>
    </contour>
  </outline>
</glyph>
<glyph name="eshbar" format="2">
  <advance width="286"/>
  <unicode hex="0284"/>
  <outline>
    <contour>
      <point x="100" y="36" type="line"/>
      <point x="22" y="36" type="line"/>
      <point x="22" y="5" type="line"/>
      <point x="100" y="5" type="line"/>
      <point x="100" y="-61" type="line" smooth="yes"/>
      <point x="100" y="-147"/>
      <point x="99" y="-201"/>
      <point x="49" y="-201" type="curve" smooth="yes"/>
      <point x="12" y="-201"/>
      <point x="2" y="-139"/>
      <point x="-42" y="-139" type="curve" smooth="yes"/>
      <point x="-68" y="-139"/>
      <point x="-83" y="-161"/>
      <point x="-83" y="-179" type="curve" smooth="yes"/>
      <point x="-83" y="-217"/>
      <point x="-35" y="-235"/>
      <point x="12" y="-235" type="curve" smooth="yes"/>
      <point x="145" y="-235"/>
      <point x="186" y="-119"/>
      <point x="186" y="5" type="curve"/>
      <point x="265" y="5" type="line"/>
      <point x="265" y="36" type="line"/>
      <point x="186" y="36" type="line"/>
      <point x="186" y="541" type="line" smooth="yes"/>
      <point x="186" y="576"/>
      <point x="188" y="664"/>
      <point x="238" y="664" type="curve" smooth="yes"/>
      <point x="278" y="664"/>
      <point x="286" y="603"/>
      <point x="330" y="603" type="curve" smooth="yes"/>
      <point x="349" y="603"/>
      <point x="370" y="620"/>
      <point x="370" y="642" type="curve" smooth="yes"/>
      <point x="370" y="687"/>
      <point x="309" y="699"/>
      <point x="274" y="699" type="curve" smooth="yes"/>
      <point x="120" y="699"/>
      <point x="100" y="565"/>
      <point x="100" y="441" type="curve" smooth="yes"/>
    </contour>
  </outline>
</glyph>
<glyph name="vturned" format="2">
  <advance width="495"/>
  <unicode hex="028C"/>
  <outline>
    <contour>
      <point x="-10" y="0" type="line"/>
      <point x="165" y="0" type="line"/>
      <point x="165" y="29" type="line"/>
      <point x="129" y="29"/>
      <point x="108" y="34"/>
      <point x="108" y="56" type="curve" smooth="yes"/>
      <point x="108" y="72"/>
      <point x="114" y="84"/>
      <point x="115" y="89" type="curve"/>
      <point x="201" y="315" type="line"/>
      <point x="222" y="376" type="line"/>
      <point x="228" y="376" type="line"/>
      <point x="247" y="316" type="line"/>
      <point x="332" y="93" type="line"/>
      <point x="338" y="79"/>
      <point x="342" y="67"/>
      <point x="342" y="54" type="curve" smooth="yes"/>
      <point x="342" y="38"/>
      <point x="329" y="29"/>
      <point x="290" y="29" type="curve"/>
      <point x="290" y="0" type="line"/>
      <point x="501" y="0" type="line"/>
      <point x="501" y="29" type="line"/>
      <point x="458" y="29"/>
      <point x="446" y="40"/>
      <point x="420" y="102" type="curve"/>
      <point x="271" y="479" type="line"/>
      <point x="223" y="479" type="line"/>
      <point x="65" y="95" type="line"/>
      <point x="45" y="43"/>
      <point x="29" y="29"/>
      <point x="-10" y="29" type="curve"/>
    </contour>
  </outline>
</glyph>
<glyph name="ysmallcap" format="2">
  <advance width="454"/>
  <unicode hex="028F"/>
  <outline>
    <contour>
      <point x="470" y="473" type="line"/>
      <point x="316" y="473" type="line"/>
      <point x="316" y="446" type="line"/>
      <point x="355" y="446"/>
      <point x="363" y="439"/>
      <point x="363" y="426" type="curve" smooth="yes"/>
      <point x="363" y="418"/>
      <point x="359" y="408"/>
      <point x="354" y="398" type="curve"/>
      <point x="254" y="234" type="line"/>
      <point x="251" y="234" type="line"/>
      <point x="218" y="294" type="line"/>
      <point x="149" y="396" type="line" smooth="yes"/>
      <point x="143" y="404"/>
      <point x="137" y="417"/>
      <point x="137" y="426" type="curve" smooth="yes"/>
      <point x="137" y="439"/>
      <point x="145" y="446"/>
      <point x="187" y="446" type="curve"/>
      <point x="187" y="473" type="line"/>
      <point x="-15" y="473" type="line"/>
      <point x="-15" y="446" type="line"/>
      <point x="21" y="446"/>
      <point x="28" y="439"/>
      <point x="84" y="356" type="curve"/>
      <point x="192" y="192" type="line"/>
      <point x="192" y="101" type="line" smooth="yes"/>
      <point x="192" y="38"/>
      <point x="186" y="28"/>
      <point x="120" y="28" type="curve"/>
      <point x="120" y="0" type="line"/>
      <point x="348" y="0" type="line"/>
      <point x="348" y="28" type="line"/>
      <point x="285" y="28"/>
      <point x="275" y="38"/>
      <point x="275" y="101" type="curve" smooth="yes"/>
      <point x="275" y="200" type="line"/>
      <point x="381" y="376" type="line"/>
      <point x="419" y="434"/>
      <point x="427" y="446"/>
      <point x="470" y="446" type="curve"/>
    </contour>
  </outline>
</glyph>
<glyph name="cstretched" format="2">
  <advance width="437"/>
  <unicode hex="0297"/>
  <outline>
    <contour>
      <point x="409" y="-27" type="line"/>
      <point x="364" y="-85"/>
      <point x="330" y="-114"/>
      <point x="265" y="-114" type="curve" smooth="yes"/>
      <point x="162" y="-114"/>
      <point x="113" y="-1"/>
      <point x="113" y="166" type="curve" smooth="yes"/>
      <point x="113" y="345"/>
      <point x="162" y="446"/>
      <point x="243" y="446" type="curve" smooth="yes"/>
      <point x="329" y="446"/>
      <point x="296" y="329"/>
      <point x="370" y="329" type="curve" smooth="yes"/>
      <point x="398" y="329"/>
      <point x="412" y="345"/>
      <point x="412" y="374" type="curve" smooth="yes"/>
      <point x="412" y="432"/>
      <point x="354" y="485"/>
      <point x="260" y="485" type="curve" smooth="yes"/>
      <point x="116" y="485"/>
      <point x="33" y="354"/>
      <point x="33" y="141" type="curve" smooth="yes"/>
      <point x="33" y="-47"/>
      <point x="109" y="-185"/>
      <point x="234" y="-185" type="curve" smooth="yes"/>
      <point x="341" y="-185"/>
      <point x="390" y="-122"/>
      <point x="428" y="-41" type="curve"/>
    </contour>
  </outline>
</glyph>
<glyph name="qhook" format="2">
  <advance width="541"/>
  <unicode hex="02A0"/>
  <outline>
    <contour>
      <point x="441" y="580" type="line"/>
      <point x="442" y="650"/>
      <point x="463" y="675"/>
      <point x="505" y="675" type="curve" smooth="yes"/>
      <point x="567" y="675"/>
      <point x="575" y="599"/>
      <point x="628" y="599" type="curve" smooth="yes"/>
      <point x="652" y="599"/>
      <point x="670" y="613"/>
      <point x="670" y="643" type="curve" smooth="yes"/>
      <point x="670" y="687"/>
      <point x="618" y="713"/>
      <point x="545" y="713" type="curve" smooth="yes"/>
      <point x="410" y="713"/>
      <point x="359" y="618"/>
      <point x="358" y="490" type="curve"/>
      <point x="358" y="460" type="line"/>
      <point x="325" y="478"/>
      <point x="295" y="485"/>
      <point x="259" y="485" type="curve" smooth="yes"/>
      <point x="132" y="485"/>
      <point x="33" y="380"/>
      <point x="33" y="220" type="curve" smooth="yes"/>
      <point x="33" y="81"/>
      <point x="99" y="-8"/>
      <point x="203" y="-8" type="curve" smooth="yes"/>
      <point x="268" y="-8"/>
      <point x="311" y="24"/>
      <point x="355" y="63" type="curve"/>
      <point x="358" y="63" type="line"/>
      <point x="358" y="-113" type="line" smooth="yes"/>
      <point x="358" y="-175"/>
      <point x="346" y="-192"/>
      <point x="265" y="-192" type="curve"/>
      <point x="265" y="-220" type="line"/>
      <point x="507" y="-220" type="line"/>
      <point x="507" y="-192" type="line"/>
      <point x="451" y="-192"/>
      <point x="441" y="-175"/>
      <point x="441" y="-124" type="curve" smooth="yes"/>
    </contour>
    <contour>
      <point x="358" y="103" type="line"/>
      <point x="330" y="80"/>
      <point x="300" y="65"/>
      <point x="251" y="65" type="curve" smooth="yes"/>
      <point x="151" y="65"/>
      <point x="119" y="149"/>
      <point x="119" y="258" type="curve" smooth="yes"/>
      <point x="119" y="383"/>
      <point x="174" y="445"/>
      <point x="258" y="445" type="curve" smooth="yes"/>
      <point x="311" y="445"/>
      <point x="345" y="416"/>
      <point x="358" y="366" type="curve"/>
    </contour>
  </outline>
</glyph>
<glyph name="hturnedfishhooktail" format="2">
  <advance width="600"/>
  <unicode hex="02AF"/>
  <outline>
    <contour>
      <point x="432" y="-2" type="line" smooth="yes"/>
      <point x="432" y="-160"/>
      <point x="480" y="-235"/>
      <point x="599" y="-235" type="curve" smooth="yes"/>
      <point x="664" y="-235"/>
      <point x="706" y="-207"/>
      <point x="706" y="-163" type="curve" smooth="yes"/>
      <point x="706" y="-138"/>
      <point x="689" y="-121"/>
      <point x="662" y="-121" type="curve" smooth="yes"/>
      <point x="614" y="-121"/>
      <point x="613" y="-191"/>
      <point x="568" y="-191" type="curve" smooth="yes"/>
      <point x="524" y="-191"/>
      <point x="515" y="-149"/>
      <point x="515" y="-62" type="curve" smooth="yes"/>
      <point x="515" y="482" type="line"/>
      <point x="489" y="482" type="line"/>
      <point x="363" y="454" type="line"/>
      <point x="363" y="425" type="line"/>
      <point x="363" y="425"/>
      <point x="374" y="427"/>
      <point x="388" y="427" type="curve" smooth="yes"/>
      <point x="417" y="427"/>
      <point x="432" y="423"/>
      <point x="432" y="380" type="curve" smooth="yes"/>
      <point x="432" y="114" type="line"/>
      <point x="385" y="69"/>
      <point x="350" y="52"/>
      <point x="312" y="52" type="curve" smooth="yes"/>
      <point x="234" y="52"/>
      <point x="223" y="121"/>
      <point x="223" y="203" type="curve" smooth="yes"/>
      <point x="223" y="268" type="line" smooth="yes"/>
      <point x="223" y="393"/>
      <point x="180" y="484"/>
      <point x="54" y="484" type="curve" smooth="yes"/>
      <point x="8" y="484"/>
      <point x="-33" y="465"/>
      <point x="-33" y="428" type="curve" smooth="yes"/>
      <point x="-33" y="404"/>
      <point x="-11" y="389"/>
      <point x="8" y="389" type="curve" smooth="yes"/>
      <point x="49" y="389"/>
      <point x="54" y="450"/>
      <point x="89" y="450" type="curve" smooth="yes"/>
      <point x="128" y="450"/>
      <point x="139" y="409"/>
      <point x="140" y="350" type="curve"/>
      <point x="140" y="173" type="line" smooth="yes"/>
      <point x="140" y="91"/>
      <point x="159" y="-12"/>
      <point x="271" y="-12" type="curve" smooth="yes"/>
      <point x="323" y="-12"/>
      <point x="368" y="11"/>
      <point x="429" y="70" type="curve"/>
      <point x="432" y="70" type="line"/>
    </contour>
  </outline>
</glyph>
<glyph name="jraised" format="2">
  <advance width="222"/>
  <unicode hex="02B2"/>
  <outline>
    <contour>
      <point x="160" y="640" type="line"/>
      <point x="127" y="640" type="line"/>
      <point x="26" y="626" type="line"/>
      <point x="26" y="596" type="line"/>
      <point x="26" y="596"/>
      <point x="38" y="598"/>
      <point x="51" y="598" type="curve" smooth="yes"/>
      <point x="82" y="598"/>
      <point x="87" y="592"/>
      <point x="87" y="555" type="curve" smooth="yes"/>
      <point x="87" y="226" type="line" smooth="yes"/>
      <point x="87" y="139"/>
      <point x="84" y="103"/>
      <point x="49" y="103" type="curve" smooth="yes"/>
      <point x="11" y="103"/>
      <point x="7" y="163"/>
      <point x="-32" y="163" type="curve" smooth="yes"/>
      <point x="-55" y="163"/>
      <point x="-71" y="149"/>
      <point x="-71" y="126" type="curve" smooth="yes"/>
      <point x="-71" y="88"/>
      <point x="-36" y="64"/>
      <point x="18" y="64" type="curve" smooth="yes"/>
      <point x="117" y="64"/>
      <point x="160" y="121"/>
      <point x="160" y="246" type="curve" smooth="yes"/>
    </contour>
    <contour>
      <point x="120" y="803" type="curve" smooth="yes"/>
      <point x="90" y="803"/>
      <point x="70" y="781"/>
      <point x="70" y="754" type="curve" smooth="yes"/>
      <point x="70" y="729"/>
      <point x="91" y="706"/>
      <point x="120" y="706" type="curve" smooth="yes"/>
      <point x="150" y="706"/>
      <point x="171" y="729"/>
      <point x="171" y="754" type="curve" smooth="yes"/>
      <point x="171" y="781"/>
      <point x="150" y="803"/>
    </contour>
  </outline>
</glyph>
<glyph name="rturnedhookraised" format="2">
  <advance width="325"/>
  <unicode hex="02B5"/>
  <outline>
    <contour>
      <point x="256" y="552" type="line" smooth="yes"/>
      <point x="256" y="595"/>
      <point x="269" y="605"/>
      <point x="318" y="605" type="curve"/>
      <point x="318" y="633" type="line"/>
      <point x="110" y="633" type="line"/>
      <point x="110" y="605" type="line"/>
      <point x="171" y="605"/>
      <point x="184" y="596"/>
      <point x="184" y="551" type="curve" smooth="yes"/>
      <point x="184" y="370" type="line"/>
      <point x="163" y="335"/>
      <point x="133" y="305"/>
      <point x="119" y="305" type="curve" smooth="yes"/>
      <point x="113" y="305"/>
      <point x="91" y="335"/>
      <point x="64" y="335" type="curve" smooth="yes"/>
      <point x="48" y="335"/>
      <point x="28" y="321"/>
      <point x="28" y="285" type="curve" smooth="yes"/>
      <point x="28" y="256"/>
      <point x="45" y="239"/>
      <point x="76" y="239" type="curve" smooth="yes"/>
      <point x="113" y="239"/>
      <point x="140" y="269"/>
      <point x="181" y="324" type="curve"/>
      <point x="185" y="324" type="line"/>
      <point x="186" y="219"/>
      <point x="193" y="124"/>
      <point x="314" y="124" type="curve" smooth="yes"/>
      <point x="374" y="124"/>
      <point x="401" y="142"/>
      <point x="401" y="169" type="curve" smooth="yes"/>
      <point x="401" y="189"/>
      <point x="389" y="196"/>
      <point x="374" y="196" type="curve" smooth="yes"/>
      <point x="345" y="196"/>
      <point x="339" y="156"/>
      <point x="290" y="156" type="curve" smooth="yes"/>
      <point x="261" y="156"/>
      <point x="257" y="177"/>
      <point x="256" y="232" type="curve"/>
    </contour>
  </outline>
</glyph>
<glyph name="yraised" format="2">
  <advance width="427"/>
  <unicode hex="02B8"/>
  <outline>
    <contour>
      <point x="425" y="633" type="line"/>
      <point x="278" y="633" type="line"/>
      <point x="278" y="604" type="line"/>
      <point x="305" y="604"/>
      <point x="327" y="602"/>
      <point x="327" y="585" type="curve" smooth="yes"/>
      <point x="327" y="577"/>
      <point x="324" y="568"/>
      <point x="322" y="562" type="curve" smooth="yes"/>
      <point x="243" y="335" type="line"/>
      <point x="234" y="335" type="line"/>
      <point x="224" y="381" type="line"/>
      <point x="148" y="548" type="line"/>
      <point x="144" y="559"/>
      <point x="136" y="573"/>
      <point x="136" y="583" type="curve" smooth="yes"/>
      <point x="136" y="598"/>
      <point x="145" y="604"/>
      <point x="183" y="604" type="curve"/>
      <point x="183" y="633" type="line"/>
      <point x="3" y="633" type="line"/>
      <point x="3" y="604" type="line"/>
      <point x="31" y="604"/>
      <point x="45" y="595"/>
      <point x="52" y="576" type="curve"/>
      <point x="179" y="303" type="line"/>
      <point x="184" y="289"/>
      <point x="196" y="262"/>
      <point x="196" y="257" type="curve" smooth="yes"/>
      <point x="196" y="242"/>
      <point x="151" y="144"/>
      <point x="128" y="144" type="curve" smooth="yes"/>
      <point x="111" y="144"/>
      <point x="91" y="166"/>
      <point x="60" y="166" type="curve" smooth="yes"/>
      <point x="35" y="166"/>
      <point x="19" y="154"/>
      <point x="19" y="127" type="curve" smooth="yes"/>
      <point x="19" y="94"/>
      <point x="44" y="82"/>
      <point x="82" y="82" type="curve" smooth="yes"/>
      <point x="151" y="82"/>
      <point x="191" y="124"/>
      <point x="238" y="241" type="curve" smooth="yes"/>
      <point x="366" y="559" type="line"/>
      <point x="377" y="589"/>
      <point x="389" y="604"/>
      <point x="425" y="604" type="curve"/>
    </contour>
  </outline>
</glyph>
<glyph name="apostropheturnedmodifier" format="2">
  <advance width="245"/>
  <unicode hex="02BB"/>
  <outline>
    <contour>
      <point x="182" y="710" type="line"/>
      <point x="145" y="696"/>
      <point x="58" y="656"/>
      <point x="58" y="550" type="curve" smooth="yes"/>
      <point x="58" y="493"/>
      <point x="84" y="460"/>
      <point x="135" y="460" type="curve" smooth="yes"/>
      <point x="175" y="460"/>
      <point x="198" y="486"/>
      <point x="198" y="519" type="curve" smooth="yes"/>
      <point x="198" y="548"/>
      <point x="181" y="573"/>
      <point x="142" y="573" type="curve" smooth="yes"/>
      <point x="131" y="573"/>
      <point x="123" y="572"/>
      <point x="112" y="567" type="curve"/>
      <point x="112" y="646"/>
      <point x="160" y="670"/>
      <point x="194" y="685" type="curve"/>
    </contour>
  </outline>
</glyph>
<glyph name="apostrophereversedmodifier" format="2">
  <advance width="244"/>
  <unicode hex="02BD"/>
  <outline>
    <contour>
      <point x="193" y="484" type="line"/>
      <point x="156" y="500"/>
      <point x="110" y="525"/>
      <point x="110" y="602" type="curve"/>
      <point x="122" y="597"/>
      <point x="130" y="596"/>
      <point x="141" y="596" type="curve" smooth="yes"/>
      <point x="180" y="596"/>
      <point x="196" y="621"/>
      <point x="196" y="650" type="curve" smooth="yes"/>
      <point x="196" y="683"/>
      <point x="174" y="710"/>
      <point x="134" y="710" type="curve" smooth="yes"/>
      <point x="84" y="710"/>
      <point x="58" y="676"/>
      <point x="58" y="622" type="curve" smooth="yes"/>
      <point x="58" y="510"/>
      <point x="139" y="478"/>
      <point x="181" y="459" type="curve"/>
    </contour>
  </outline>
</glyph>
<glyph name="halfringright" format="2">
  <advance width="203"/>
  <unicode hex="02BE"/>
  <outline>
    <contour>
      <point x="30" y="702" type="line"/>
      <point x="30" y="652" type="line"/>
      <point x="66" y="652" type="line" smooth="yes"/>
      <point x="98" y="652"/>
      <point x="123" y="638"/>
      <point x="123" y="597" type="curve" smooth="yes"/>
      <point x="123" y="556"/>
      <point x="98" y="540"/>
      <point x="66" y="540" type="curve" smooth="yes"/>
      <point x="30" y="540" type="line"/>
      <point x="30" y="490" type="line"/>
      <point x="66" y="490" type="line" smooth="yes"/>
      <point x="133" y="490"/>
      <point x="178" y="530"/>
      <point x="178" y="597" type="curve" smooth="yes"/>
      <point x="178" y="664"/>
      <point x="133" y="702"/>
      <point x="66" y="702" type="curve" smooth="yes"/>
    </contour>
  </outline>
</glyph>
<glyph name="halfringleft" format="2">
  <advance width="203"/>
  <unicode hex="02BF"/>
  <outline>
    <contour>
      <point x="137" y="702" type="line" smooth="yes"/>
      <point x="70" y="702"/>
      <point x="25" y="664"/>
      <point x="25" y="597" type="curve" smooth="yes"/>
      <point x="25" y="530"/>
      <point x="70" y="490"/>
      <point x="137" y="490" type="curve" smooth="yes"/>
      <point x="173" y="490" type="line"/>
      <point x="173" y="540" type="line"/>
      <point x="137" y="540" type="line" smooth="yes"/>
      <point x="105" y="540"/>
      <point x="80" y="556"/>
      <point x="80" y="597" type="curve" smooth="yes"/>
      <point x="80" y="638"/>
      <point x="105" y="652"/>
      <point x="137" y="652" type="curve" smooth="yes"/>
      <point x="173" y="652" type="line"/>
      <point x="173" y="702" type="line"/>
    </contour>
  </outline>
</glyph>
<glyph name="circumflex" format="2">
  <advance width="342"/>
  <unicode hex="02C6"/>
  <outline>
    <contour>
      <point x="312" y="521" type="line"/>
      <point x="204" y="674" type="line"/>
      <point x="138" y="674" type="line"/>
      <point x="30" y="521" type="line"/>
      <point x="69" y="521" type="line"/>
      <point x="171" y="619" type="line"/>
      <point x="274" y="521" type="line"/>
    </contour>
  </outline>
</glyph>
<glyph name="lengthfull" format="2">
  <advance width="341"/>
  <unicode hex="02D0"/>
  <outline>
    <contour>
      <point x="250" y="471" type="line"/>
      <point x="91" y="471" type="line"/>
      <point x="147" y="306" type="line"/>
      <point x="193" y="306" type="line"/>
    </contour>
    <contour>
      <point x="250" y="19" type="line"/>
      <point x="193" y="184" type="line"/>
      <point x="147" y="184" type="line"/>
      <point x="91" y="19" type="line"/>
    </contour>
  </outline>
</glyph>
<glyph name="lengthhalf" format="2">
  <advance width="341"/>
  <unicode hex="02D1"/>
  <outline>
    <contour>
      <point x="250" y="471" type="line"/>
      <point x="91" y="471" type="line"/>
      <point x="147" y="306" type="line"/>
      <point x="193" y="306" type="line"/>
    </contour>
  </outline>
</glyph>
<glyph name="halfringcentredright" format="2">
  <advance width="341"/>
  <unicode hex="02D2"/>
  <outline>
    <contour>
      <point x="73" y="374" type="line"/>
      <point x="73" y="317" type="line"/>
      <point x="114" y="317" type="line" smooth="yes"/>
      <point x="171" y="317"/>
      <point x="212" y="291"/>
      <point x="212" y="225" type="curve" smooth="yes"/>
      <point x="212" y="159"/>
      <point x="171" y="133"/>
      <point x="114" y="133" type="curve" smooth="yes"/>
      <point x="73" y="133" type="line"/>
      <point x="73" y="77" type="line"/>
      <point x="120" y="77" type="line" smooth="yes"/>
      <point x="201" y="77"/>
      <point x="272" y="129"/>
      <point x="272" y="225" type="curve" smooth="yes"/>
      <point x="272" y="321"/>
      <point x="201" y="374"/>
      <point x="120" y="374" type="curve" smooth="yes"/>
    </contour>
  </outline>
</glyph>
<glyph name="ogonek" format="2">
  <advance width="277"/>
  <unicode hex="02DB"/>
  <outline>
    <contour>
      <point x="233" y="-134" type="line"/>
      <point x="203" y="-156"/>
      <point x="186" y="-165"/>
      <point x="148" y="-165" type="curve" smooth="yes"/>
      <point x="117" y="-165"/>
      <point x="98" y="-147"/>
      <point x="98" y="-110" type="curve" smooth="yes"/>
      <point x="98" y="-56"/>
      <point x="144" y="-22"/>
      <point x="180" y="4" type="curve"/>
      <point x="134" y="4" type="line"/>
      <point x="97" y="-23"/>
      <point x="30" y="-73"/>
      <point x="30" y="-134" type="curve" smooth="yes"/>
      <point x="30" y="-184"/>
      <point x="67" y="-216"/>
      <point x="120" y="-216" type="curve" smooth="yes"/>
      <point x="179" y="-216"/>
      <point x="208" y="-190"/>
      <point x="247" y="-151" type="curve"/>
    </contour>
  </outline>
</glyph>
<glyph name="crossmodifier" format="2">
  <advance width="302"/>
  <unicode hex="02DF"/>
  <outline>
    <contour>
      <point x="272" y="703" type="line"/>
      <point x="238" y="738" type="line"/>
      <point x="152" y="651" type="line"/>
      <point x="67" y="738" type="line"/>
      <point x="30" y="703" type="line"/>
      <point x="117" y="615" type="line"/>
      <point x="34" y="531" type="line"/>
      <point x="67" y="495" type="line"/>
      <point x="150" y="580" type="line"/>
      <point x="235" y="495" type="line"/>
      <point x="270" y="533" type="line"/>
      <point x="187" y="616" type="line"/>
    </contour>
  </outline>
</glyph>
<glyph name="sraised" format="2">
  <advance width="337"/>
  <unicode hex="02E2"/>
  <outline>
    <contour>
      <point x="33" y="388" type="line"/>
      <point x="34" y="244" type="line"/>
      <point x="52" y="244" type="line"/>
      <point x="70" y="264" type="line"/>
      <point x="73" y="264" type="line"/>
      <point x="92" y="256"/>
      <point x="120" y="242"/>
      <point x="165" y="242" type="curve" smooth="yes"/>
      <point x="238" y="242"/>
      <point x="310" y="269"/>
      <point x="310" y="348" type="curve" smooth="yes"/>
      <point x="310" y="414"/>
      <point x="262" y="445"/>
      <point x="193" y="478" type="curve" smooth="yes"/>
      <point x="130" y="507"/>
      <point x="95" y="527"/>
      <point x="95" y="560" type="curve" smooth="yes"/>
      <point x="95" y="596"/>
      <point x="121" y="611"/>
      <point x="157" y="611" type="curve" smooth="yes"/>
      <point x="208" y="611"/>
      <point x="241" y="591"/>
      <point x="260" y="514" type="curve"/>
      <point x="286" y="514" type="line"/>
      <point x="286" y="638" type="line"/>
      <point x="266" y="638" type="line"/>
      <point x="252" y="619" type="line"/>
      <point x="250" y="619" type="line"/>
      <point x="234" y="628"/>
      <point x="205" y="643"/>
      <point x="159" y="643" type="curve" smooth="yes"/>
      <point x="88" y="643"/>
      <point x="34" y="607"/>
      <point x="34" y="541" type="curve" smooth="yes"/>
      <point x="34" y="477"/>
      <point x="70" y="448"/>
      <point x="145" y="414" type="curve" smooth="yes"/>
      <point x="220" y="380"/>
      <point x="238" y="364"/>
      <point x="238" y="328" type="curve" smooth="yes"/>
      <point x="238" y="287"/>
      <point x="204" y="277"/>
      <point x="163" y="277" type="curve" smooth="yes"/>
      <point x="103" y="277"/>
      <point x="75" y="304"/>
      <point x="58" y="388" type="curve"/>
    </contour>
  </outline>
</glyph>
<glyph name="tonebarhigh" format="2">
  <advance width="414"/>
  <unicode hex="02E6"/>
  <outline>
    <contour>
      <point x="374" y="0" type="line"/>
      <point x="374" y="678" type="line"/>
      <point x="322" y="678" type="line"/>
      <point x="322" y="492" type="line"/>
      <point x="41" y="492" type="line"/>
      <point x="41" y="441" type="line"/>
      <point x="322" y="441" type="line"/>
      <point x="322" y="0" type="line"/>
    </contour>
  </outline>
</glyph>
<glyph name="dotaccentcomb" format="2">
  <unicode hex="0307"/>
  <outline>
    <contour>
      <point x="-230" y="673" type="curve" smooth="yes"/>
      <point x="-265" y="673"/>
      <point x="-287" y="647"/>
      <point x="-287" y="617" type="curve" smooth="yes"/>
      <point x="-287" y="586"/>
      <point x="-264" y="560"/>
      <point x="-230" y="560" type="curve" smooth="yes"/>
      <point x="-195" y="560"/>
      <point x="-173" y="586"/>
      <point x="-173" y="617" type="curve" smooth="yes"/>
      <point x="-173" y="647"/>
      <point x="-195" y="673"/>
    </contour>
  </outline>
</glyph>
<glyph name="dblgravecomb" format="2">
  <unicode hex="030F"/>
  <outline>
    <contour>
      <point x="-201" y="674" type="line"/>
      <point x="-293" y="674" type="line"/>
      <point x="-293" y="656" type="line"/>
      <point x="-174" y="521" type="line"/>
      <point x="-136" y="521" type="line"/>
    </contour>
    <contour>
      <point x="-334" y="674" type="line"/>
      <point x="-426" y="674" type="line"/>
      <point x="-426" y="656" type="line"/>
      <point x="-307" y="521" type="line"/>
      <point x="-269" y="521" type="line"/>
    </contour>
  </outline>
</glyph>
<glyph name="gravebelowcomb" format="2">
  <unicode hex="0316"/>
  <outline>
    <contour>
      <point x="-246" y="-56" type="line"/>
      <point x="-338" y="-56" type="line"/>
      <point x="-338" y="-74" type="line"/>
      <point x="-215" y="-209" type="line"/>
      <point x="-176" y="-209" type="line"/>
    </contour>
  </outline>
</glyph>
<glyph name="tackleftbelowcomb" format="2">
  <unicode hex="0318"/>
  <outline>
    <contour>
      <point x="-160" y="-250" type="line"/>
      <point x="-160" y="-55" type="line"/>
      <point x="-201" y="-55" type="line"/>
      <point x="-201" y="-133" type="line"/>
      <point x="-302" y="-133" type="line"/>
      <point x="-302" y="-172" type="line"/>
      <point x="-201" y="-172" type="line"/>
      <point x="-201" y="-250" type="line"/>
    </contour>
  </outline>
</glyph>
<glyph name="tackrightbelowcomb" format="2">
  <unicode hex="0319"/>
  <outline>
    <contour>
      <point x="-301" y="-250" type="line"/>
      <point x="-301" y="-55" type="line"/>
      <point x="-260" y="-55" type="line"/>
      <point x="-260" y="-133" type="line"/>
      <point x="-159" y="-133" type="line"/>
      <point x="-159" y="-172" type="line"/>
      <point x="-260" y="-172" type="line"/>
      <point x="-260" y="-250" type="line"/>
    </contour>
  </outline>
</glyph>
<glyph name="dotbelowcomb" format="2">
  <unicode hex="0323"/>
  <outline>
    <contour>
      <point x="-230" y="-68" type="curve" smooth="yes"/>
      <point x="-265" y="-68"/>
      <point x="-287" y="-94"/>
      <point x="-287" y="-124" type="curve" smooth="yes"/>
      <point x="-287" y="-155"/>
      <point x="-264" y="-181"/>
      <point x="-230" y="-181" type="curve" smooth="yes"/>
      <point x="-195" y="-181"/>
      <point x="-173" y="-155"/>
      <point x="-173" y="-124" type="curve" smooth="yes"/>
      <point x="-173" y="-94"/>
      <point x="-195" y="-68"/>
    </contour>
  </outline>
</glyph>
<glyph name="dieresisbelowcomb" format="2">
  <unicode hex="0324"/>
  <outline>
    <contour>
      <point x="-340" y="-68" type="curve" smooth="yes"/>
      <point x="-374" y="-68"/>
      <point x="-396" y="-94"/>
      <point x="-396" y="-124" type="curve" smooth="yes"/>
      <point x="-396" y="-154"/>
      <point x="-373" y="-180"/>
      <point x="-340" y="-180" type="curve" smooth="yes"/>
      <point x="-305" y="-180"/>
      <point x="-283" y="-154"/>
      <point x="-283" y="-124" type="curve" smooth="yes"/>
      <point x="-283" y="-94"/>
      <point x="-305" y="-68"/>
    </contour>
    <contour>
      <point x="-121" y="-68" type="curve" smooth="yes"/>
      <point x="-155" y="-68"/>
      <point x="-177" y="-94"/>
      <point x="-177" y="-124" type="curve" smooth="yes"/>
      <point x="-177" y="-154"/>
      <point x="-154" y="-180"/>
      <point x="-121" y="-180" type="curve" smooth="yes"/>
      <point x="-86" y="-180"/>
      <point x="-64" y="-154"/>
      <point x="-64" y="-124" type="curve" smooth="yes"/>
      <point x="-64" y="-94"/>
      <point x="-86" y="-68"/>
    </contour>
  </outline>
</glyph>
<glyph name="ringbelowcomb" format="2">
  <unicode hex="0325"/>
  <outline>
    <contour>
      <point x="-128" y="-155" type="curve" smooth="yes"/>
      <point x="-128" y="-94"/>
      <point x="-172" y="-55"/>
      <point x="-231" y="-55" type="curve" smooth="yes"/>
      <point x="-289" y="-55"/>
      <point x="-333" y="-94"/>
      <point x="-333" y="-154" type="curve" smooth="yes"/>
      <point x="-333" y="-219"/>
      <point x="-288" y="-254"/>
      <point x="-231" y="-254" type="curve" smooth="yes"/>
      <point x="-172" y="-254"/>
      <point x="-128" y="-219"/>
    </contour>
    <contour>
      <point x="-172" y="-154" type="curve" smooth="yes"/>
      <point x="-172" y="-192"/>
      <point x="-191" y="-217"/>
      <point x="-231" y="-217" type="curve" smooth="yes"/>
      <point x="-270" y="-217"/>
      <point x="-289" y="-192"/>
      <point x="-289" y="-154" type="curve" smooth="yes"/>
      <point x="-289" y="-118"/>
      <point x="-270" y="-91"/>
      <point x="-231" y="-91" type="curve" smooth="yes"/>
      <point x="-193" y="-91"/>
      <point x="-172" y="-118"/>
    </contour>
  </outline>
</glyph>
<glyph name="bridgebelowcomb" format="2">
  <unicode hex="032A"/>
  <outline>
    <contour>
      <point x="-107" y="-178" type="line"/>
      <point x="-107" y="-55" type="line"/>
      <point x="-354" y="-55" type="line"/>
      <point x="-354" y="-178" type="line"/>
      <point x="-313" y="-178" type="line"/>
      <point x="-313" y="-94" type="line"/>
      <point x="-146" y="-94" type="line"/>
      <point x="-146" y="-178" type="line"/>
    </contour>
  </outline>
</glyph>
<glyph name="inverteddblarchbelowcomb" format="2">
  <unicode hex="032B"/>
  <outline>
    <contour>
      <point x="-74" y="-55" type="line"/>
      <point x="-115" y="-55" type="line"/>
      <point x="-115" y="-91" type="line" smooth="yes"/>
      <point x="-115" y="-119"/>
      <point x="-130" y="-134"/>
      <point x="-165" y="-134" type="curve" smooth="yes"/>
      <point x="-192" y="-134"/>
      <point x="-212" y="-119"/>
      <point x="-212" y="-91" type="curve" smooth="yes"/>
      <point x="-212" y="-55" type="line"/>
      <point x="-253" y="-55" type="line"/>
      <point x="-253" y="-92" type="line" smooth="yes"/>
      <point x="-253" y="-120"/>
      <point x="-265" y="-134"/>
      <point x="-297" y="-134" type="curve" smooth="yes"/>
      <point x="-325" y="-134"/>
      <point x="-345" y="-120"/>
      <point x="-345" y="-92" type="curve" smooth="yes"/>
      <point x="-345" y="-55" type="line"/>
      <point x="-386" y="-55" type="line"/>
      <point x="-386" y="-91" type="line" smooth="yes"/>
      <point x="-386" y="-142"/>
      <point x="-351" y="-175"/>
      <point x="-295" y="-175" type="curve" smooth="yes"/>
      <point x="-262" y="-175"/>
      <point x="-241" y="-158"/>
      <point x="-233" y="-140" type="curve"/>
      <point x="-226" y="-158"/>
      <point x="-195" y="-175"/>
      <point x="-163" y="-175" type="curve" smooth="yes"/>
      <point x="-108" y="-175"/>
      <point x="-74" y="-142"/>
      <point x="-74" y="-91" type="curve" smooth="yes"/>
    </contour>
  </outline>
</glyph>
<glyph name="circumflexbelowcomb" format="2">
  <unicode hex="032D"/>
  <outline>
    <contour>
      <point x="-89" y="-203" type="line"/>
      <point x="-197" y="-50" type="line"/>
      <point x="-263" y="-50" type="line"/>
      <point x="-371" y="-203" type="line"/>
      <point x="-332" y="-203" type="line"/>
      <point x="-230" y="-105" type="line"/>
      <point x="-127" y="-203" type="line"/>
    </contour>
  </outline>
</glyph>
<glyph name="brevebelowcomb" format="2">
  <unicode hex="032E"/>
  <outline>
    <contour>
      <point x="-114" y="-50" type="line"/>
      <point x="-139" y="-127"/>
      <point x="-163" y="-141"/>
      <point x="-230" y="-141" type="curve" smooth="yes"/>
      <point x="-296" y="-141"/>
      <point x="-328" y="-127"/>
      <point x="-347" y="-50" type="curve"/>
      <point x="-377" y="-50" type="line"/>
      <point x="-373" y="-156"/>
      <point x="-323" y="-204"/>
      <point x="-230" y="-204" type="curve" smooth="yes"/>
      <point x="-138" y="-204"/>
      <point x="-95" y="-156"/>
      <point x="-84" y="-50" type="curve"/>
    </contour>
  </outline>
</glyph>
<glyph name="lowlinecomb" format="2">
  <unicode hex="0332"/>
  <outline>
    <contour>
      <point x="26" y="-137" type="line"/>
      <point x="26" y="-86" type="line"/>
      <point x="-486" y="-86" type="line"/>
      <point x="-486" y="-137" type="line"/>
    </contour>
  </outline>
</glyph>
<glyph name="lowlinedblcomb" format="2">
  <unicode hex="0333"/>
  <outline>
    <contour>
      <point x="26" y="-137" type="line"/>
      <point x="26" y="-86" type="line"/>
      <point x="-486" y="-86" type="line"/>
      <point x="-486" y="-137" type="line"/>
    </contour>
    <contour>
      <point x="26" y="-248" type="line"/>
      <point x="26" y="-197" type="line"/>
      <point x="-486" y="-197" type="line"/>
      <point x="-486" y="-248" type="line"/>
    </contour>
  </outline>
</glyph>
<glyph name="barcomb" format="2">
  <unicode hex="0335"/>
  <outline>
    <contour>
      <point x="-74" y="236" type="line"/>
      <point x="-74" y="281" type="line"/>
      <point x="-387" y="281" type="line"/>
      <point x="-387" y="236" type="line"/>
    </contour>
  </outline>
</glyph>
<glyph name="bridgeinvertedbelowcomb" format="2">
  <unicode hex="033A"/>
  <outline>
    <contour>
      <point x="-146" y="-55" type="line"/>
      <point x="-146" y="-139" type="line"/>
      <point x="-313" y="-139" type="line"/>
      <point x="-313" y="-55" type="line"/>
      <point x="-354" y="-55" type="line"/>
      <point x="-354" y="-178" type="line"/>
      <point x="-107" y="-178" type="line"/>
      <point x="-107" y="-55" type="line"/>
    </contour>
  </outline>
</glyph>
<glyph name="squarebelowcomb" format="2">
  <unicode hex="033B"/>
  <outline>
    <contour>
      <point x="-141" y="-233" type="line"/>
      <point x="-141" y="-55" type="line"/>
      <point x="-319" y="-55" type="line"/>
      <point x="-319" y="-233" type="line"/>
    </contour>
    <contour>
      <point x="-182" y="-194" type="line"/>
      <point x="-278" y="-194" type="line"/>
      <point x="-278" y="-94" type="line"/>
      <point x="-182" y="-94" type="line"/>
    </contour>
  </outline>
</glyph>
<glyph name="multiplycomb" format="2">
  <unicode hex="033D"/>
  <outline>
    <contour>
      <point x="-132" y="704" type="line"/>
      <point x="-160" y="732" type="line"/>
      <point x="-230" y="663" type="line"/>
      <point x="-298" y="732" type="line"/>
      <point x="-328" y="704" type="line"/>
      <point x="-258" y="635" type="line"/>
      <point x="-324" y="568" type="line"/>
      <point x="-297" y="539" type="line"/>
      <point x="-230" y="606" type="line"/>
      <point x="-160" y="539" type="line"/>
      <point x="-131" y="568" type="line"/>
      <point x="-201" y="635" type="line"/>
    </contour>
  </outline>
</glyph>
<glyph name="vtildecomb" format="2">
  <unicode hex="033E"/>
  <outline>
    <contour>
      <point x="-176" y="849" type="line"/>
      <point x="-243" y="833"/>
      <point x="-280" y="796"/>
      <point x="-280" y="745" type="curve" smooth="yes"/>
      <point x="-280" y="688"/>
      <point x="-233" y="648"/>
      <point x="-233" y="595" type="curve" smooth="yes"/>
      <point x="-233" y="571"/>
      <point x="-247" y="558"/>
      <point x="-285" y="540" type="curve"/>
      <point x="-285" y="511" type="line"/>
      <point x="-207" y="532"/>
      <point x="-176" y="562"/>
      <point x="-176" y="618" type="curve" smooth="yes"/>
      <point x="-176" y="675"/>
      <point x="-224" y="715"/>
      <point x="-224" y="767" type="curve" smooth="yes"/>
      <point x="-224" y="790"/>
      <point x="-208" y="808"/>
      <point x="-176" y="819" type="curve"/>
    </contour>
  </outline>
</glyph>
<glyph name="overlinedblcomb" format="2">
  <unicode hex="033F"/>
  <outline>
    <contour>
      <point x="-31" y="619" type="line"/>
      <point x="-31" y="670" type="line"/>
      <point x="-427" y="670" type="line"/>
      <point x="-427" y="619" type="line"/>
    </contour>
    <contour>
      <point x="-31" y="508" type="line"/>
      <point x="-31" y="559" type="line"/>
      <point x="-427" y="559" type="line"/>
      <point x="-427" y="508" type="line"/>
    </contour>
  </outline>
  <guideline angle="0" x="0" y="980"/>
</glyph>
<glyph name="uni034D" format="2">
  <unicode hex="034D"/>
  <outline>
    <contour>
      <point x="14" y="-175" type="line"/>
      <point x="-122" y="-66" type="line"/>
      <point x="-140" y="-74" type="line"/>
      <point x="-111" y="-104"/>
      <point x="-89" y="-122"/>
      <point x="-89" y="-132" type="curve" smooth="yes"/>
      <point x="-89" y="-145"/>
      <point x="-111" y="-147"/>
      <point x="-139" y="-147" type="curve" smooth="yes"/>
      <point x="-322" y="-147" type="line" smooth="yes"/>
      <point x="-355" y="-147"/>
      <point x="-372" y="-144"/>
      <point x="-372" y="-132" type="curve" smooth="yes"/>
      <point x="-372" y="-124"/>
      <point x="-354" y="-102"/>
      <point x="-322" y="-74" type="curve"/>
      <point x="-340" y="-66" type="line"/>
      <point x="-475" y="-175" type="line"/>
      <point x="-339" y="-283" type="line"/>
      <point x="-320" y="-275" type="line"/>
      <point x="-350" y="-245"/>
      <point x="-372" y="-227"/>
      <point x="-372" y="-218" type="curve" smooth="yes"/>
      <point x="-372" y="-207"/>
      <point x="-355" y="-202"/>
      <point x="-320" y="-202" type="curve" smooth="yes"/>
      <point x="-139" y="-202" type="line" smooth="yes"/>
      <point x="-105" y="-202"/>
      <point x="-89" y="-205"/>
      <point x="-89" y="-218" type="curve" smooth="yes"/>
      <point x="-89" y="-225"/>
      <point x="-106" y="-247"/>
      <point x="-139" y="-275" type="curve"/>
      <point x="-121" y="-283" type="line"/>
    </contour>
  </outline>
</glyph>
<glyph name="brevedblbelowcomb" format="2">
  <unicode hex="035C"/>
  <outline>
    <contour>
      <point x="312" y="-78" type="line"/>
      <point x="294" y="-164"/>
      <point x="70" y="-177"/>
      <point x="0" y="-177" type="curve" smooth="yes"/>
      <point x="-71" y="-177"/>
      <point x="-294" y="-164"/>
      <point x="-313" y="-78" type="curve"/>
      <point x="-342" y="-78" type="line"/>
      <point x="-342" y="-221"/>
      <point x="-104" y="-239"/>
      <point x="0" y="-239" type="curve" smooth="yes"/>
      <point x="103" y="-239"/>
      <point x="342" y="-221"/>
      <point x="342" y="-78" type="curve"/>
    </contour>
  </outline>
</glyph>
<glyph name="dialytikatonos" format="2">
  <advance width="426"/>
  <unicode hex="0385"/>
  <outline>
    <contour>
      <point x="135" y="604" type="curve" smooth="yes"/>
      <point x="135" y="633"/>
      <point x="115" y="655"/>
      <point x="82" y="655" type="curve" smooth="yes"/>
      <point x="49" y="655"/>
      <point x="30" y="634"/>
      <point x="30" y="604" type="curve" smooth="yes"/>
      <point x="30" y="573"/>
      <point x="48" y="551"/>
      <point x="82" y="551" type="curve" smooth="yes"/>
      <point x="116" y="551"/>
      <point x="135" y="574"/>
    </contour>
    <contour>
      <point x="170" y="521" type="line"/>
      <point x="208" y="521" type="line"/>
      <point x="274" y="671" type="line"/>
      <point x="274" y="689" type="line"/>
      <point x="182" y="689" type="line"/>
    </contour>
    <contour>
      <point x="396" y="604" type="curve" smooth="yes"/>
      <point x="396" y="633"/>
      <point x="376" y="655"/>
      <point x="343" y="655" type="curve" smooth="yes"/>
      <point x="310" y="655"/>
      <point x="291" y="634"/>
      <point x="291" y="604" type="curve" smooth="yes"/>
      <point x="291" y="573"/>
      <point x="309" y="551"/>
      <point x="343" y="551" type="curve" smooth="yes"/>
      <point x="377" y="551"/>
      <point x="396" y="574"/>
    </contour>
  </outline>
</glyph>
<glyph name="anoteleia" format="2">
  <advance width="261"/>
  <unicode hex="0387"/>
  <outline>
    <contour>
      <point x="193" y="423" type="curve" smooth="yes"/>
      <point x="193" y="456"/>
      <point x="172" y="485"/>
      <point x="134" y="485" type="curve" smooth="yes"/>
      <point x="97" y="485"/>
      <point x="75" y="457"/>
      <point x="75" y="424" type="curve" smooth="yes"/>
      <point x="75" y="390"/>
      <point x="94" y="366"/>
      <point x="133" y="366" type="curve" smooth="yes"/>
      <point x="172" y="366"/>
      <point x="193" y="392"/>
    </contour>
  </outline>
</glyph>
<glyph name="Lambda" format="2">
  <advance width="710"/>
  <unicode hex="039B"/>
  <outline>
    <contour>
      <point x="488" y="129" type="line"/>
      <point x="501" y="99"/>
      <point x="506" y="81"/>
      <point x="506" y="67" type="curve" smooth="yes"/>
      <point x="506" y="32"/>
      <point x="466" y="30"/>
      <point x="437" y="30" type="curve"/>
      <point x="437" y="0" type="line"/>
      <point x="706" y="0" type="line"/>
      <point x="706" y="30" type="line"/>
      <point x="652" y="30"/>
      <point x="632" y="53"/>
      <point x="602" y="119" type="curve"/>
      <point x="367" y="662" type="line"/>
      <point x="326" y="662" type="line"/>
      <point x="122" y="160" type="line"/>
      <point x="74" y="46"/>
      <point x="59" y="30"/>
      <point x="4" y="30" type="curve"/>
      <point x="4" y="0" type="line"/>
      <point x="214" y="0" type="line"/>
      <point x="214" y="30" type="line"/>
      <point x="167" y="30"/>
      <point x="147" y="36"/>
      <point x="147" y="64" type="curve" smooth="yes"/>
      <point x="147" y="82"/>
      <point x="151" y="97"/>
      <point x="158" y="113" type="curve"/>
      <point x="322" y="539" type="line"/>
      <point x="326" y="539" type="line"/>
    </contour>
  </outline>
</glyph>
<glyph name="Psi" format="2">
  <advance width="720"/>
  <unicode hex="03A8"/>
  <outline>
    <contour>
      <point x="315" y="251" type="line"/>
      <point x="189" y="251"/>
      <point x="159" y="341"/>
      <point x="159" y="420" type="curve" smooth="yes"/>
      <point x="159" y="454"/>
      <point x="161" y="503"/>
      <point x="161" y="528" type="curve" smooth="yes"/>
      <point x="161" y="602"/>
      <point x="114" y="657"/>
      <point x="20" y="657" type="curve" smooth="yes"/>
      <point x="5" y="657" type="line"/>
      <point x="5" y="627" type="line"/>
      <point x="14" y="627" type="line" smooth="yes"/>
      <point x="65" y="627"/>
      <point x="69" y="585"/>
      <point x="69" y="542" type="curve" smooth="yes"/>
      <point x="69" y="499"/>
      <point x="66" y="466"/>
      <point x="66" y="410" type="curve" smooth="yes"/>
      <point x="66" y="279"/>
      <point x="194" y="213"/>
      <point x="315" y="211" type="curve"/>
      <point x="315" y="131" type="line" smooth="yes"/>
      <point x="315" y="43"/>
      <point x="305" y="30"/>
      <point x="215" y="30" type="curve"/>
      <point x="215" y="0" type="line"/>
      <point x="505" y="0" type="line"/>
      <point x="505" y="30" type="line"/>
      <point x="417" y="30"/>
      <point x="406" y="47"/>
      <point x="406" y="131" type="curve" smooth="yes"/>
      <point x="406" y="211" type="line"/>
      <point x="532" y="213"/>
      <point x="654" y="284"/>
      <point x="654" y="417" type="curve" smooth="yes"/>
      <point x="654" y="461"/>
      <point x="652" y="508"/>
      <point x="652" y="543" type="curve" smooth="yes"/>
      <point x="652" y="586"/>
      <point x="657" y="627"/>
      <point x="706" y="627" type="curve" smooth="yes"/>
      <point x="715" y="627" type="line"/>
      <point x="715" y="657" type="line"/>
      <point x="701" y="657" type="line" smooth="yes"/>
      <point x="610" y="657"/>
      <point x="560" y="602"/>
      <point x="560" y="527" type="curve" smooth="yes"/>
      <point x="560" y="506"/>
      <point x="563" y="454"/>
      <point x="563" y="420" type="curve" smooth="yes"/>
      <point x="563" y="342"/>
      <point x="528" y="253"/>
      <point x="406" y="251" type="curve"/>
      <point x="406" y="525" type="line" smooth="yes"/>
      <point x="406" y="603"/>
      <point x="408" y="627"/>
      <point x="504" y="627" type="curve"/>
      <point x="504" y="657" type="line"/>
      <point x="216" y="657" type="line"/>
      <point x="216" y="627" type="line"/>
      <point x="311" y="627"/>
      <point x="315" y="603"/>
      <point x="315" y="525" type="curve" smooth="yes"/>
    </contour>
  </outline>
</glyph>
<glyph name="epsilon" format="2">
  <advance width="381"/>
  <unicode hex="03B5"/>
  <outline>
    <contour>
      <point x="141" y="258" type="curve"/>
      <point x="125" y="279"/>
      <point x="109" y="312"/>
      <point x="109" y="338" type="curve" smooth="yes"/>
      <point x="109" y="390"/>
      <point x="179" y="406"/>
      <point x="224" y="406" type="curve" smooth="yes"/>
      <point x="270" y="406"/>
      <point x="301" y="394"/>
      <point x="331" y="379" type="curve"/>
      <point x="359" y="437" type="line"/>
      <point x="359" y="454" type="line"/>
      <point x="332" y="469"/>
      <point x="298" y="481"/>
      <point x="243" y="481" type="curve" smooth="yes"/>
      <point x="156" y="481"/>
      <point x="53" y="443"/>
      <point x="53" y="355" type="curve" smooth="yes"/>
      <point x="53" y="306"/>
      <point x="75" y="281"/>
      <point x="116" y="243" type="curve"/>
      <point x="67" y="204"/>
      <point x="41" y="169"/>
      <point x="41" y="119" type="curve" smooth="yes"/>
      <point x="41" y="26"/>
      <point x="124" y="-14"/>
      <point x="195" y="-14" type="curve" smooth="yes"/>
      <point x="271" y="-14"/>
      <point x="352" y="7"/>
      <point x="352" y="71" type="curve" smooth="yes"/>
      <point x="352" y="88"/>
      <point x="345" y="103"/>
      <point x="335" y="115" type="curve"/>
      <point x="326" y="115" type="line"/>
      <point x="301" y="92"/>
      <point x="271" y="66"/>
      <point x="203" y="66" type="curve" smooth="yes"/>
      <point x="154" y="66"/>
      <point x="102" y="88"/>
      <point x="102" y="146" type="curve" smooth="yes"/>
      <point x="102" y="184"/>
      <point x="124" y="209"/>
      <point x="141" y="227" type="curve"/>
      <point x="177" y="214"/>
      <point x="211" y="207"/>
      <point x="249" y="207" type="curve" smooth="yes"/>
      <point x="256" y="207"/>
      <point x="265" y="221"/>
      <point x="265" y="239" type="curve" smooth="yes"/>
      <point x="265" y="268"/>
      <point x="256" y="287"/>
      <point x="249" y="287" type="curve"/>
      <point x="213" y="284"/>
      <point x="165" y="270"/>
    </contour>
  </outline>
</glyph>
<glyph name="eta" format="2">
  <advance width="510"/>
  <unicode hex="03B7"/>
  <outline>
    <contour>
      <point x="81" y="12" type="line"/>
      <point x="84" y="0" type="line"/>
      <point x="172" y="0" type="line"/>
      <point x="182" y="191" type="line" smooth="yes"/>
      <point x="183" y="216"/>
      <point x="224" y="398"/>
      <point x="319" y="398" type="curve" smooth="yes"/>
      <point x="361" y="398"/>
      <point x="394" y="362"/>
      <point x="394" y="231" type="curve" smooth="yes"/>
      <point x="394" y="84"/>
      <point x="368" y="-33"/>
      <point x="333" y="-215" type="curve"/>
      <point x="347" y="-219" type="line"/>
      <point x="432" y="-200" type="line"/>
      <point x="439" y="-2"/>
      <point x="446" y="88"/>
      <point x="445" y="215" type="curve"/>
      <point x="445" y="405"/>
      <point x="410" y="480"/>
      <point x="334" y="480" type="curve" smooth="yes"/>
      <point x="243" y="480"/>
      <point x="203" y="385"/>
      <point x="184" y="305" type="curve"/>
      <point x="177" y="305" type="line"/>
      <point x="180" y="415"/>
      <point x="168" y="477"/>
      <point x="103" y="477" type="curve" smooth="yes"/>
      <point x="35" y="477"/>
      <point x="5" y="421"/>
      <point x="-12" y="373" type="curve"/>
      <point x="6" y="362" type="line"/>
      <point x="20" y="381"/>
      <point x="36" y="406"/>
      <point x="74" y="406" type="curve" smooth="yes"/>
      <point x="109" y="406"/>
      <point x="124" y="366"/>
      <point x="124" y="293" type="curve" smooth="yes"/>
      <point x="124" y="279"/>
      <point x="122" y="256"/>
      <point x="122" y="251" type="curve"/>
    </contour>
  </outline>
</glyph>
<glyph name="omicron" format="2">
  <advance width="475"/>
  <unicode hex="03BF"/>
  <outline>
    <contour>
      <point x="394" y="233" type="curve" smooth="yes"/>
      <point x="394" y="118"/>
      <point x="316" y="69"/>
      <point x="229" y="69" type="curve" smooth="yes"/>
      <point x="166" y="69"/>
      <point x="80" y="107"/>
      <point x="80" y="222" type="curve" smooth="yes"/>
      <point x="80" y="319"/>
      <point x="140" y="394"/>
      <point x="247" y="394" type="curve" smooth="yes"/>
      <point x="340" y="394"/>
      <point x="394" y="332"/>
    </contour>
    <contour>
      <point x="253" y="481" type="curve" smooth="yes"/>
      <point x="109" y="481"/>
      <point x="34" y="364"/>
      <point x="34" y="220" type="curve" smooth="yes"/>
      <point x="34" y="52"/>
      <point x="124" y="-13"/>
      <point x="225" y="-13" type="curve" smooth="yes"/>
      <point x="356" y="-13"/>
      <point x="440" y="84"/>
      <point x="440" y="240" type="curve" smooth="yes"/>
      <point x="440" y="392"/>
      <point x="373" y="481"/>
    </contour>
  </outline>
</glyph>
<glyph name="pi" format="2">
  <advance width="591"/>
  <unicode hex="03C0"/>
  <outline>
    <contour>
      <point x="571" y="455" type="line"/>
      <point x="571" y="471" type="line"/>
      <point x="214" y="471" type="line" smooth="yes"/>
      <point x="110" y="471"/>
      <point x="44" y="438"/>
      <point x="18" y="346" type="curve"/>
      <point x="38" y="336" type="line"/>
      <point x="70" y="390"/>
      <point x="92" y="391"/>
      <point x="209" y="391" type="curve"/>
      <point x="198" y="304"/>
      <point x="183" y="247"/>
      <point x="142" y="159" type="curve" smooth="yes"/>
      <point x="111" y="91"/>
      <point x="103" y="79"/>
      <point x="66" y="15" type="curve"/>
      <point x="69" y="0" type="line"/>
      <point x="163" y="0" type="line"/>
      <point x="193" y="69"/>
      <point x="241" y="286"/>
      <point x="247" y="391" type="curve"/>
      <point x="395" y="391" type="line"/>
      <point x="378" y="300"/>
      <point x="352" y="188"/>
      <point x="352" y="106" type="curve" smooth="yes"/>
      <point x="352" y="41"/>
      <point x="378" y="-9"/>
      <point x="438" y="-9" type="curve" smooth="yes"/>
      <point x="499" y="-9"/>
      <point x="531" y="23"/>
      <point x="558" y="74" type="curve"/>
      <point x="542" y="88" type="line"/>
      <point x="528" y="75"/>
      <point x="513" y="61"/>
      <point x="477" y="61" type="curve" smooth="yes"/>
      <point x="435" y="61"/>
      <point x="419" y="104"/>
      <point x="419" y="175" type="curve" smooth="yes"/>
      <point x="419" y="248"/>
      <point x="432" y="354"/>
      <point x="438" y="391" type="curve"/>
      <point x="558" y="391" type="line"/>
    </contour>
  </outline>
</glyph>
<glyph name="tau" format="2">
  <advance width="392"/>
  <unicode hex="03C4"/>
  <outline>
    <contour>
      <point x="146" y="107" type="curve" smooth="yes"/>
      <point x="146" y="36"/>
      <point x="177" y="-9"/>
      <point x="232" y="-9" type="curve" smooth="yes"/>
      <point x="297" y="-9"/>
      <point x="326" y="27"/>
      <point x="352" y="74" type="curve"/>
      <point x="336" y="88" type="line"/>
      <point x="323" y="75"/>
      <point x="309" y="61"/>
      <point x="270" y="61" type="curve" smooth="yes"/>
      <point x="230" y="61"/>
      <point x="213" y="105"/>
      <point x="213" y="174" type="curve" smooth="yes"/>
      <point x="213" y="213"/>
      <point x="218" y="286"/>
      <point x="232" y="391" type="curve"/>
      <point x="383" y="391" type="line"/>
      <point x="397" y="455" type="line"/>
      <point x="396" y="471" type="line"/>
      <point x="178" y="471" type="line" smooth="yes"/>
      <point x="83" y="471"/>
      <point x="18" y="433"/>
      <point x="-9" y="345" type="curve"/>
      <point x="10" y="336" type="line"/>
      <point x="44" y="388"/>
      <point x="72" y="391"/>
      <point x="181" y="391" type="curve" smooth="yes"/>
      <point x="189" y="391" type="line"/>
      <point x="166" y="277"/>
      <point x="146" y="172"/>
    </contour>
  </outline>
</glyph>
<glyph name="Koppanumeric" format="2">
  <advance width="525"/>
  <unicode hex="03DE"/>
  <outline>
    <contour>
      <point x="25" y="312" type="line"/>
      <point x="25" y="288" type="line"/>
      <point x="414" y="288" type="line"/>
      <point x="318" y="129" type="line" smooth="yes"/>
      <point x="268" y="48"/>
      <point x="245" y="35"/>
      <point x="186" y="30" type="curve"/>
      <point x="186" y="0" type="line"/>
      <point x="404" y="0" type="line"/>
      <point x="404" y="30" type="line"/>
      <point x="353" y="30"/>
      <point x="340" y="39"/>
      <point x="340" y="57" type="curve" smooth="yes"/>
      <point x="340" y="72"/>
      <point x="346" y="86"/>
      <point x="353" y="97" type="curve" smooth="yes"/>
      <point x="500" y="346" type="line"/>
      <point x="500" y="372" type="line"/>
      <point x="113" y="372" type="line"/>
      <point x="211" y="529" type="line" smooth="yes"/>
      <point x="262" y="609"/>
      <point x="284" y="622"/>
      <point x="343" y="627" type="curve"/>
      <point x="343" y="657" type="line"/>
      <point x="125" y="657" type="line"/>
      <point x="125" y="627" type="line"/>
      <point x="176" y="627"/>
      <point x="189" y="618"/>
      <point x="189" y="600" type="curve" smooth="yes"/>
      <point x="189" y="585"/>
      <point x="184" y="572"/>
      <point x="177" y="561" type="curve" smooth="yes"/>
    </contour>
  </outline>
</glyph>
<glyph name="sampi" format="2">
  <advance width="458"/>
  <unicode hex="03E1"/>
  <outline>
    <contour>
      <point x="-5" y="610" type="curve" smooth="yes"/>
      <point x="83" y="555"/>
      <point x="182" y="497"/>
      <point x="255" y="394" type="curve"/>
      <point x="198" y="375"/>
      <point x="80" y="340"/>
      <point x="46" y="329" type="curve" smooth="yes"/>
      <point x="35" y="325"/>
      <point x="34" y="314"/>
      <point x="34" y="299" type="curve" smooth="yes"/>
      <point x="34" y="282"/>
      <point x="47" y="250"/>
      <point x="77" y="250" type="curve" smooth="yes"/>
      <point x="117" y="250"/>
      <point x="234" y="334"/>
      <point x="274" y="366" type="curve"/>
      <point x="301" y="322"/>
      <point x="323" y="271"/>
      <point x="338" y="210" type="curve"/>
      <point x="277" y="191"/>
      <point x="175" y="163"/>
      <point x="143" y="153" type="curve" smooth="yes"/>
      <point x="132" y="149"/>
      <point x="131" y="138"/>
      <point x="131" y="123" type="curve" smooth="yes"/>
      <point x="131" y="106"/>
      <point x="144" y="74"/>
      <point x="174" y="74" type="curve" smooth="yes"/>
      <point x="208" y="74"/>
      <point x="294" y="135"/>
      <point x="346" y="175" type="curve"/>
      <point x="356" y="125"/>
      <point x="362" y="69"/>
      <point x="362" y="6" type="curve" smooth="yes"/>
      <point x="362" y="-120"/>
      <point x="326" y="-210"/>
      <point x="326" y="-210" type="curve"/>
      <point x="358" y="-220" type="line"/>
      <point x="388" y="-154"/>
      <point x="417" y="-78"/>
      <point x="417" y="43" type="curve" smooth="yes"/>
      <point x="417" y="469"/>
      <point x="110" y="684"/>
      <point x="8" y="687" type="curve"/>
      <point x="-4" y="687"/>
      <point x="-19" y="675"/>
      <point x="-19" y="643" type="curve" smooth="yes"/>
      <point x="-19" y="632"/>
      <point x="-18" y="618"/>
    </contour>
  </outline>
</glyph>
<glyph name="epsilonlunate" format="2">
  <advance width="380"/>
  <unicode hex="03F5"/>
  <outline>
    <contour>
      <point x="223" y="406" type="curve" smooth="yes"/>
      <point x="269" y="406"/>
      <point x="300" y="394"/>
      <point x="330" y="379" type="curve"/>
      <point x="358" y="437" type="line"/>
      <point x="358" y="454" type="line"/>
      <point x="331" y="469"/>
      <point x="297" y="481"/>
      <point x="242" y="481" type="curve" smooth="yes"/>
      <point x="80" y="481"/>
      <point x="37" y="332"/>
      <point x="37" y="236" type="curve" smooth="yes"/>
      <point x="37" y="67"/>
      <point x="111" y="-14"/>
      <point x="213" y="-14" type="curve" smooth="yes"/>
      <point x="262" y="-14"/>
      <point x="351" y="2"/>
      <point x="351" y="67" type="curve" smooth="yes"/>
      <point x="351" y="87"/>
      <point x="342" y="102"/>
      <point x="332" y="115" type="curve"/>
      <point x="322" y="115" type="line"/>
      <point x="296" y="90"/>
      <point x="271" y="66"/>
      <point x="212" y="66" type="curve" smooth="yes"/>
      <point x="149" y="66"/>
      <point x="92" y="110"/>
      <point x="86" y="218" type="curve"/>
      <point x="145" y="216"/>
      <point x="203" y="208"/>
      <point x="249" y="208" type="curve" smooth="yes"/>
      <point x="284" y="208"/>
      <point x="297" y="227"/>
      <point x="297" y="247" type="curve" smooth="yes"/>
      <point x="297" y="255"/>
      <point x="295" y="261"/>
      <point x="292" y="268" type="curve"/>
      <point x="222" y="261"/>
      <point x="189" y="258"/>
      <point x="82" y="258" type="curve"/>
      <point x="80" y="322"/>
      <point x="104" y="406"/>
    </contour>
  </outline>
</glyph>
<glyph name="c.IeUkr" format="2">
  <advance width="668"/>
  <unicode hex="0404"/>
  <outline>
    <contour>
      <point x="605" y="149" type="line"/>
      <point x="548" y="87"/>
      <point x="475" y="51"/>
      <point x="380" y="51" type="curve" smooth="yes"/>
      <point x="244" y="51"/>
      <point x="156" y="119"/>
      <point x="151" y="316" type="curve"/>
      <point x="475" y="316" type="line"/>
      <point x="475" y="361" type="line"/>
      <point x="151" y="361" type="line"/>
      <point x="158" y="537"/>
      <point x="237" y="626"/>
      <point x="375" y="626" type="curve" smooth="yes"/>
      <point x="478" y="626"/>
      <point x="550" y="572"/>
      <point x="572" y="440" type="curve"/>
      <point x="606" y="440" type="line"/>
      <point x="606" y="669" type="line"/>
      <point x="576" y="669" type="line"/>
      <point x="564" y="649"/>
      <point x="558" y="633"/>
      <point x="542" y="633" type="curve" smooth="yes"/>
      <point x="516" y="633"/>
      <point x="480" y="669"/>
      <point x="375" y="669" type="curve" smooth="yes"/>
      <point x="183" y="669"/>
      <point x="49" y="556"/>
      <point x="49" y="329" type="curve" smooth="yes"/>
      <point x="49" y="127"/>
      <point x="155" y="-11"/>
      <point x="361" y="-11" type="curve" smooth="yes"/>
      <point x="492" y="-11"/>
      <point x="575" y="46"/>
      <point x="628" y="128" type="curve"/>
    </contour>
  </outline>
</glyph>
<glyph name="c.Dzhe" format="2">
  <advance width="759"/>
  <unicode hex="040F"/>
  <outline>
    <contour>
      <point x="724" y="657" type="line"/>
      <point x="445" y="657" type="line"/>
      <point x="445" y="627" type="line"/>
      <point x="525" y="627"/>
      <point x="534" y="604"/>
      <point x="534" y="542" type="curve" smooth="yes"/>
      <point x="534" y="43" type="line"/>
      <point x="225" y="43" type="line"/>
      <point x="225" y="537" type="line" smooth="yes"/>
      <point x="225" y="606"/>
      <point x="232" y="627"/>
      <point x="315" y="627" type="curve"/>
      <point x="315" y="657" type="line"/>
      <point x="36" y="657" type="line"/>
      <point x="36" y="627" type="line"/>
      <point x="109" y="627"/>
      <point x="133" y="616"/>
      <point x="133" y="540" type="curve" smooth="yes"/>
      <point x="133" y="121" type="line" smooth="yes"/>
      <point x="133" y="36"/>
      <point x="115" y="30"/>
      <point x="36" y="30" type="curve"/>
      <point x="36" y="0" type="line"/>
      <point x="364" y="0" type="line"/>
      <point x="334" y="-110"/>
      <point x="328" y="-133"/>
      <point x="328" y="-154" type="curve" smooth="yes"/>
      <point x="328" y="-184"/>
      <point x="340" y="-210"/>
      <point x="380" y="-210" type="curve" smooth="yes"/>
      <point x="419" y="-210"/>
      <point x="431" y="-184"/>
      <point x="431" y="-155" type="curve" smooth="yes"/>
      <point x="431" y="-131"/>
      <point x="424" y="-105"/>
      <point x="395" y="0" type="curve"/>
      <point x="725" y="0" type="line"/>
      <point x="724" y="30" type="line"/>
      <point x="638" y="30"/>
      <point x="626" y="36"/>
      <point x="626" y="127" type="curve" smooth="yes"/>
      <point x="626" y="542" type="line" smooth="yes"/>
      <point x="626" y="612"/>
      <point x="636" y="627"/>
      <point x="724" y="627" type="curve"/>
    </contour>
  </outline>
  <guideline angle="90" x="335" y="0"/>
  <guideline angle="90" x="439" y="0"/>
</glyph>
<glyph name="c.Ghe" format="2">
  <advance width="548"/>
  <unicode hex="0413"/>
  <outline>
    <contour>
      <point x="520" y="657" type="line"/>
      <point x="43" y="657" type="line"/>
      <point x="43" y="627" type="line"/>
      <point x="122" y="627"/>
      <point x="133" y="612"/>
      <point x="133" y="534" type="curve" smooth="yes"/>
      <point x="133" y="127" type="line" smooth="yes"/>
      <point x="133" y="50"/>
      <point x="122" y="30"/>
      <point x="43" y="30" type="curve"/>
      <point x="43" y="0" type="line"/>
      <point x="330" y="0" type="line"/>
      <point x="330" y="30" type="line"/>
      <point x="241" y="30"/>
      <point x="225" y="49"/>
      <point x="225" y="127" type="curve" smooth="yes"/>
      <point x="225" y="612" type="line"/>
      <point x="343" y="612" type="line" smooth="yes"/>
      <point x="461" y="612"/>
      <point x="478" y="584"/>
      <point x="494" y="456" type="curve"/>
      <point x="528" y="456" type="line"/>
    </contour>
  </outline>
</glyph>
<glyph name="c.Sha" format="2">
  <advance width="1053"/>
  <unicode hex="0428"/>
  <outline>
    <contour>
      <point x="482" y="43" type="line"/>
      <point x="222" y="43" type="line"/>
      <point x="222" y="525" type="line" smooth="yes"/>
      <point x="222" y="603"/>
      <point x="224" y="627"/>
      <point x="309" y="627" type="curve"/>
      <point x="309" y="657" type="line"/>
      <point x="35" y="657" type="line"/>
      <point x="35" y="627" type="line"/>
      <point x="130" y="627"/>
      <point x="133" y="603"/>
      <point x="133" y="525" type="curve" smooth="yes"/>
      <point x="133" y="131" type="line" smooth="yes"/>
      <point x="133" y="43"/>
      <point x="126" y="30"/>
      <point x="35" y="30" type="curve"/>
      <point x="35" y="0" type="line"/>
      <point x="1017" y="0" type="line"/>
      <point x="1017" y="30" type="line"/>
      <point x="928" y="30"/>
      <point x="920" y="47"/>
      <point x="920" y="131" type="curve" smooth="yes"/>
      <point x="920" y="525" type="line" smooth="yes"/>
      <point x="920" y="603"/>
      <point x="922" y="627"/>
      <point x="1017" y="627" type="curve"/>
      <point x="1017" y="657" type="line"/>
      <point x="742" y="657" type="line"/>
      <point x="742" y="627" type="line"/>
      <point x="827" y="627"/>
      <point x="831" y="603"/>
      <point x="831" y="525" type="curve" smooth="yes"/>
      <point x="831" y="45" type="line"/>
      <point x="571" y="45" type="line"/>
      <point x="571" y="525" type="line" smooth="yes"/>
      <point x="571" y="603"/>
      <point x="573" y="627"/>
      <point x="658" y="627" type="curve"/>
      <point x="658" y="657" type="line"/>
      <point x="393" y="657" type="line"/>
      <point x="393" y="627" type="line"/>
      <point x="478" y="627"/>
      <point x="482" y="603"/>
      <point x="482" y="525" type="curve" smooth="yes"/>
    </contour>
  </outline>
</glyph>
<glyph name="c.ze" format="2">
  <advance width="435"/>
  <unicode hex="0437"/>
  <outline>
    <contour>
      <point x="269" y="252" type="line"/>
      <point x="327" y="270"/>
      <point x="378" y="300"/>
      <point x="378" y="368" type="curve" smooth="yes"/>
      <point x="378" y="444"/>
      <point x="313" y="485"/>
      <point x="211" y="485" type="curve" smooth="yes"/>
      <point x="141" y="485"/>
      <point x="106" y="466"/>
      <point x="93" y="458" type="curve"/>
      <point x="91" y="458" type="line"/>
      <point x="70" y="481" type="line"/>
      <point x="48" y="481" type="line"/>
      <point x="46" y="320" type="line"/>
      <point x="73" y="320" type="line"/>
      <point x="88" y="403"/>
      <point x="117" y="450"/>
      <point x="193" y="450" type="curve" smooth="yes"/>
      <point x="263" y="450"/>
      <point x="290" y="409"/>
      <point x="290" y="354" type="curve" smooth="yes"/>
      <point x="290" y="285"/>
      <point x="248" y="267"/>
      <point x="170" y="267" type="curve" smooth="yes"/>
      <point x="144" y="267" type="line"/>
      <point x="144" y="223" type="line"/>
      <point x="176" y="223" type="line" smooth="yes"/>
      <point x="249" y="223"/>
      <point x="302" y="198"/>
      <point x="302" y="131" type="curve" smooth="yes"/>
      <point x="302" y="60"/>
      <point x="246" y="40"/>
      <point x="185" y="40" type="curve" smooth="yes"/>
      <point x="128" y="40"/>
      <point x="84" y="59"/>
      <point x="44" y="102" type="curve"/>
      <point x="23" y="84" type="line"/>
      <point x="57" y="23"/>
      <point x="124" y="-10"/>
      <point x="202" y="-10" type="curve" smooth="yes"/>
      <point x="278" y="-10"/>
      <point x="395" y="23"/>
      <point x="395" y="125" type="curve" smooth="yes"/>
      <point x="395" y="196"/>
      <point x="338" y="237"/>
      <point x="269" y="248" type="curve"/>
    </contour>
  </outline>
</glyph>
<glyph name="c.i" format="2">
  <advance width="609"/>
  <unicode hex="0438"/>
  <outline>
    <contour>
      <point x="575" y="473" type="line"/>
      <point x="357" y="473" type="line"/>
      <point x="357" y="444" type="line"/>
      <point x="411" y="444"/>
      <point x="422" y="437"/>
      <point x="422" y="389" type="curve"/>
      <point x="188" y="135" type="line"/>
      <point x="186" y="135" type="line"/>
      <point x="186" y="379" type="line" smooth="yes"/>
      <point x="186" y="436"/>
      <point x="193" y="444"/>
      <point x="252" y="444" type="curve"/>
      <point x="252" y="473" type="line"/>
      <point x="33" y="473" type="line"/>
      <point x="33" y="444" type="line"/>
      <point x="95" y="444"/>
      <point x="102" y="435"/>
      <point x="102" y="381" type="curve" smooth="yes"/>
      <point x="102" y="91" type="line" smooth="yes"/>
      <point x="102" y="38"/>
      <point x="88" y="28"/>
      <point x="32" y="28" type="curve"/>
      <point x="32" y="0" type="line"/>
      <point x="252" y="0" type="line"/>
      <point x="252" y="28" type="line"/>
      <point x="198" y="28"/>
      <point x="186" y="41"/>
      <point x="186" y="81" type="curve"/>
      <point x="420" y="333" type="line"/>
      <point x="422" y="333" type="line"/>
      <point x="422" y="91" type="line" smooth="yes"/>
      <point x="422" y="38"/>
      <point x="410" y="28"/>
      <point x="357" y="28" type="curve"/>
      <point x="357" y="0" type="line"/>
      <point x="574" y="0" type="line"/>
      <point x="574" y="28" type="line"/>
      <point x="523" y="28"/>
      <point x="507" y="38"/>
      <point x="507" y="91" type="curve" smooth="yes"/>
      <point x="507" y="374" type="line" smooth="yes"/>
      <point x="507" y="436"/>
      <point x="518" y="444"/>
      <point x="575" y="444" type="curve"/>
    </contour>
  </outline>
</glyph>
<glyph name="c.ishort" format="2">
  <advance width="609"/>
  <unicode hex="0439"/>
  <outline>
    <contour>
      <point x="575" y="473" type="line"/>
      <point x="357" y="473" type="line"/>
      <point x="357" y="444" type="line"/>
      <point x="411" y="444"/>
      <point x="422" y="437"/>
      <point x="422" y="389" type="curve"/>
      <point x="188" y="135" type="line"/>
      <point x="186" y="135" type="line"/>
      <point x="186" y="379" type="line" smooth="yes"/>
      <point x="186" y="436"/>
      <point x="193" y="444"/>
      <point x="252" y="444" type="curve"/>
      <point x="252" y="473" type="line"/>
      <point x="33" y="473" type="line"/>
      <point x="33" y="444" type="line"/>
      <point x="95" y="444"/>
      <point x="102" y="435"/>
      <point x="102" y="381" type="curve" smooth="yes"/>
      <point x="102" y="91" type="line" smooth="yes"/>
      <point x="102" y="38"/>
      <point x="88" y="28"/>
      <point x="32" y="28" type="curve"/>
      <point x="32" y="0" type="line"/>
      <point x="252" y="0" type="line"/>
      <point x="252" y="28" type="line"/>
      <point x="198" y="28"/>
      <point x="186" y="41"/>
      <point x="186" y="81" type="curve"/>
      <point x="420" y="333" type="line"/>
      <point x="422" y="333" type="line"/>
      <point x="422" y="91" type="line" smooth="yes"/>
      <point x="422" y="38"/>
      <point x="410" y="28"/>
      <point x="357" y="28" type="curve"/>
      <point x="357" y="0" type="line"/>
      <point x="574" y="0" type="line"/>
      <point x="574" y="28" type="line"/>
      <point x="523" y="28"/>
      <point x="507" y="38"/>
      <point x="507" y="91" type="curve" smooth="yes"/>
      <point x="507" y="374" type="line" smooth="yes"/>
      <point x="507" y="436"/>
      <point x="518" y="444"/>
      <point x="575" y="444" type="curve"/>
    </contour>
    <contour>
      <point x="304" y="561" type="curve" smooth="yes"/>
      <point x="228" y="561"/>
      <point x="216" y="586"/>
      <point x="216" y="602" type="curve" smooth="yes"/>
      <point x="216" y="624"/>
      <point x="240" y="629"/>
      <point x="240" y="656" type="curve" smooth="yes"/>
      <point x="240" y="681"/>
      <point x="221" y="694"/>
      <point x="197" y="694" type="curve" smooth="yes"/>
      <point x="164" y="694"/>
      <point x="136" y="672"/>
      <point x="136" y="631" type="curve" smooth="yes"/>
      <point x="136" y="557"/>
      <point x="224" y="529"/>
      <point x="304" y="529" type="curve" smooth="yes"/>
      <point x="383" y="529"/>
      <point x="472" y="557"/>
      <point x="472" y="631" type="curve" smooth="yes"/>
      <point x="472" y="673"/>
      <point x="442" y="694"/>
      <point x="411" y="694" type="curve" smooth="yes"/>
      <point x="387" y="694"/>
      <point x="367" y="682"/>
      <point x="367" y="656" type="curve" smooth="yes"/>
      <point x="367" y="628"/>
      <point x="391" y="625"/>
      <point x="391" y="601" type="curve" smooth="yes"/>
      <point x="391" y="587"/>
      <point x="380" y="561"/>
    </contour>
  </outline>
  <guideline angle="90" x="365" y="0"/>
</glyph>
<glyph name="c.ka" format="2">
  <advance width="521"/>
  <unicode hex="043A"/>
  <outline>
    <contour>
      <point x="255" y="28" type="line"/>
      <point x="194" y="28"/>
      <point x="186" y="36"/>
      <point x="186" y="97" type="curve" smooth="yes"/>
      <point x="186" y="224" type="line"/>
      <point x="215" y="224" type="line" smooth="yes"/>
      <point x="237" y="224"/>
      <point x="251" y="222"/>
      <point x="263" y="201" type="curve" smooth="yes"/>
      <point x="302" y="136"/>
      <point x="350" y="54"/>
      <point x="380" y="0" type="curve"/>
      <point x="529" y="0" type="line"/>
      <point x="529" y="27" type="line"/>
      <point x="467" y="29"/>
      <point x="463" y="33"/>
      <point x="440" y="67" type="curve" smooth="yes"/>
      <point x="362" y="185"/>
      <point x="344" y="219"/>
      <point x="314" y="249" type="curve"/>
      <point x="314" y="251" type="line"/>
      <point x="341" y="281"/>
      <point x="350" y="303"/>
      <point x="361" y="345" type="curve" smooth="yes"/>
      <point x="372" y="391"/>
      <point x="388" y="405"/>
      <point x="405" y="405" type="curve" smooth="yes"/>
      <point x="427" y="405"/>
      <point x="436" y="382"/>
      <point x="464" y="382" type="curve" smooth="yes"/>
      <point x="493" y="382"/>
      <point x="509" y="402"/>
      <point x="509" y="427" type="curve" smooth="yes"/>
      <point x="509" y="463"/>
      <point x="478" y="482"/>
      <point x="441" y="482" type="curve" smooth="yes"/>
      <point x="366" y="482"/>
      <point x="340" y="413"/>
      <point x="324" y="356" type="curve" smooth="yes"/>
      <point x="303" y="282"/>
      <point x="284" y="258"/>
      <point x="234" y="258" type="curve" smooth="yes"/>
      <point x="186" y="258" type="line"/>
      <point x="186" y="377" type="line" smooth="yes"/>
      <point x="186" y="429"/>
      <point x="193" y="444"/>
      <point x="255" y="444" type="curve"/>
      <point x="255" y="473" type="line"/>
      <point x="31" y="473" type="line"/>
      <point x="31" y="444" type="line"/>
      <point x="97" y="444"/>
      <point x="102" y="429"/>
      <point x="102" y="377" type="curve" smooth="yes"/>
      <point x="102" y="97" type="line" smooth="yes"/>
      <point x="102" y="36"/>
      <point x="94" y="28"/>
      <point x="30" y="28" type="curve"/>
      <point x="30" y="0" type="line"/>
      <point x="255" y="0" type="line"/>
    </contour>
  </outline>
</glyph>
<glyph name="c.yeru" format="2">
  <advance width="728"/>
  <unicode hex="044B"/>
  <outline>
    <contour>
      <point x="626" y="371" type="line" smooth="yes"/>
      <point x="626" y="428"/>
      <point x="632" y="444"/>
      <point x="695" y="444" type="curve"/>
      <point x="695" y="473" type="line"/>
      <point x="475" y="473" type="line"/>
      <point x="475" y="444" type="line"/>
      <point x="542" y="444"/>
      <point x="543" y="432"/>
      <point x="543" y="371" type="curve" smooth="yes"/>
      <point x="543" y="97" type="line" smooth="yes"/>
      <point x="543" y="37"/>
      <point x="538" y="28"/>
      <point x="475" y="28" type="curve"/>
      <point x="475" y="0" type="line"/>
      <point x="695" y="0" type="line"/>
      <point x="695" y="28" type="line"/>
      <point x="631" y="28"/>
      <point x="626" y="37"/>
      <point x="626" y="100" type="curve" smooth="yes"/>
    </contour>
    <contour>
      <point x="33" y="444" type="line"/>
      <point x="96" y="444"/>
      <point x="102" y="436"/>
      <point x="102" y="376" type="curve" smooth="yes"/>
      <point x="102" y="96" type="line" smooth="yes"/>
      <point x="102" y="42"/>
      <point x="93" y="28"/>
      <point x="32" y="28" type="curve"/>
      <point x="32" y="0" type="line"/>
      <point x="250" y="0" type="line" smooth="yes"/>
      <point x="385" y="0"/>
      <point x="451" y="56"/>
      <point x="451" y="141" type="curve" smooth="yes"/>
      <point x="451" y="222"/>
      <point x="393" y="274"/>
      <point x="268" y="274" type="curve" smooth="yes"/>
      <point x="239" y="274"/>
      <point x="209" y="271"/>
      <point x="186" y="270" type="curve"/>
      <point x="186" y="376" type="line" smooth="yes"/>
      <point x="186" y="435"/>
      <point x="192" y="444"/>
      <point x="258" y="444" type="curve"/>
      <point x="258" y="473" type="line"/>
      <point x="33" y="473" type="line"/>
    </contour>
    <contour>
      <point x="186" y="234" type="line"/>
      <point x="200" y="235"/>
      <point x="218" y="237"/>
      <point x="238" y="237" type="curve" smooth="yes"/>
      <point x="312" y="237"/>
      <point x="360" y="208"/>
      <point x="360" y="135" type="curve" smooth="yes"/>
      <point x="360" y="53"/>
      <point x="295" y="36"/>
      <point x="239" y="36" type="curve" smooth="yes"/>
      <point x="220" y="36"/>
      <point x="205" y="36"/>
      <point x="186" y="38" type="curve"/>
    </contour>
  </outline>
</glyph>
<glyph name="c.ya" format="2">
  <advance width="518"/>
  <unicode hex="044F"/>
  <outline>
    <contour>
      <point x="61" y="353" type="curve" smooth="yes"/>
      <point x="61" y="270"/>
      <point x="129" y="241"/>
      <point x="192" y="230" type="curve"/>
      <point x="192" y="227" type="line"/>
      <point x="163" y="208"/>
      <point x="144" y="176"/>
      <point x="108" y="108" type="curve" smooth="yes"/>
      <point x="69" y="35"/>
      <point x="60" y="28"/>
      <point x="-5" y="27" type="curve"/>
      <point x="-5" y="0" type="line"/>
      <point x="151" y="0" type="line"/>
      <point x="194" y="93"/>
      <point x="240" y="179"/>
      <point x="253" y="197" type="curve" smooth="yes"/>
      <point x="266" y="215"/>
      <point x="280" y="219"/>
      <point x="312" y="219" type="curve" smooth="yes"/>
      <point x="332" y="219" type="line"/>
      <point x="332" y="94" type="line" smooth="yes"/>
      <point x="332" y="35"/>
      <point x="326" y="28"/>
      <point x="260" y="28" type="curve"/>
      <point x="260" y="0" type="line"/>
      <point x="490" y="0" type="line"/>
      <point x="490" y="28" type="line"/>
      <point x="430" y="28"/>
      <point x="416" y="34"/>
      <point x="416" y="94" type="curve" smooth="yes"/>
      <point x="416" y="392" type="line" smooth="yes"/>
      <point x="416" y="437"/>
      <point x="428" y="444"/>
      <point x="487" y="444" type="curve"/>
      <point x="487" y="475" type="line"/>
      <point x="261" y="475" type="line" smooth="yes"/>
      <point x="157" y="475"/>
      <point x="61" y="451"/>
    </contour>
    <contour>
      <point x="332" y="253" type="line"/>
      <point x="298" y="253" type="line" smooth="yes"/>
      <point x="216" y="253"/>
      <point x="150" y="282"/>
      <point x="150" y="353" type="curve" smooth="yes"/>
      <point x="150" y="406"/>
      <point x="189" y="439"/>
      <point x="280" y="439" type="curve" smooth="yes"/>
      <point x="298" y="439"/>
      <point x="320" y="439"/>
      <point x="332" y="437" type="curve"/>
    </contour>
  </outline>
</glyph>
<glyph name="c.ieUkr" format="2">
  <advance width="460"/>
  <unicode hex="0454"/>
  <outline>
    <contour>
      <point x="250" y="448" type="curve" smooth="yes"/>
      <point x="348" y="448"/>
      <point x="312" y="338"/>
      <point x="383" y="338" type="curve" smooth="yes"/>
      <point x="410" y="338"/>
      <point x="424" y="354"/>
      <point x="424" y="380" type="curve" smooth="yes"/>
      <point x="424" y="434"/>
      <point x="370" y="485"/>
      <point x="263" y="485" type="curve" smooth="yes"/>
      <point x="126" y="485"/>
      <point x="34" y="398"/>
      <point x="34" y="234" type="curve" smooth="yes"/>
      <point x="34" y="85"/>
      <point x="110" y="-9"/>
      <point x="250" y="-9" type="curve" smooth="yes"/>
      <point x="350" y="-9"/>
      <point x="395" y="39"/>
      <point x="436" y="99" type="curve"/>
      <point x="416" y="117" type="line"/>
      <point x="374" y="72"/>
      <point x="330" y="52"/>
      <point x="268" y="52" type="curve" smooth="yes"/>
      <point x="174" y="52"/>
      <point x="129" y="98"/>
      <point x="125" y="225" type="curve"/>
      <point x="331" y="225" type="line"/>
      <point x="331" y="267" type="line"/>
      <point x="125" y="267" type="line"/>
      <point x="128" y="363"/>
      <point x="154" y="448"/>
    </contour>
  </outline>
</glyph>
<glyph name="c.ushort" format="2">
  <advance width="483"/>
  <unicode hex="045E"/>
  <outline>
    <contour>
      <point x="493" y="473" type="line"/>
      <point x="323" y="473" type="line"/>
      <point x="323" y="444" type="line"/>
      <point x="356" y="444"/>
      <point x="379" y="439"/>
      <point x="379" y="419" type="curve" smooth="yes"/>
      <point x="379" y="411"/>
      <point x="376" y="402"/>
      <point x="374" y="394" type="curve"/>
      <point x="278" y="101" type="line"/>
      <point x="271" y="101" type="line"/>
      <point x="257" y="153" type="line"/>
      <point x="159" y="373" type="line" smooth="yes"/>
      <point x="153" y="387"/>
      <point x="145" y="404"/>
      <point x="145" y="416" type="curve" smooth="yes"/>
      <point x="145" y="434"/>
      <point x="157" y="443"/>
      <point x="202" y="443" type="curve"/>
      <point x="202" y="473" type="line"/>
      <point x="-12" y="473" type="line"/>
      <point x="-12" y="444" type="line"/>
      <point x="24" y="444"/>
      <point x="38" y="431"/>
      <point x="48" y="408" type="curve" smooth="yes"/>
      <point x="195" y="87" type="line" smooth="yes"/>
      <point x="207" y="60"/>
      <point x="225" y="18"/>
      <point x="225" y="5" type="curve" smooth="yes"/>
      <point x="225" y="-24"/>
      <point x="168" y="-148"/>
      <point x="136" y="-148" type="curve" smooth="yes"/>
      <point x="111" y="-148"/>
      <point x="90" y="-126"/>
      <point x="55" y="-126" type="curve" smooth="yes"/>
      <point x="28" y="-126"/>
      <point x="8" y="-139"/>
      <point x="8" y="-169" type="curve" smooth="yes"/>
      <point x="8" y="-207"/>
      <point x="37" y="-221"/>
      <point x="82" y="-221" type="curve" smooth="yes"/>
      <point x="163" y="-221"/>
      <point x="212" y="-169"/>
      <point x="268" y="-22" type="curve" smooth="yes"/>
      <point x="424" y="388" type="line"/>
      <point x="438" y="427"/>
      <point x="453" y="444"/>
      <point x="493" y="444" type="curve"/>
    </contour>
    <contour>
      <point x="259" y="561" type="curve" smooth="yes"/>
      <point x="183" y="561"/>
      <point x="171" y="586"/>
      <point x="171" y="602" type="curve" smooth="yes"/>
      <point x="171" y="624"/>
      <point x="195" y="629"/>
      <point x="195" y="656" type="curve" smooth="yes"/>
      <point x="195" y="681"/>
      <point x="176" y="694"/>
      <point x="152" y="694" type="curve" smooth="yes"/>
      <point x="119" y="694"/>
      <point x="91" y="672"/>
      <point x="91" y="631" type="curve" smooth="yes"/>
      <point x="91" y="557"/>
      <point x="179" y="529"/>
      <point x="259" y="529" type="curve" smooth="yes"/>
      <point x="338" y="529"/>
      <point x="427" y="557"/>
      <point x="427" y="631" type="curve" smooth="yes"/>
      <point x="427" y="673"/>
      <point x="397" y="694"/>
      <point x="366" y="694" type="curve" smooth="yes"/>
      <point x="342" y="694"/>
      <point x="322" y="682"/>
      <point x="322" y="656" type="curve" smooth="yes"/>
      <point x="322" y="628"/>
      <point x="346" y="625"/>
      <point x="346" y="601" type="curve" smooth="yes"/>
      <point x="346" y="587"/>
      <point x="335" y="561"/>
    </contour>
  </outline>
</glyph>
<glyph name="c.fita" format="2">
  <advance width="514"/>
  <unicode hex="0473"/>
  <outline>
    <contour>
      <point x="260" y="485" type="curve" smooth="yes"/>
      <point x="124" y="485"/>
      <point x="34" y="390"/>
      <point x="34" y="234" type="curve" smooth="yes"/>
      <point x="34" y="81"/>
      <point x="121" y="-10"/>
      <point x="255" y="-10" type="curve" smooth="yes"/>
      <point x="389" y="-10"/>
      <point x="480" y="83"/>
      <point x="480" y="242" type="curve" smooth="yes"/>
      <point x="480" y="398"/>
      <point x="395" y="485"/>
    </contour>
    <contour>
      <point x="264" y="29" type="curve" smooth="yes"/>
      <point x="179" y="29"/>
      <point x="130" y="85"/>
      <point x="125" y="219" type="curve"/>
      <point x="141" y="230"/>
      <point x="155" y="237"/>
      <point x="175" y="237" type="curve" smooth="yes"/>
      <point x="222" y="237"/>
      <point x="256" y="193"/>
      <point x="305" y="193" type="curve" smooth="yes"/>
      <point x="339" y="193"/>
      <point x="368" y="213"/>
      <point x="388" y="232" type="curve"/>
      <point x="391" y="232" type="line"/>
      <point x="386" y="70"/>
      <point x="337" y="29"/>
    </contour>
    <contour>
      <point x="255" y="448" type="curve" smooth="yes"/>
      <point x="342" y="448"/>
      <point x="386" y="373"/>
      <point x="391" y="267" type="curve"/>
      <point x="372" y="256"/>
      <point x="357" y="251"/>
      <point x="341" y="251" type="curve" smooth="yes"/>
      <point x="297" y="251"/>
      <point x="259" y="293"/>
      <point x="211" y="293" type="curve" smooth="yes"/>
      <point x="176" y="293"/>
      <point x="147" y="272"/>
      <point x="127" y="253" type="curve"/>
      <point x="124" y="253" type="line"/>
      <point x="128" y="393"/>
      <point x="182" y="448"/>
    </contour>
  </outline>
</glyph>
<glyph name="lpalatal" format="2">
  <advance width="283"/>
  <unicode hex="1D85"/>
  <outline>
    <contour>
      <point x="260" y="29" type="line"/>
      <point x="188" y="29"/>
      <point x="183" y="43"/>
      <point x="183" y="101" type="curve" smooth="yes"/>
      <point x="183" y="706" type="line"/>
      <point x="158" y="706" type="line"/>
      <point x="26" y="671" type="line"/>
      <point x="26" y="644" type="line"/>
      <point x="26" y="644"/>
      <point x="41" y="646"/>
      <point x="58" y="646" type="curve" smooth="yes"/>
      <point x="83" y="646"/>
      <point x="100" y="644"/>
      <point x="100" y="603" type="curve" smooth="yes"/>
      <point x="100" y="101" type="line" smooth="yes"/>
      <point x="100" y="45"/>
      <point x="96" y="29"/>
      <point x="30" y="29" type="curve"/>
      <point x="30" y="0" type="line"/>
      <point x="216" y="0" type="line"/>
      <point x="216" y="-79" type="line" smooth="yes"/>
      <point x="216" y="-170"/>
      <point x="186" y="-198"/>
      <point x="157" y="-198" type="curve" smooth="yes"/>
      <point x="122" y="-198"/>
      <point x="126" y="-131"/>
      <point x="81" y="-131" type="curve" smooth="yes"/>
      <point x="64" y="-131"/>
      <point x="48" y="-141"/>
      <point x="48" y="-166" type="curve" smooth="yes"/>
      <point x="48" y="-204"/>
      <point x="81" y="-235"/>
      <point x="137" y="-235" type="curve" smooth="yes"/>
      <point x="238" y="-235"/>
      <point x="259" y="-148"/>
      <point x="260" y="-51" type="curve"/>
    </contour>
  </outline>
</glyph>
<glyph name="hturnedraised" format="2">
  <advance width="488"/>
  <unicode hex="1DA3"/>
  <outline>
    <contour>
      <point x="330" y="344" type="line"/>
      <point x="291" y="310"/>
      <point x="263" y="297"/>
      <point x="233" y="297" type="curve" smooth="yes"/>
      <point x="162" y="297"/>
      <point x="155" y="355"/>
      <point x="155" y="422" type="curve" smooth="yes"/>
      <point x="155" y="552" type="line" smooth="yes"/>
      <point x="155" y="589"/>
      <point x="159" y="605"/>
      <point x="213" y="605" type="curve"/>
      <point x="213" y="633" type="line"/>
      <point x="23" y="633" type="line"/>
      <point x="23" y="605" type="line"/>
      <point x="70" y="605"/>
      <point x="82" y="590"/>
      <point x="82" y="551" type="curve" smooth="yes"/>
      <point x="82" y="386" type="line" smooth="yes"/>
      <point x="82" y="323"/>
      <point x="103" y="242"/>
      <point x="201" y="242" type="curve" smooth="yes"/>
      <point x="240" y="242"/>
      <point x="276" y="257"/>
      <point x="326" y="303" type="curve"/>
      <point x="330" y="303" type="line"/>
      <point x="330" y="81" type="line"/>
      <point x="362" y="81" type="line"/>
      <point x="464" y="98" type="line"/>
      <point x="464" y="127" type="line"/>
      <point x="464" y="127"/>
      <point x="454" y="125"/>
      <point x="441" y="125" type="curve" smooth="yes"/>
      <point x="420" y="125"/>
      <point x="403" y="128"/>
      <point x="403" y="156" type="curve" smooth="yes"/>
      <point x="403" y="554" type="line" smooth="yes"/>
      <point x="403" y="598"/>
      <point x="419" y="605"/>
      <point x="459" y="605" type="curve"/>
      <point x="459" y="633" type="line"/>
      <point x="271" y="633" type="line"/>
      <point x="271" y="605" type="line"/>
      <point x="325" y="605"/>
      <point x="330" y="591"/>
      <point x="330" y="552" type="curve" smooth="yes"/>
    </contour>
  </outline>
</glyph>
<glyph name="ZWNJ" format="2">
  <unicode hex="200C"/>
  <outline>
    <contour>
      <point x="-13" y="773" type="line"/>
      <point x="-13" y="-262" type="line"/>
      <point x="13" y="-262" type="line"/>
      <point x="13" y="773" type="line"/>
    </contour>
  </outline>
</glyph>
<glyph name="quotesinglbase" format="2">
  <advance width="243"/>
  <unicode hex="201A"/>
  <outline>
    <contour>
      <point x="63" y="-126" type="line"/>
      <point x="105" y="-108"/>
      <point x="186" y="-77"/>
      <point x="186" y="32" type="curve" smooth="yes"/>
      <point x="186" y="84"/>
      <point x="160" y="117"/>
      <point x="110" y="117" type="curve" smooth="yes"/>
      <point x="70" y="117"/>
      <point x="48" y="90"/>
      <point x="48" y="58" type="curve" smooth="yes"/>
      <point x="48" y="30"/>
      <point x="64" y="5"/>
      <point x="103" y="5" type="curve" smooth="yes"/>
      <point x="114" y="5"/>
      <point x="122" y="6"/>
      <point x="134" y="11" type="curve"/>
      <point x="134" y="-62"/>
      <point x="88" y="-86"/>
      <point x="51" y="-101" type="curve"/>
    </contour>
  </outline>
</glyph>
<glyph name="daggerdbl" format="2">
  <advance width="512"/>
  <unicode hex="2021"/>
  <outline>
    <contour>
      <point x="452" y="456" type="curve" smooth="yes"/>
      <point x="452" y="483"/>
      <point x="435" y="503"/>
      <point x="413" y="503" type="curve" smooth="yes"/>
      <point x="400" y="503"/>
      <point x="383" y="497"/>
      <point x="362" y="489" type="curve" smooth="yes"/>
      <point x="319" y="472"/>
      <point x="304" y="468"/>
      <point x="267" y="467" type="curve"/>
      <point x="267" y="522"/>
      <point x="271" y="546"/>
      <point x="292" y="598" type="curve" smooth="yes"/>
      <point x="300" y="618"/>
      <point x="304" y="635"/>
      <point x="304" y="646" type="curve" smooth="yes"/>
      <point x="304" y="669"/>
      <point x="280" y="692"/>
      <point x="256" y="692" type="curve" smooth="yes"/>
      <point x="232" y="692"/>
      <point x="209" y="669"/>
      <point x="209" y="646" type="curve" smooth="yes"/>
      <point x="209" y="635"/>
      <point x="213" y="618"/>
      <point x="221" y="598" type="curve" smooth="yes"/>
      <point x="241" y="546"/>
      <point x="244" y="522"/>
      <point x="244" y="467" type="curve"/>
      <point x="209" y="468"/>
      <point x="193" y="472"/>
      <point x="150" y="489" type="curve" smooth="yes"/>
      <point x="130" y="497"/>
      <point x="112" y="503"/>
      <point x="100" y="503" type="curve" smooth="yes"/>
      <point x="78" y="503"/>
      <point x="60" y="483"/>
      <point x="60" y="457" type="curve" smooth="yes"/>
      <point x="60" y="429"/>
      <point x="76" y="413"/>
      <point x="105" y="413" type="curve" smooth="yes"/>
      <point x="118" y="413"/>
      <point x="128" y="415"/>
      <point x="152" y="426" type="curve"/>
      <point x="192" y="441"/>
      <point x="209" y="445"/>
      <point x="244" y="448" type="curve"/>
      <point x="244" y="358"/>
      <point x="234" y="306"/>
      <point x="204" y="266" type="curve"/>
      <point x="233" y="238"/>
      <point x="244" y="187"/>
      <point x="244" y="87" type="curve"/>
      <point x="209" y="90"/>
      <point x="194" y="93"/>
      <point x="151" y="109" type="curve"/>
      <point x="130" y="118"/>
      <point x="111" y="122"/>
      <point x="98" y="122" type="curve" smooth="yes"/>
      <point x="76" y="122"/>
      <point x="59" y="103"/>
      <point x="59" y="79" type="curve" smooth="yes"/>
      <point x="59" y="52"/>
      <point x="76" y="33"/>
      <point x="99" y="33" type="curve" smooth="yes"/>
      <point x="111" y="33"/>
      <point x="129" y="38"/>
      <point x="149" y="46" type="curve" smooth="yes"/>
      <point x="192" y="63"/>
      <point x="208" y="67"/>
      <point x="244" y="68" type="curve"/>
      <point x="244" y="13"/>
      <point x="240" y="-10"/>
      <point x="220" y="-63" type="curve" smooth="yes"/>
      <point x="212" y="-83"/>
      <point x="208" y="-100"/>
      <point x="208" y="-111" type="curve" smooth="yes"/>
      <point x="208" y="-134"/>
      <point x="231" y="-157"/>
      <point x="255" y="-157" type="curve" smooth="yes"/>
      <point x="279" y="-157"/>
      <point x="303" y="-134"/>
      <point x="303" y="-111" type="curve" smooth="yes"/>
      <point x="303" y="-100"/>
      <point x="299" y="-83"/>
      <point x="291" y="-63" type="curve" smooth="yes"/>
      <point x="270" y="-10"/>
      <point x="267" y="13"/>
      <point x="267" y="68" type="curve"/>
      <point x="304" y="67"/>
      <point x="318" y="63"/>
      <point x="361" y="46" type="curve" smooth="yes"/>
      <point x="382" y="38"/>
      <point x="400" y="33"/>
      <point x="411" y="33" type="curve" smooth="yes"/>
      <point x="434" y="33"/>
      <point x="451" y="52"/>
      <point x="451" y="77" type="curve" smooth="yes"/>
      <point x="451" y="103"/>
      <point x="435" y="122"/>
      <point x="412" y="122" type="curve" smooth="yes"/>
      <point x="399" y="122"/>
      <point x="380" y="118"/>
      <point x="359" y="109" type="curve"/>
      <point x="316" y="93"/>
      <point x="302" y="90"/>
      <point x="267" y="87" type="curve"/>
      <point x="267" y="187"/>
      <point x="276" y="230"/>
      <point x="308" y="266" type="curve"/>
      <point x="276" y="304"/>
      <point x="267" y="350"/>
      <point x="267" y="448" type="curve"/>
      <point x="303" y="445"/>
      <point x="317" y="442"/>
      <point x="360" y="426" type="curve" smooth="yes"/>
      <point x="382" y="418"/>
      <point x="400" y="413"/>
      <point x="414" y="413" type="curve" smooth="yes"/>
      <point x="436" y="413"/>
      <point x="452" y="432"/>
    </contour>
  </outline>
</glyph>
<glyph name="second" format="2">
  <advance width="436"/>
  <unicode hex="2033"/>
  <outline>
    <contour>
      <point x="206" y="414" type="line"/>
      <point x="239" y="399" type="line"/>
      <point x="357" y="624" type="line"/>
      <point x="362" y="636"/>
      <point x="368" y="648"/>
      <point x="368" y="661" type="curve" smooth="yes"/>
      <point x="368" y="684"/>
      <point x="356" y="703"/>
      <point x="331" y="703" type="curve" smooth="yes"/>
      <point x="294" y="703"/>
      <point x="284" y="679"/>
      <point x="275" y="651" type="curve"/>
    </contour>
    <contour>
      <point x="66" y="413" type="line"/>
      <point x="99" y="398" type="line"/>
      <point x="217" y="623" type="line"/>
      <point x="222" y="635"/>
      <point x="228" y="647"/>
      <point x="228" y="660" type="curve" smooth="yes"/>
      <point x="228" y="683"/>
      <point x="216" y="703"/>
      <point x="190" y="703" type="curve" smooth="yes"/>
      <point x="155" y="703"/>
      <point x="143" y="676"/>
      <point x="135" y="650" type="curve" smooth="yes"/>
    </contour>
  </outline>
</glyph>
<glyph name="primetriple" format="2">
  <advance width="576"/>
  <unicode hex="2034"/>
  <outline>
    <contour>
      <point x="346" y="414" type="line"/>
      <point x="380" y="399" type="line"/>
      <point x="497" y="624" type="line"/>
      <point x="502" y="636"/>
      <point x="508" y="648"/>
      <point x="508" y="661" type="curve" smooth="yes"/>
      <point x="508" y="684"/>
      <point x="496" y="703"/>
      <point x="471" y="703" type="curve" smooth="yes"/>
      <point x="435" y="703"/>
      <point x="424" y="679"/>
      <point x="416" y="650" type="curve"/>
      <point x="416" y="651" type="line"/>
    </contour>
    <contour>
      <point x="206" y="414" type="line"/>
      <point x="239" y="399" type="line"/>
      <point x="357" y="624" type="line"/>
      <point x="362" y="636"/>
      <point x="368" y="648"/>
      <point x="368" y="661" type="curve" smooth="yes"/>
      <point x="368" y="684"/>
      <point x="356" y="703"/>
      <point x="331" y="703" type="curve" smooth="yes"/>
      <point x="294" y="703"/>
      <point x="284" y="679"/>
      <point x="275" y="651" type="curve"/>
    </contour>
    <contour>
      <point x="66" y="413" type="line"/>
      <point x="99" y="398" type="line"/>
      <point x="217" y="623" type="line"/>
      <point x="222" y="635"/>
      <point x="228" y="647"/>
      <point x="228" y="660" type="curve" smooth="yes"/>
      <point x="228" y="683"/>
      <point x="216" y="703"/>
      <point x="190" y="703" type="curve" smooth="yes"/>
      <point x="155" y="703"/>
      <point x="143" y="676"/>
      <point x="135" y="650" type="curve" smooth="yes"/>
    </contour>
  </outline>
</glyph>
<glyph name="primereversed" format="2">
  <advance width="296"/>
  <unicode hex="2035"/>
  <outline>
    <contour>
      <point x="230" y="414" type="line"/>
      <point x="159" y="650" type="line" smooth="yes"/>
      <point x="151" y="675"/>
      <point x="141" y="703"/>
      <point x="105" y="703" type="curve" smooth="yes"/>
      <point x="80" y="703"/>
      <point x="68" y="683"/>
      <point x="68" y="660" type="curve" smooth="yes"/>
      <point x="68" y="647"/>
      <point x="73" y="635"/>
      <point x="79" y="623" type="curve" smooth="yes"/>
      <point x="195" y="399" type="line"/>
    </contour>
  </outline>
</glyph>
<glyph name="guilsinglleft" format="2">
  <advance width="307"/>
  <unicode hex="2039"/>
  <outline>
    <contour>
      <point x="33" y="226" type="line"/>
      <point x="101" y="165"/>
      <point x="165" y="102"/>
      <point x="233" y="34" type="curve"/>
      <point x="257" y="55" type="line"/>
      <point x="119" y="237" type="line"/>
      <point x="119" y="243" type="line"/>
      <point x="166" y="306"/>
      <point x="207" y="361"/>
      <point x="254" y="422" type="curve"/>
      <point x="231" y="442" type="line"/>
      <point x="168" y="379"/>
      <point x="104" y="315"/>
      <point x="33" y="249" type="curve"/>
    </contour>
  </outline>
  <guideline angle="0" x="0" y="221"/>
</glyph>
<glyph name="overline" format="2">
  <advance width="512"/>
  <unicode hex="203E"/>
  <outline>
    <contour>
      <point x="512" y="792" type="line"/>
      <point x="512" y="839" type="line"/>
      <point x="0" y="839" type="line"/>
      <point x="0" y="792" type="line"/>
    </contour>
  </outline>
</glyph>
<glyph name="questiondbl" format="2">
  <advance width="822"/>
  <unicode hex="2047"/>
  <outline>
    <contour>
      <point x="224" y="170" type="line"/>
      <point x="224" y="186" type="line" smooth="yes"/>
      <point x="224" y="295"/>
      <point x="385" y="373"/>
      <point x="385" y="520" type="curve" smooth="yes"/>
      <point x="385" y="624"/>
      <point x="298" y="669"/>
      <point x="200" y="669" type="curve" smooth="yes"/>
      <point x="99" y="669"/>
      <point x="30" y="612"/>
      <point x="30" y="531" type="curve" smooth="yes"/>
      <point x="30" y="484"/>
      <point x="49" y="461"/>
      <point x="81" y="461" type="curve" smooth="yes"/>
      <point x="105" y="461"/>
      <point x="126" y="474"/>
      <point x="126" y="505" type="curve" smooth="yes"/>
      <point x="126" y="543"/>
      <point x="105" y="544"/>
      <point x="105" y="577" type="curve" smooth="yes"/>
      <point x="105" y="608"/>
      <point x="132" y="631"/>
      <point x="191" y="631" type="curve" smooth="yes"/>
      <point x="255" y="631"/>
      <point x="295" y="596"/>
      <point x="295" y="517" type="curve" smooth="yes"/>
      <point x="295" y="363"/>
      <point x="184" y="326"/>
      <point x="184" y="196" type="curve" smooth="yes"/>
      <point x="184" y="170" type="line"/>
    </contour>
    <contour>
      <point x="262" y="48" type="curve" smooth="yes"/>
      <point x="262" y="79"/>
      <point x="241" y="107"/>
      <point x="206" y="107" type="curve" smooth="yes"/>
      <point x="169" y="107"/>
      <point x="147" y="80"/>
      <point x="147" y="48" type="curve" smooth="yes"/>
      <point x="147" y="15"/>
      <point x="166" y="-8"/>
      <point x="205" y="-8" type="curve" smooth="yes"/>
      <point x="241" y="-8"/>
      <point x="262" y="16"/>
    </contour>
    <contour>
      <point x="635" y="170" type="line"/>
      <point x="635" y="186" type="line" smooth="yes"/>
      <point x="635" y="295"/>
      <point x="796" y="373"/>
      <point x="796" y="520" type="curve" smooth="yes"/>
      <point x="796" y="624"/>
      <point x="709" y="669"/>
      <point x="611" y="669" type="curve" smooth="yes"/>
      <point x="510" y="669"/>
      <point x="441" y="612"/>
      <point x="441" y="531" type="curve" smooth="yes"/>
      <point x="441" y="484"/>
      <point x="461" y="461"/>
      <point x="492" y="461" type="curve" smooth="yes"/>
      <point x="516" y="461"/>
      <point x="537" y="474"/>
      <point x="537" y="505" type="curve" smooth="yes"/>
      <point x="537" y="543"/>
      <point x="516" y="544"/>
      <point x="516" y="577" type="curve" smooth="yes"/>
      <point x="516" y="608"/>
      <point x="543" y="631"/>
      <point x="602" y="631" type="curve" smooth="yes"/>
      <point x="667" y="631"/>
      <point x="706" y="596"/>
      <point x="706" y="517" type="curve" smooth="yes"/>
      <point x="706" y="363"/>
      <point x="595" y="326"/>
      <point x="595" y="196" type="curve" smooth="yes"/>
      <point x="595" y="170" type="line"/>
    </contour>
    <contour>
      <point x="673" y="48" type="curve" smooth="yes"/>
      <point x="673" y="79"/>
      <point x="652" y="107"/>
      <point x="617" y="107" type="curve" smooth="yes"/>
      <point x="580" y="107"/>
      <point x="558" y="80"/>
      <point x="558" y="48" type="curve" smooth="yes"/>
      <point x="558" y="15"/>
      <point x="577" y="-8"/>
      <point x="616" y="-8" type="curve" smooth="yes"/>
      <point x="652" y="-8"/>
      <point x="673" y="16"/>
    </contour>
  </outline>
</glyph>
<glyph name="asterisklow" format="2">
  <advance width="410"/>
  <unicode hex="204E"/>
  <outline>
    <contour>
      <point x="220" y="77" type="line" smooth="yes"/>
      <point x="220" y="109"/>
      <point x="242" y="156"/>
      <point x="242" y="186" type="curve" smooth="yes"/>
      <point x="242" y="210"/>
      <point x="225" y="221"/>
      <point x="206" y="221" type="curve" smooth="yes"/>
      <point x="189" y="221"/>
      <point x="169" y="210"/>
      <point x="169" y="185" type="curve" smooth="yes"/>
      <point x="169" y="155"/>
      <point x="190" y="109"/>
      <point x="190" y="77" type="curve" smooth="yes"/>
      <point x="190" y="58" type="line"/>
      <point x="189" y="57" type="line"/>
      <point x="174" y="69" type="line" smooth="yes"/>
      <point x="146" y="91"/>
      <point x="102" y="148"/>
      <point x="74" y="148" type="curve" smooth="yes"/>
      <point x="54" y="148"/>
      <point x="37" y="126"/>
      <point x="37" y="107" type="curve" smooth="yes"/>
      <point x="37" y="61"/>
      <point x="123" y="67"/>
      <point x="163" y="45" type="curve"/>
      <point x="177" y="36" type="line"/>
      <point x="177" y="34" type="line"/>
      <point x="161" y="25" type="line" smooth="yes"/>
      <point x="121" y="2"/>
      <point x="37" y="5"/>
      <point x="37" y="-41" type="curve" smooth="yes"/>
      <point x="37" y="-59"/>
      <point x="54" y="-80"/>
      <point x="74" y="-80" type="curve"/>
      <point x="104" y="-81"/>
      <point x="144" y="-17"/>
      <point x="172" y="1" type="curve" smooth="yes"/>
      <point x="189" y="12" type="line"/>
      <point x="190" y="11" type="line"/>
      <point x="190" y="-9" type="line" smooth="yes"/>
      <point x="190" y="-41"/>
      <point x="169" y="-86"/>
      <point x="169" y="-117" type="curve" smooth="yes"/>
      <point x="169" y="-141"/>
      <point x="188" y="-153"/>
      <point x="206" y="-153" type="curve" smooth="yes"/>
      <point x="225" y="-153"/>
      <point x="242" y="-141"/>
      <point x="242" y="-118" type="curve" smooth="yes"/>
      <point x="242" y="-87"/>
      <point x="220" y="-41"/>
      <point x="220" y="-9" type="curve" smooth="yes"/>
      <point x="220" y="12" type="line"/>
      <point x="237" y="1" type="line" smooth="yes"/>
      <point x="268" y="-19"/>
      <point x="303" y="-80"/>
      <point x="335" y="-80" type="curve" smooth="yes"/>
      <point x="355" y="-80"/>
      <point x="372" y="-62"/>
      <point x="372" y="-42" type="curve" smooth="yes"/>
      <point x="372" y="5"/>
      <point x="291" y="3"/>
      <point x="249" y="25" type="curve" smooth="yes"/>
      <point x="232" y="34" type="line"/>
      <point x="232" y="36" type="line"/>
      <point x="247" y="45" type="line"/>
      <point x="289" y="67"/>
      <point x="372" y="60"/>
      <point x="372" y="108" type="curve" smooth="yes"/>
      <point x="372" y="129"/>
      <point x="355" y="148"/>
      <point x="335" y="148" type="curve"/>
      <point x="307" y="147"/>
      <point x="264" y="92"/>
      <point x="236" y="69" type="curve" smooth="yes"/>
      <point x="220" y="56" type="line"/>
    </contour>
  </outline>
</glyph>
<glyph name="semicolonreversed" format="2">
  <advance width="245"/>
  <unicode hex="204F"/>
  <outline>
    <contour>
      <point x="187" y="-107" type="line"/>
      <point x="150" y="-91"/>
      <point x="104" y="-67"/>
      <point x="104" y="14" type="curve"/>
      <point x="115" y="10"/>
      <point x="124" y="8"/>
      <point x="135" y="8" type="curve" smooth="yes"/>
      <point x="174" y="8"/>
      <point x="190" y="33"/>
      <point x="190" y="62" type="curve" smooth="yes"/>
      <point x="190" y="94"/>
      <point x="168" y="121"/>
      <point x="128" y="121" type="curve" smooth="yes"/>
      <point x="78" y="121"/>
      <point x="51" y="88"/>
      <point x="51" y="33" type="curve" smooth="yes"/>
      <point x="51" y="-80"/>
      <point x="135" y="-114"/>
      <point x="175" y="-132" type="curve"/>
    </contour>
    <contour>
      <point x="183" y="414" type="curve" smooth="yes"/>
      <point x="183" y="448"/>
      <point x="161" y="478"/>
      <point x="122" y="478" type="curve" smooth="yes"/>
      <point x="85" y="478"/>
      <point x="62" y="449"/>
      <point x="62" y="415" type="curve" smooth="yes"/>
      <point x="62" y="381"/>
      <point x="81" y="356"/>
      <point x="121" y="356" type="curve" smooth="yes"/>
      <point x="161" y="356"/>
      <point x="183" y="383"/>
    </contour>
  </outline>
</glyph>
<glyph name="asteriskdblv" format="2">
  <advance width="410"/>
  <unicode hex="2051"/>
  <outline>
    <contour>
      <point x="220" y="177" type="line" smooth="yes"/>
      <point x="220" y="209"/>
      <point x="242" y="256"/>
      <point x="242" y="286" type="curve" smooth="yes"/>
      <point x="242" y="310"/>
      <point x="225" y="321"/>
      <point x="206" y="321" type="curve" smooth="yes"/>
      <point x="189" y="321"/>
      <point x="169" y="310"/>
      <point x="169" y="285" type="curve" smooth="yes"/>
      <point x="169" y="255"/>
      <point x="190" y="209"/>
      <point x="190" y="177" type="curve" smooth="yes"/>
      <point x="190" y="158" type="line"/>
      <point x="189" y="157" type="line"/>
      <point x="174" y="169" type="line" smooth="yes"/>
      <point x="146" y="191"/>
      <point x="102" y="248"/>
      <point x="74" y="248" type="curve" smooth="yes"/>
      <point x="54" y="248"/>
      <point x="37" y="226"/>
      <point x="37" y="207" type="curve" smooth="yes"/>
      <point x="37" y="161"/>
      <point x="123" y="167"/>
      <point x="163" y="145" type="curve"/>
      <point x="177" y="136" type="line"/>
      <point x="177" y="134" type="line"/>
      <point x="161" y="125" type="line" smooth="yes"/>
      <point x="121" y="102"/>
      <point x="37" y="105"/>
      <point x="37" y="59" type="curve" smooth="yes"/>
      <point x="37" y="41"/>
      <point x="54" y="20"/>
      <point x="74" y="20" type="curve"/>
      <point x="104" y="19"/>
      <point x="144" y="83"/>
      <point x="172" y="101" type="curve" smooth="yes"/>
      <point x="189" y="112" type="line"/>
      <point x="190" y="111" type="line"/>
      <point x="190" y="91" type="line" smooth="yes"/>
      <point x="190" y="59"/>
      <point x="169" y="14"/>
      <point x="169" y="-17" type="curve" smooth="yes"/>
      <point x="169" y="-41"/>
      <point x="188" y="-53"/>
      <point x="206" y="-53" type="curve" smooth="yes"/>
      <point x="225" y="-53"/>
      <point x="242" y="-41"/>
      <point x="242" y="-18" type="curve" smooth="yes"/>
      <point x="242" y="13"/>
      <point x="220" y="59"/>
      <point x="220" y="91" type="curve" smooth="yes"/>
      <point x="220" y="112" type="line"/>
      <point x="237" y="101" type="line" smooth="yes"/>
      <point x="268" y="81"/>
      <point x="303" y="20"/>
      <point x="335" y="20" type="curve" smooth="yes"/>
      <point x="355" y="20"/>
      <point x="372" y="38"/>
      <point x="372" y="58" type="curve" smooth="yes"/>
      <point x="372" y="105"/>
      <point x="291" y="103"/>
      <point x="249" y="125" type="curve" smooth="yes"/>
      <point x="232" y="134" type="line"/>
      <point x="232" y="136" type="line"/>
      <point x="247" y="145" type="line"/>
      <point x="289" y="167"/>
      <point x="372" y="160"/>
      <point x="372" y="208" type="curve" smooth="yes"/>
      <point x="372" y="229"/>
      <point x="355" y="248"/>
      <point x="335" y="248" type="curve"/>
      <point x="307" y="247"/>
      <point x="264" y="192"/>
      <point x="236" y="169" type="curve" smooth="yes"/>
      <point x="220" y="156" type="line"/>
    </contour>
    <contour>
      <point x="220" y="589" type="line" smooth="yes"/>
      <point x="220" y="621"/>
      <point x="242" y="668"/>
      <point x="242" y="698" type="curve" smooth="yes"/>
      <point x="242" y="722"/>
      <point x="225" y="733"/>
      <point x="206" y="733" type="curve" smooth="yes"/>
      <point x="189" y="733"/>
      <point x="169" y="722"/>
      <point x="169" y="697" type="curve" smooth="yes"/>
      <point x="169" y="667"/>
      <point x="190" y="621"/>
      <point x="190" y="589" type="curve" smooth="yes"/>
      <point x="190" y="570" type="line"/>
      <point x="189" y="569" type="line"/>
      <point x="174" y="581" type="line" smooth="yes"/>
      <point x="146" y="603"/>
      <point x="102" y="660"/>
      <point x="74" y="660" type="curve" smooth="yes"/>
      <point x="54" y="660"/>
      <point x="37" y="638"/>
      <point x="37" y="619" type="curve" smooth="yes"/>
      <point x="37" y="573"/>
      <point x="123" y="579"/>
      <point x="163" y="557" type="curve"/>
      <point x="177" y="548" type="line"/>
      <point x="177" y="546" type="line"/>
      <point x="161" y="537" type="line" smooth="yes"/>
      <point x="121" y="514"/>
      <point x="37" y="517"/>
      <point x="37" y="471" type="curve" smooth="yes"/>
      <point x="37" y="453"/>
      <point x="54" y="432"/>
      <point x="74" y="432" type="curve"/>
      <point x="104" y="431"/>
      <point x="144" y="495"/>
      <point x="172" y="513" type="curve" smooth="yes"/>
      <point x="189" y="524" type="line"/>
      <point x="190" y="523" type="line"/>
      <point x="190" y="503" type="line" smooth="yes"/>
      <point x="190" y="471"/>
      <point x="169" y="426"/>
      <point x="169" y="395" type="curve" smooth="yes"/>
      <point x="169" y="371"/>
      <point x="188" y="359"/>
      <point x="206" y="359" type="curve" smooth="yes"/>
      <point x="225" y="359"/>
      <point x="242" y="371"/>
      <point x="242" y="394" type="curve" smooth="yes"/>
      <point x="242" y="425"/>
      <point x="220" y="471"/>
      <point x="220" y="503" type="curve" smooth="yes"/>
      <point x="220" y="524" type="line"/>
      <point x="237" y="513" type="line" smooth="yes"/>
      <point x="268" y="493"/>
      <point x="303" y="432"/>
      <point x="335" y="432" type="curve" smooth="yes"/>
      <point x="355" y="432"/>
      <point x="372" y="450"/>
      <point x="372" y="470" type="curve" smooth="yes"/>
      <point x="372" y="517"/>
      <point x="291" y="515"/>
      <point x="249" y="537" type="curve" smooth="yes"/>
      <point x="232" y="546" type="line"/>
      <point x="232" y="548" type="line"/>
      <point x="247" y="557" type="line"/>
      <point x="289" y="579"/>
      <point x="372" y="572"/>
      <point x="372" y="620" type="curve" smooth="yes"/>
      <point x="372" y="641"/>
      <point x="355" y="660"/>
      <point x="335" y="660" type="curve"/>
      <point x="307" y="659"/>
      <point x="264" y="604"/>
      <point x="236" y="581" type="curve" smooth="yes"/>
      <point x="220" y="568" type="line"/>
    </contour>
  </outline>
</glyph>
<glyph name="minuscommercial" format="2">
  <advance width="482"/>
  <unicode hex="2052"/>
  <outline>
    <contour>
      <point x="180" y="634" type="curve" smooth="yes"/>
      <point x="180" y="664"/>
      <point x="153" y="692"/>
      <point x="124" y="692" type="curve" smooth="yes"/>
      <point x="92" y="692"/>
      <point x="66" y="666"/>
      <point x="66" y="635" type="curve" smooth="yes"/>
      <point x="66" y="603"/>
      <point x="91" y="578"/>
      <point x="123" y="578" type="curve" smooth="yes"/>
      <point x="153" y="578"/>
      <point x="180" y="604"/>
    </contour>
    <contour>
      <point x="427" y="723" type="line"/>
      <point x="358" y="723" type="line"/>
      <point x="55" y="-205" type="line"/>
      <point x="126" y="-205" type="line"/>
    </contour>
    <contour>
      <point x="415" y="-119" type="curve" smooth="yes"/>
      <point x="415" y="-88"/>
      <point x="389" y="-61"/>
      <point x="359" y="-61" type="curve" smooth="yes"/>
      <point x="327" y="-61"/>
      <point x="302" y="-86"/>
      <point x="302" y="-118" type="curve" smooth="yes"/>
      <point x="302" y="-150"/>
      <point x="326" y="-174"/>
      <point x="358" y="-174" type="curve" smooth="yes"/>
      <point x="389" y="-174"/>
      <point x="415" y="-149"/>
    </contour>
  </outline>
</glyph>
<glyph name="Euro" format="2">
  <advance width="495"/>
  <unicode hex="20AC"/>
  <outline>
    <contour>
      <point x="16" y="358" type="line"/>
      <point x="64" y="358" type="line"/>
      <point x="62" y="340"/>
      <point x="62" y="316"/>
      <point x="62" y="293" type="curve"/>
      <point x="14" y="293" type="line"/>
      <point x="5" y="249" type="line"/>
      <point x="66" y="249" type="line"/>
      <point x="83" y="79"/>
      <point x="160" y="-13"/>
      <point x="291" y="-13" type="curve" smooth="yes"/>
      <point x="396" y="-13"/>
      <point x="452" y="46"/>
      <point x="488" y="118" type="curve"/>
      <point x="465" y="135" type="line"/>
      <point x="427" y="78"/>
      <point x="383" y="58"/>
      <point x="317" y="58" type="curve" smooth="yes"/>
      <point x="205" y="58"/>
      <point x="168" y="152"/>
      <point x="157" y="249" type="curve"/>
      <point x="341" y="249" type="line"/>
      <point x="349" y="293" type="line"/>
      <point x="153" y="293" type="line"/>
      <point x="152" y="320"/>
      <point x="152" y="343"/>
      <point x="153" y="358" type="curve"/>
      <point x="352" y="358" type="line"/>
      <point x="362" y="402" type="line"/>
      <point x="156" y="402" type="line"/>
      <point x="171" y="515"/>
      <point x="211" y="605"/>
      <point x="297" y="605" type="curve" smooth="yes"/>
      <point x="380" y="605"/>
      <point x="420" y="561"/>
      <point x="433" y="443" type="curve"/>
      <point x="464" y="443" type="line"/>
      <point x="473" y="641" type="line"/>
      <point x="450" y="641" type="line"/>
      <point x="436" y="619"/>
      <point x="428" y="609"/>
      <point x="419" y="609" type="curve" smooth="yes"/>
      <point x="406" y="609"/>
      <point x="377" y="644"/>
      <point x="299" y="644" type="curve" smooth="yes"/>
      <point x="175" y="644"/>
      <point x="94" y="550"/>
      <point x="69" y="402" type="curve"/>
      <point x="25" y="402" type="line"/>
    </contour>
  </outline>
</glyph>
<glyph name="rupee" format="2">
  <advance width="495"/>
  <unicode hex="20B9"/>
  <outline>
    <contour>
      <point x="447" y="480" type="line"/>
      <point x="381" y="480" type="line"/>
      <point x="379" y="536"/>
      <point x="347" y="568"/>
      <point x="305" y="586" type="curve"/>
      <point x="306" y="589" type="line"/>
      <point x="447" y="589" type="line"/>
      <point x="447" y="630" type="line"/>
      <point x="49" y="630" type="line"/>
      <point x="49" y="589" type="line"/>
      <point x="131" y="589" type="line" smooth="yes"/>
      <point x="229" y="589"/>
      <point x="280" y="549"/>
      <point x="285" y="480" type="curve"/>
      <point x="49" y="480" type="line"/>
      <point x="49" y="439" type="line"/>
      <point x="284" y="439" type="line"/>
      <point x="273" y="358"/>
      <point x="216" y="330"/>
      <point x="138" y="330" type="curve" smooth="yes"/>
      <point x="49" y="330" type="line"/>
      <point x="49" y="288" type="line"/>
      <point x="99" y="288" type="line" smooth="yes"/>
      <point x="131" y="288"/>
      <point x="145" y="288"/>
      <point x="166" y="257" type="curve" smooth="yes"/>
      <point x="337" y="0" type="line"/>
      <point x="495" y="0" type="line"/>
      <point x="495" y="29" type="line"/>
      <point x="451" y="29"/>
      <point x="425" y="36"/>
      <point x="396" y="78" type="curve" smooth="yes"/>
      <point x="290" y="232"/>
      <point x="253" y="276"/>
      <point x="220" y="296" type="curve"/>
      <point x="220" y="299" type="line"/>
      <point x="290" y="315"/>
      <point x="363" y="354"/>
      <point x="378" y="439" type="curve"/>
      <point x="447" y="439" type="line"/>
    </contour>
  </outline>
</glyph>
<glyph name="rouble" format="2">
  <advance width="495"/>
  <unicode hex="20BD"/>
  <outline>
    <contour>
      <point x="29" y="287" type="line"/>
      <point x="111" y="287" type="line"/>
      <point x="111" y="217" type="line"/>
      <point x="30" y="217" type="line"/>
      <point x="30" y="175" type="line"/>
      <point x="111" y="175" type="line"/>
      <point x="111" y="122" type="line" smooth="yes"/>
      <point x="111" y="42"/>
      <point x="100" y="29"/>
      <point x="26" y="29" type="curve"/>
      <point x="26" y="0" type="line"/>
      <point x="295" y="0" type="line"/>
      <point x="295" y="29" type="line"/>
      <point x="217" y="29"/>
      <point x="199" y="41"/>
      <point x="199" y="123" type="curve" smooth="yes"/>
      <point x="199" y="175" type="line"/>
      <point x="375" y="175" type="line"/>
      <point x="375" y="217" type="line"/>
      <point x="199" y="217" type="line"/>
      <point x="199" y="287" type="line"/>
      <point x="236" y="287" type="line" smooth="yes"/>
      <point x="357" y="287"/>
      <point x="470" y="334"/>
      <point x="470" y="478" type="curve" smooth="yes"/>
      <point x="470" y="599"/>
      <point x="366" y="630"/>
      <point x="254" y="630" type="curve" smooth="yes"/>
      <point x="30" y="630" type="line"/>
      <point x="30" y="601" type="line"/>
      <point x="90" y="601"/>
      <point x="111" y="590"/>
      <point x="111" y="534" type="curve" smooth="yes"/>
      <point x="111" y="328" type="line"/>
      <point x="29" y="328" type="line"/>
    </contour>
    <contour>
      <point x="199" y="588" type="line"/>
      <point x="215" y="590"/>
      <point x="230" y="592"/>
      <point x="246" y="592" type="curve" smooth="yes"/>
      <point x="333" y="592"/>
      <point x="375" y="547"/>
      <point x="375" y="464" type="curve" smooth="yes"/>
      <point x="375" y="359"/>
      <point x="329" y="328"/>
      <point x="234" y="328" type="curve" smooth="yes"/>
      <point x="199" y="328" type="line"/>
    </contour>
  </outline>
</glyph>
<glyph name="uni20D0" format="2">
  <unicode hex="20D0"/>
  <outline>
    <contour>
      <point x="-21" y="688" type="line"/>
      <point x="-21" y="735" type="line"/>
      <point x="-328" y="735" type="line" smooth="yes"/>
      <point x="-343" y="735"/>
      <point x="-351" y="737"/>
      <point x="-351" y="748" type="curve" smooth="yes"/>
      <point x="-351" y="762"/>
      <point x="-342" y="770"/>
      <point x="-328" y="787" type="curve" smooth="yes"/>
      <point x="-297" y="823" type="line"/>
      <point x="-314" y="843" type="line"/>
      <point x="-460" y="705" type="line"/>
      <point x="-460" y="688" type="line"/>
    </contour>
  </outline>
</glyph>
<glyph name="uni20D1" format="2">
  <unicode hex="20D1"/>
  <outline>
    <contour>
      <point x="-1" y="688" type="line"/>
      <point x="-1" y="705" type="line"/>
      <point x="-147" y="843" type="line"/>
      <point x="-164" y="823" type="line"/>
      <point x="-133" y="787" type="line" smooth="yes"/>
      <point x="-119" y="770"/>
      <point x="-110" y="762"/>
      <point x="-110" y="748" type="curve" smooth="yes"/>
      <point x="-110" y="737"/>
      <point x="-118" y="735"/>
      <point x="-133" y="735" type="curve" smooth="yes"/>
      <point x="-440" y="735" type="line"/>
      <point x="-440" y="688" type="line"/>
    </contour>
  </outline>
</glyph>
<glyph name="uni20D2" format="2">
  <unicode hex="20D2"/>
  <outline>
    <contour>
      <point x="-205" y="-160" type="line"/>
      <point x="-205" y="678" type="line"/>
      <point x="-256" y="678" type="line"/>
      <point x="-256" y="-160" type="line"/>
    </contour>
  </outline>
</glyph>
<glyph name="uni20D5" format="2">
  <unicode hex="20D5"/>
  <outline>
    <contour>
      <point x="-17" y="644" type="curve" smooth="yes"/>
      <point x="-60" y="756"/>
      <point x="-132" y="815"/>
      <point x="-230" y="815" type="curve" smooth="yes"/>
      <point x="-350" y="815"/>
      <point x="-445" y="733"/>
      <point x="-455" y="590" type="curve"/>
      <point x="-411" y="585" type="line"/>
      <point x="-393" y="719"/>
      <point x="-327" y="774"/>
      <point x="-230" y="774" type="curve" smooth="yes"/>
      <point x="-148" y="774"/>
      <point x="-96" y="731"/>
      <point x="-54" y="634" type="curve" smooth="yes"/>
      <point x="-51" y="628"/>
      <point x="-50" y="622"/>
      <point x="-50" y="619" type="curve" smooth="yes"/>
      <point x="-50" y="613"/>
      <point x="-54" y="611"/>
      <point x="-63" y="611" type="curve" smooth="yes"/>
      <point x="-95" y="611"/>
      <point x="-126" y="614"/>
      <point x="-157" y="619" type="curve"/>
      <point x="-162" y="598" type="line"/>
      <point x="-110" y="585"/>
      <point x="-48" y="570"/>
      <point x="2" y="548" type="curve"/>
      <point x="14" y="552" type="line"/>
      <point x="29" y="610"/>
      <point x="57" y="670"/>
      <point x="79" y="721" type="curve"/>
      <point x="56" y="731" type="line"/>
      <point x="42" y="703"/>
      <point x="8" y="633"/>
      <point x="-5" y="633" type="curve" smooth="yes"/>
      <point x="-11" y="633"/>
      <point x="-14" y="637"/>
    </contour>
  </outline>
</glyph>
<glyph name="uni20D9" format="2">
  <unicode hex="20D9"/>
  <outline>
    <contour>
      <point x="-232" y="132" type="curve"/>
      <point x="-139" y="131"/>
      <point x="-69" y="205"/>
      <point x="-77" y="298" type="curve"/>
      <point x="-25" y="374" type="line"/>
      <point x="-27" y="381" type="line"/>
      <point x="-97" y="363" type="line"/>
      <point x="-120" y="411"/>
      <point x="-168" y="439"/>
      <point x="-227" y="439" type="curve" smooth="yes"/>
      <point x="-319" y="439"/>
      <point x="-382" y="369"/>
      <point x="-382" y="287" type="curve" smooth="yes"/>
      <point x="-382" y="200"/>
      <point x="-323" y="132"/>
    </contour>
    <contour>
      <point x="-230" y="387" type="curve" smooth="yes"/>
      <point x="-193" y="387"/>
      <point x="-166" y="373"/>
      <point x="-149" y="349" type="curve"/>
      <point x="-218" y="331" type="line"/>
      <point x="-217" y="324" type="line"/>
      <point x="-132" y="289" type="line"/>
      <point x="-137" y="226"/>
      <point x="-173" y="184"/>
      <point x="-230" y="184" type="curve" smooth="yes"/>
      <point x="-287" y="184"/>
      <point x="-326" y="227"/>
      <point x="-326" y="286" type="curve" smooth="yes"/>
      <point x="-326" y="345"/>
      <point x="-287" y="387"/>
    </contour>
  </outline>
</glyph>
<glyph name="uni20DA" format="2">
  <unicode hex="20DA"/>
  <outline>
    <contour>
      <point x="-233" y="438" type="curve"/>
      <point x="-324" y="438"/>
      <point x="-383" y="370"/>
      <point x="-383" y="283" type="curve" smooth="yes"/>
      <point x="-383" y="201"/>
      <point x="-320" y="131"/>
      <point x="-228" y="131" type="curve" smooth="yes"/>
      <point x="-169" y="131"/>
      <point x="-121" y="159"/>
      <point x="-98" y="207" type="curve"/>
      <point x="-28" y="189" type="line"/>
      <point x="-26" y="196" type="line"/>
      <point x="-78" y="272" type="line"/>
      <point x="-70" y="365"/>
      <point x="-140" y="439"/>
    </contour>
    <contour>
      <point x="-231" y="183" type="curve" smooth="yes"/>
      <point x="-288" y="183"/>
      <point x="-327" y="225"/>
      <point x="-327" y="284" type="curve" smooth="yes"/>
      <point x="-327" y="343"/>
      <point x="-288" y="386"/>
      <point x="-231" y="386" type="curve" smooth="yes"/>
      <point x="-174" y="386"/>
      <point x="-138" y="344"/>
      <point x="-133" y="281" type="curve"/>
      <point x="-218" y="246" type="line"/>
      <point x="-219" y="239" type="line"/>
      <point x="-150" y="221" type="line"/>
      <point x="-167" y="197"/>
      <point x="-194" y="183"/>
    </contour>
  </outline>
</glyph>
